SplineFontDB: 3.2
FontName: ATM166-Regular
FullName: ATM166-Regular
FamilyName: ATM 166
Weight: Book
Copyright: AzhaguThamizh
Version: 1.001
ItalicAngle: -11
UnderlinePosition: -271
UnderlineWidth: 102
Ascent: 1600
Descent: 400
InvalidEm: 0
sfntRevision: 0x00010042
LayerCount: 2
Layer: 0 1 "Back" 1
Layer: 1 1 "Fore" 0
XUID: [1021 192 2086997156 3967]
StyleMap: 0x0040
FSType: 8
OS2Version: 3
OS2_WeightWidthSlopeOnly: 0
OS2_UseTypoMetrics: 0
CreationTime: 1537269219
ModificationTime: 1545807212
PfmFamily: 17
TTFWeight: 400
TTFWidth: 5
LineGap: 0
VLineGap: 0
Panose: 2 11 6 4 2 2 2 2 2 4
OS2TypoAscent: 2000
OS2TypoAOffset: 0
OS2TypoDescent: -1320
OS2TypoDOffset: 0
OS2TypoLinegap: 0
OS2WinAscent: 2000
OS2WinAOffset: 0
OS2WinDescent: 744
OS2WinDOffset: 0
HheadAscent: 2000
HheadAOffset: 0
HheadDescent: -1320
HheadDOffset: 0
OS2SubXSize: 1400
OS2SubYSize: 1300
OS2SubXOff: 0
OS2SubYOff: 0
OS2SupXSize: 1400
OS2SupYSize: 1300
OS2SupXOff: 0
OS2SupYOff: 0
OS2StrikeYSize: 100
OS2StrikeYPos: 518
OS2CapHeight: 1586
OS2XHeight: -200
OS2Vendor: '    '
OS2CodePages: 00000001.00000000
OS2UnicodeRanges: 00100003.00000000.00000000.00000000
Lookup: 4 0 0 "'akhn' Akhand in Tamil2 lookup 0" { "'akhn' Akhand in Tamil2 lookup 0 subtable"  } ['akhn' ('tml2' <'dflt' > ) ]
Lookup: 4 0 0 "'akhn' Akhand in Tamil lookup 1" { "'akhn' Akhand in Tamil lookup 1 subtable"  } ['akhn' ('taml' <'dflt' > ) ]
Lookup: 4 0 0 "'half' Half Forms in Tamil lookup 2" { "'half' Half Forms in Tamil lookup 2 subtable"  } ['half' ('taml' <'dflt' > ) ]
Lookup: 4 0 0 "'haln' Halant Forms in Tamil2 lookup 3" { "'haln' Halant Forms in Tamil2 lookup 3 subtable"  } ['haln' ('tml2' <'dflt' > ) ]
Lookup: 4 0 0 "'haln' Halant Forms in Tamil lookup 4" { "'haln' Halant Forms in Tamil lookup 4 subtable"  } ['haln' ('taml' <'dflt' > ) ]
Lookup: 4 0 0 "'abvs' Above Base Substitutions lookup 5" { "'abvs' Above Base Substitutions lookup 5 subtable"  } ['abvs' ('taml' <'dflt' > 'tml2' <'dflt' > ) ]

StartChar: .notdef
Encoding: 65536 -1 0
Width: 1600
Flags: W
LayerCount: 2
Fore
SplineSet
100 0 m 1,0,-1
 100 1600 l 1,1,-1
 1500 1600 l 1,2,-1
 1500 0 l 1,3,-1
 100 0 l 1,0,-1
1400 100 m 1,4,-1
 1400 1500 l 1,5,-1
 200 1500 l 1,6,-1
 200 100 l 1,7,-1
 1400 100 l 1,4,-1
EndSplineSet
EndChar

StartChar: exclam
Encoding: 33 33 4
Width: 752
GlyphClass: 2
Flags: W
LayerCount: 2
Fore
SplineSet
449 0 m 0,0,1
 393 0 393 0 352.5 40 c 128,-1,2
 312 80 312 80 312 137 c 0,3,4
 312 197 312 197 352.5 240 c 128,-1,5
 393 283 393 283 449 283 c 0,6,7
 506 283 506 283 546 240 c 128,-1,8
 586 197 586 197 586 137 c 0,9,10
 586 80 586 80 546 40 c 128,-1,11
 506 0 506 0 449 0 c 0,0,1
605 322 m 1,12,-1
 566 322 l 2,13,14
 525 322 525 322 495 332 c 128,-1,15
 465 342 465 342 449 361 c 1,16,17
 434 342 434 342 403.5 332 c 128,-1,18
 373 322 373 322 332 322 c 2,19,-1
 293 322 l 1,20,-1
 293 381 l 1,21,-1
 332 381 l 2,22,23
 365 381 365 381 387.5 395.5 c 128,-1,24
 410 410 410 410 410 430 c 0,25,26
 410 475 410 475 407 512 c 128,-1,27
 404 549 404 549 400 576 c 2,28,-1
 352 889 l 2,29,30
 342 943 342 943 337 982 c 128,-1,31
 332 1021 332 1021 332 1045 c 0,32,33
 332 1094 332 1094 366 1128 c 128,-1,34
 400 1162 400 1162 449 1162 c 256,35,36
 498 1162 498 1162 532 1128 c 128,-1,37
 566 1094 566 1094 566 1045 c 0,38,39
 566 1027 566 1027 561.5 991 c 128,-1,40
 557 955 557 955 547 898 c 2,41,-1
 508 586 l 2,42,43
 498 531 498 531 493 492 c 128,-1,44
 488 453 488 453 488 430 c 0,45,46
 488 410 488 410 508.5 395.5 c 128,-1,47
 529 381 529 381 557 381 c 2,48,-1
 605 381 l 1,49,-1
 605 322 l 1,12,-1
EndSplineSet
EndChar

StartChar: quotedbl
Encoding: 34 34 5
Width: 840
GlyphClass: 2
Flags: W
LayerCount: 2
Fore
SplineSet
646 784 m 1,0,-1
 674 1070 l 1,1,-1
 690 1200 l 2,2,3
 698 1264 698 1264 735 1309 c 128,-1,4
 772 1354 772 1354 832 1354 c 0,5,6
 896 1354 896 1354 904 1288 c 0,7,8
 904 1262 904 1262 890 1222 c 0,9,10
 858 1126 858 1126 830 1070 c 2,11,-1
 692 784 l 1,12,-1
 646 784 l 1,0,-1
288 784 m 1,13,-1
 318 1074 l 2,14,15
 330 1192 330 1192 334 1210 c 0,16,17
 350 1292 350 1292 396 1328 c 1,18,19
 438 1354 438 1354 472 1354 c 0,20,21
 546 1354 546 1354 546 1286 c 0,22,23
 546 1248 546 1248 464 1072 c 2,24,-1
 330 784 l 1,25,-1
 288 784 l 1,13,-1
EndSplineSet
EndChar

StartChar: numbersign
Encoding: 35 35 6
Width: 1068
GlyphClass: 2
Flags: W
LayerCount: 2
Fore
SplineSet
998 278 m 1,0,-1
 746 278 l 1,1,-1
 680 -36 l 1,2,-1
 584 -36 l 1,3,-1
 650 278 l 1,4,-1
 320 278 l 1,5,-1
 254 -36 l 1,6,-1
 158 -36 l 1,7,-1
 224 278 l 1,8,-1
 68 278 l 1,9,-1
 68 374 l 1,10,-1
 244 374 l 1,11,-1
 304 664 l 1,12,-1
 68 664 l 1,13,-1
 68 760 l 1,14,-1
 324 760 l 1,15,-1
 392 1076 l 1,16,-1
 488 1076 l 1,17,-1
 420 760 l 1,18,-1
 748 760 l 1,19,-1
 814 1076 l 1,20,-1
 910 1076 l 1,21,-1
 844 760 l 1,22,-1
 998 760 l 1,23,-1
 998 664 l 1,24,-1
 826 664 l 1,25,-1
 764 374 l 1,26,-1
 998 374 l 1,27,-1
 998 278 l 1,0,-1
730 664 m 1,28,-1
 400 664 l 1,29,-1
 340 374 l 1,30,-1
 668 374 l 1,31,-1
 730 664 l 1,28,-1
EndSplineSet
EndChar

StartChar: dollar
Encoding: 36 36 7
Width: 932
GlyphClass: 2
Flags: W
LayerCount: 2
Fore
SplineSet
774 296 m 2,0,1
 760 170 760 170 636 82 c 0,2,3
 534 12 534 12 392 -16 c 1,4,-1
 376 -90 l 1,5,-1
 314 -90 l 1,6,-1
 328 -20 l 1,7,-1
 302 -20 l 1,8,-1
 242 -18 l 1,9,-1
 210 -18 l 1,10,11
 194 -12 194 -12 188 -10 c 0,12,13
 112 6 112 6 30 46 c 1,14,-1
 46 88 l 1,15,-1
 66 160 l 1,16,-1
 86 242 l 1,17,-1
 130 242 l 1,18,-1
 124 188 l 1,19,20
 124 104 124 104 190 60 c 0,21,22
 248 20 248 20 336 20 c 1,23,-1
 432 464 l 1,24,25
 172 562 172 562 172 724 c 0,26,27
 172 760 172 760 176 776 c 0,28,29
 206 900 206 900 322 982 c 0,30,31
 424 1054 424 1054 562 1074 c 1,32,-1
 574 1134 l 1,33,-1
 636 1134 l 1,34,-1
 624 1074 l 1,35,36
 774 1074 774 1074 882 1008 c 1,37,-1
 830 830 l 1,38,-1
 786 830 l 1,39,-1
 788 868 l 2,40,41
 796 1030 796 1030 614 1030 c 1,42,-1
 524 602 l 1,43,44
 652 546 652 546 696 512 c 0,45,46
 780 448 780 448 780 350 c 1,47,-1
 774 296 l 2,0,1
468 630 m 1,48,-1
 552 1028 l 1,49,50
 362 996 362 996 314 824 c 1,51,-1
 310 792 l 1,52,53
 310 736 310 736 360 690 c 0,54,55
 388 664 388 664 468 630 c 1,48,-1
638 238 m 1,56,-1
 642 278 l 1,57,58
 642 364 642 364 488 438 c 1,59,-1
 398 20 l 1,60,61
 484 34 484 34 550 94 c 128,-1,62
 616 154 616 154 638 238 c 1,56,-1
EndSplineSet
EndChar

StartChar: percent
Encoding: 37 37 8
Width: 1387
GlyphClass: 2
Flags: W
LayerCount: 2
Fore
SplineSet
381 312 m 256,0,1
 283 312 283 312 214.5 380.5 c 128,-1,2
 146 449 146 449 146 547 c 256,3,4
 146 645 146 645 214.5 713 c 128,-1,5
 283 781 283 781 381 781 c 256,6,7
 479 781 479 781 547 713 c 128,-1,8
 615 645 615 645 615 547 c 256,9,10
 615 449 615 449 547 380.5 c 128,-1,11
 479 312 479 312 381 312 c 256,0,1
381 391 m 0,12,13
 445 391 445 391 491 436.5 c 128,-1,14
 537 482 537 482 537 547 c 0,15,16
 537 611 537 611 491 657 c 128,-1,17
 445 703 445 703 381 703 c 0,18,19
 316 703 316 703 270.5 657 c 128,-1,20
 225 611 225 611 225 547 c 0,21,22
 225 482 225 482 270.5 436.5 c 128,-1,23
 316 391 316 391 381 391 c 0,12,13
1006 0 m 256,24,25
 908 0 908 0 839.5 68.5 c 128,-1,26
 771 137 771 137 771 234 c 0,27,28
 771 332 771 332 839.5 400.5 c 128,-1,29
 908 469 908 469 1006 469 c 256,30,31
 1104 469 1104 469 1172 400.5 c 128,-1,32
 1240 332 1240 332 1240 234 c 0,33,34
 1240 137 1240 137 1172 68.5 c 128,-1,35
 1104 0 1104 0 1006 0 c 256,24,25
1006 78 m 0,36,37
 1070 78 1070 78 1116 124 c 128,-1,38
 1162 170 1162 170 1162 234 c 0,39,40
 1162 299 1162 299 1116 345 c 128,-1,41
 1070 391 1070 391 1006 391 c 0,42,43
 941 391 941 391 895.5 345 c 128,-1,44
 850 299 850 299 850 234 c 0,45,46
 850 170 850 170 895.5 124 c 128,-1,47
 941 78 941 78 1006 78 c 0,36,37
527 -146 m 1,48,49
 479 -129 479 -129 449.5 -104.5 c 128,-1,50
 420 -80 420 -80 420 -59 c 2,51,-1
 420 -39 l 1,52,53
 412 -43 412 -43 399.5 -46 c 128,-1,54
 387 -49 387 -49 371 -49 c 0,55,56
 344 -49 344 -49 315.5 -33.5 c 128,-1,57
 287 -18 287 -18 264 10 c 1,58,-1
 303 59 l 1,59,60
 322 35 322 35 339.5 22.5 c 128,-1,61
 357 10 357 10 371 10 c 0,62,63
 383 10 383 10 398.5 26.5 c 128,-1,64
 414 43 414 43 439 78 c 2,65,-1
 850 703 l 2,66,67
 873 736 873 736 885.5 760.5 c 128,-1,68
 898 785 898 785 898 801 c 0,69,70
 898 830 898 830 876.5 854.5 c 128,-1,71
 855 879 855 879 820 889 c 1,72,-1
 859 937 l 1,73,74
 906 920 906 920 934.5 893.5 c 128,-1,75
 963 867 963 867 967 840 c 1,76,-1
 967 811 l 1,77,78
 984 820 984 820 996 825 c 128,-1,79
 1008 830 1008 830 1016 830 c 0,80,81
 1043 830 1043 830 1071.5 814.5 c 128,-1,82
 1100 799 1100 799 1123 771 c 1,83,-1
 1084 723 l 1,84,85
 1068 742 1068 742 1050.5 752 c 128,-1,86
 1033 762 1033 762 1016 762 c 0,87,88
 1002 762 1002 762 983.5 746 c 128,-1,89
 965 730 965 730 947 703 c 2,90,-1
 518 59 l 2,91,92
 498 29 498 29 488.5 9.5 c 128,-1,93
 479 -10 479 -10 479 -20 c 0,94,95
 479 -41 479 -41 503 -62.5 c 128,-1,96
 527 -84 527 -84 566 -98 c 1,97,-1
 527 -146 l 1,48,49
EndSplineSet
EndChar

StartChar: ampersand
Encoding: 38 38 9
Width: 1034
GlyphClass: 2
Flags: W
LayerCount: 2
Fore
SplineSet
1006 -4 m 1,0,-1
 928 0 l 1,1,-1
 850 0 l 1,2,-1
 754 -4 l 1,3,-1
 676 98 l 1,4,5
 598 32 598 32 524 2 c 1,6,-1
 462 -14 l 2,7,8
 424 -24 424 -24 370 -24 c 0,9,10
 228 -24 228 -24 132 60 c 128,-1,11
 36 144 36 144 36 284 c 0,12,13
 36 470 36 470 260 586 c 2,14,-1
 310 612 l 1,15,-1
 248 730 l 1,16,-1
 232 778 l 1,17,-1
 226 828 l 1,18,19
 226 938 226 938 324 1010 c 0,20,21
 414 1076 414 1076 528 1076 c 0,22,23
 604 1076 604 1076 664 1029 c 128,-1,24
 724 982 724 982 724 908 c 0,25,26
 724 806 724 806 626 746 c 2,27,-1
 552 700 l 1,28,-1
 452 644 l 1,29,-1
 568 472 l 1,30,-1
 748 228 l 1,31,32
 812 312 812 312 812 416 c 256,33,34
 812 520 812 520 716 516 c 2,35,-1
 676 514 l 1,36,-1
 688 552 l 1,37,-1
 1006 552 l 1,38,-1
 1006 514 l 1,39,-1
 968 514 l 2,40,41
 916 514 916 514 892 486 c 0,42,43
 878 470 878 470 862 408 c 2,44,-1
 848 352 l 2,45,46
 840 322 840 322 828 300 c 0,47,48
 814 262 814 262 772 200 c 1,49,-1
 862 98 l 1,50,-1
 888 72 l 1,51,-1
 934 44 l 2,52,53
 950 32 950 32 980 32 c 2,54,-1
 1006 32 l 1,55,-1
 1006 -4 l 1,0,-1
590 890 m 0,56,57
 590 950 590 950 558 992 c 128,-1,58
 526 1034 526 1034 468 1034 c 0,59,60
 414 1034 414 1034 376 996 c 128,-1,61
 338 958 338 958 338 904 c 0,62,63
 338 874 338 874 342 858 c 2,64,-1
 360 806 l 2,65,66
 378 756 378 756 434 672 c 1,67,68
 500 712 500 712 530 744 c 0,69,70
 590 808 590 808 590 890 c 0,56,57
652 124 m 1,71,-1
 484 348 l 1,72,-1
 422 440 l 1,73,-1
 330 582 l 1,74,75
 178 470 178 470 178 326 c 0,76,77
 178 210 178 210 264 132 c 128,-1,78
 350 54 350 54 468 54 c 0,79,80
 522 54 522 54 580 78 c 0,81,82
 604 88 604 88 610 94 c 2,83,-1
 652 124 l 1,71,-1
EndSplineSet
EndChar

StartChar: quotesingle
Encoding: 39 39 10
Width: 428
GlyphClass: 2
Flags: W
LayerCount: 2
Fore
SplineSet
262 784 m 1,0,-1
 292 1074 l 2,1,2
 300 1144 300 1144 324 1264 c 1,3,4
 342 1322 342 1322 408 1346 c 0,5,6
 430 1354 430 1354 446 1354 c 0,7,8
 514 1354 514 1354 522 1286 c 0,9,10
 522 1256 522 1256 512 1236 c 1,11,12
 504 1208 504 1208 440 1072 c 2,13,-1
 306 784 l 1,14,-1
 262 784 l 1,0,-1
EndSplineSet
EndChar

StartChar: parenleft
Encoding: 40 40 11
Width: 1309
GlyphClass: 2
Flags: W
LayerCount: 2
Fore
SplineSet
1084 -586 m 1,0,1
 1084 -566 1084 -566 1069.5 -551.5 c 128,-1,2
 1055 -537 1055 -537 1035 -537 c 0,3,4
 1014 -537 1014 -537 989.5 -542 c 128,-1,5
 965 -547 965 -547 937 -557 c 0,6,7
 898 -570 898 -570 858 -578 c 128,-1,8
 818 -586 818 -586 781 -586 c 0,9,10
 518 -586 518 -586 332 -328 c 128,-1,11
 146 -70 146 -70 146 293 c 2,12,-1
 146 527 l 2,13,14
 146 875 146 875 332 1121 c 128,-1,15
 518 1367 518 1367 781 1367 c 0,16,17
 820 1367 820 1367 867 1357.5 c 128,-1,18
 914 1348 914 1348 967 1328 c 0,19,20
 994 1318 994 1318 1013.5 1313.5 c 128,-1,21
 1033 1309 1033 1309 1045 1309 c 0,22,23
 1059 1309 1059 1309 1074.5 1324.5 c 128,-1,24
 1090 1340 1090 1340 1104 1367 c 1,25,-1
 1162 1338 l 1,26,27
 1143 1303 1143 1303 1120.5 1280.5 c 128,-1,28
 1098 1258 1098 1258 1074 1250 c 1,29,30
 1084 1238 1084 1238 1089 1223.5 c 128,-1,31
 1094 1209 1094 1209 1094 1191 c 0,32,33
 1094 1170 1094 1170 1089 1152.5 c 128,-1,34
 1084 1135 1084 1135 1074 1123 c 1,35,-1
 1025 1143 l 1,36,37
 1029 1156 1029 1156 1032 1168 c 128,-1,38
 1035 1180 1035 1180 1035 1191 c 0,39,40
 1035 1232 1035 1232 961 1260.5 c 128,-1,41
 887 1289 887 1289 781 1289 c 0,42,43
 551 1289 551 1289 388 1066.5 c 128,-1,44
 225 844 225 844 225 527 c 2,45,-1
 225 293 l 2,46,47
 225 -39 225 -39 388 -273.5 c 128,-1,48
 551 -508 551 -508 781 -508 c 0,49,50
 883 -508 883 -508 954 -476.5 c 128,-1,51
 1025 -445 1025 -445 1025 -400 c 0,52,53
 1025 -396 1025 -396 1021.5 -386.5 c 128,-1,54
 1018 -377 1018 -377 1016 -371 c 1,55,-1
 1074 -352 l 1,56,57
 1084 -363 1084 -363 1089 -376 c 128,-1,58
 1094 -389 1094 -389 1094 -400 c 0,59,60
 1094 -422 1094 -422 1086 -441.5 c 128,-1,61
 1078 -461 1078 -461 1064 -479 c 1,62,63
 1100 -486 1100 -486 1123 -510.5 c 128,-1,64
 1146 -535 1146 -535 1152 -566 c 1,65,-1
 1084 -586 l 1,0,1
EndSplineSet
EndChar

StartChar: parenright
Encoding: 41 41 12
Width: 1309
GlyphClass: 2
Flags: W
LayerCount: 2
Fore
SplineSet
225 -586 m 1,0,-1
 156 -566 l 1,1,2
 170 -531 170 -531 193.5 -507.5 c 128,-1,3
 217 -484 217 -484 244 -479 c 1,4,5
 234 -467 234 -467 229.5 -447.5 c 128,-1,6
 225 -428 225 -428 225 -400 c 0,7,8
 225 -389 225 -389 227.5 -377 c 128,-1,9
 230 -365 230 -365 234 -352 c 1,10,-1
 293 -371 l 1,11,12
 291 -377 291 -377 287 -386.5 c 128,-1,13
 283 -396 283 -396 283 -400 c 0,14,15
 283 -445 283 -445 363 -476.5 c 128,-1,16
 443 -508 443 -508 557 -508 c 0,17,18
 775 -508 775 -508 929.5 -273.5 c 128,-1,19
 1084 -39 1084 -39 1084 293 c 2,20,-1
 1084 527 l 2,21,22
 1084 844 1084 844 924 1066.5 c 128,-1,23
 764 1289 764 1289 537 1289 c 0,24,25
 428 1289 428 1289 350.5 1252 c 128,-1,26
 273 1215 273 1215 273 1162 c 0,27,28
 273 1158 273 1158 276 1153 c 128,-1,29
 279 1148 279 1148 283 1143 c 1,30,-1
 234 1123 l 1,31,32
 225 1135 225 1135 220 1149.5 c 128,-1,33
 215 1164 215 1164 215 1182 c 0,34,35
 215 1207 215 1207 220 1224.5 c 128,-1,36
 225 1242 225 1242 234 1250 c 1,37,38
 209 1250 209 1250 184.5 1274.5 c 128,-1,39
 160 1299 160 1299 146 1338 c 1,40,-1
 205 1367 l 1,41,42
 213 1342 213 1342 228.5 1325.5 c 128,-1,43
 244 1309 244 1309 264 1309 c 0,44,45
 275 1309 275 1309 294.5 1313.5 c 128,-1,46
 314 1318 314 1318 342 1328 c 0,47,48
 395 1348 395 1348 444.5 1357.5 c 128,-1,49
 494 1367 494 1367 537 1367 c 0,50,51
 797 1367 797 1367 979.5 1121 c 128,-1,52
 1162 875 1162 875 1162 527 c 2,53,-1
 1162 293 l 2,54,55
 1162 -70 1162 -70 984.5 -328 c 128,-1,56
 807 -586 807 -586 557 -586 c 0,57,58
 504 -586 504 -586 457 -578 c 128,-1,59
 410 -570 410 -570 371 -557 c 0,60,61
 344 -547 344 -547 319.5 -542 c 128,-1,62
 295 -537 295 -537 273 -537 c 0,63,64
 260 -537 260 -537 246 -550.5 c 128,-1,65
 232 -564 232 -564 225 -586 c 1,0,-1
EndSplineSet
EndChar

StartChar: asterisk
Encoding: 42 42 13
Width: 1064
GlyphClass: 2
Flags: W
LayerCount: 2
Fore
SplineSet
437 723 m 256,0,1
 437 760 437 760 464.5 787 c 128,-1,2
 492 814 492 814 531 814 c 0,3,4
 568 814 568 814 598.5 785 c 128,-1,5
 629 756 629 756 629 723 c 0,6,7
 629 687 629 687 605.5 622 c 128,-1,8
 582 557 582 557 531 441 c 1,9,10
 484 547 484 547 460.5 616.5 c 128,-1,11
 437 686 437 686 437 723 c 256,0,1
189 471 m 0,12,13
 158 488 158 488 149.5 525 c 128,-1,14
 141 562 141 562 160 598 c 0,15,16
 178 629 178 629 218 640.5 c 128,-1,17
 258 652 258 652 287 635 c 0,18,19
 318 617 318 617 366 562.5 c 128,-1,20
 414 508 414 508 482 414 c 1,21,22
 357 428 357 428 289 440.5 c 128,-1,23
 221 453 221 453 189 471 c 0,12,13
287 133 m 0,24,25
 254 113 254 113 217 124 c 128,-1,26
 180 135 180 135 160 170 c 0,27,28
 143 199 143 199 152.5 239 c 128,-1,29
 162 279 162 279 189 295 c 0,30,31
 229 318 229 318 303 333 c 128,-1,32
 377 348 377 348 482 355 c 1,33,34
 422 268 422 268 373 211 c 128,-1,35
 324 154 324 154 287 133 c 0,24,25
629 43 m 0,36,37
 629 6 629 6 600.5 -20.5 c 128,-1,38
 572 -47 572 -47 531 -47 c 0,39,40
 496 -47 496 -47 466.5 -18.5 c 128,-1,41
 437 10 437 10 437 43 c 0,42,43
 437 88 437 88 460.5 159 c 128,-1,44
 484 230 484 230 531 326 c 1,45,46
 580 227 580 227 604.5 155.5 c 128,-1,47
 629 84 629 84 629 43 c 0,36,37
875 295 m 0,48,49
 906 277 906 277 915 240 c 128,-1,50
 924 203 924 203 904 170 c 0,51,52
 887 139 887 139 847 127 c 128,-1,53
 807 115 807 115 777 133 c 0,54,55
 740 154 740 154 691.5 211 c 128,-1,56
 643 268 643 268 582 355 c 1,57,58
 687 348 687 348 761.5 333 c 128,-1,59
 836 318 836 318 875 295 c 0,48,49
777 635 m 0,60,61
 811 654 811 654 848 642.5 c 128,-1,62
 885 631 885 631 904 596 c 0,63,64
 922 566 922 566 912 526 c 128,-1,65
 902 486 902 486 875 471 c 0,66,67
 844 453 844 453 772.5 438.5 c 128,-1,68
 701 424 701 424 582 412 c 1,69,70
 652 508 652 508 699 562.5 c 128,-1,71
 746 617 746 617 777 635 c 0,60,61
EndSplineSet
EndChar

StartChar: plus
Encoding: 43 43 14
Width: 1074
GlyphClass: 2
Flags: W
LayerCount: 2
Fore
SplineSet
693 0 m 1,0,-1
 654 0 l 2,1,2
 615 0 615 0 584 15.5 c 128,-1,3
 553 31 553 31 537 59 c 1,4,5
 521 31 521 31 490 15.5 c 128,-1,6
 459 0 459 0 420 0 c 2,7,-1
 381 0 l 1,8,-1
 381 59 l 1,9,-1
 420 59 l 2,10,11
 453 59 453 59 475.5 81.5 c 128,-1,12
 498 104 498 104 498 137 c 2,13,-1
 498 352 l 1,14,-1
 303 352 l 2,15,16
 262 352 262 352 233.5 329.5 c 128,-1,17
 205 307 205 307 205 273 c 2,18,-1
 205 234 l 1,19,-1
 146 234 l 1,20,-1
 146 273 l 2,21,22
 146 312 146 312 162 343.5 c 128,-1,23
 178 375 178 375 205 391 c 1,24,25
 178 406 178 406 162 437.5 c 128,-1,26
 146 469 146 469 146 508 c 2,27,-1
 146 547 l 1,28,-1
 205 547 l 1,29,-1
 205 508 l 2,30,31
 205 475 205 475 233.5 452.5 c 128,-1,32
 262 430 262 430 303 430 c 2,33,-1
 498 430 l 1,34,-1
 498 645 l 2,35,36
 498 678 498 678 475.5 700.5 c 128,-1,37
 453 723 453 723 420 723 c 2,38,-1
 381 723 l 1,39,-1
 381 781 l 1,40,-1
 420 781 l 2,41,42
 459 781 459 781 490 765.5 c 128,-1,43
 521 750 521 750 537 723 c 1,44,45
 553 750 553 750 584 765.5 c 128,-1,46
 615 781 615 781 654 781 c 2,47,-1
 693 781 l 1,48,-1
 693 723 l 1,49,-1
 654 723 l 2,50,51
 621 723 621 723 598.5 700.5 c 128,-1,52
 576 678 576 678 576 645 c 2,53,-1
 576 430 l 1,54,-1
 771 430 l 2,55,56
 812 430 812 430 840.5 452.5 c 128,-1,57
 869 475 869 475 869 508 c 2,58,-1
 869 547 l 1,59,-1
 928 547 l 1,60,-1
 928 508 l 2,61,62
 928 465 928 465 912 432.5 c 128,-1,63
 896 400 896 400 869 391 c 1,64,65
 896 381 896 381 912 348.5 c 128,-1,66
 928 316 928 316 928 273 c 2,67,-1
 928 234 l 1,68,-1
 869 234 l 1,69,-1
 869 273 l 2,70,71
 869 307 869 307 840.5 329.5 c 128,-1,72
 812 352 812 352 771 352 c 2,73,-1
 576 352 l 1,74,-1
 576 137 l 2,75,76
 576 104 576 104 598.5 81.5 c 128,-1,77
 621 59 621 59 654 59 c 2,78,-1
 693 59 l 1,79,-1
 693 0 l 1,0,-1
EndSplineSet
EndChar

StartChar: comma
Encoding: 44 44 15
Width: 674
GlyphClass: 2
Flags: W
LayerCount: 2
Fore
SplineSet
244 -332 m 1,0,1
 230 -320 230 -320 222.5 -307.5 c 128,-1,2
 215 -295 215 -295 215 -283 c 0,3,4
 215 -270 215 -270 222.5 -257 c 128,-1,5
 230 -244 230 -244 244 -234 c 1,6,7
 215 -234 215 -234 188.5 -218.5 c 128,-1,8
 162 -203 162 -203 146 -176 c 1,9,-1
 195 -146 l 1,10,11
 205 -160 205 -160 216 -168 c 128,-1,12
 227 -176 227 -176 234 -176 c 0,13,14
 297 -176 297 -176 352.5 -125 c 128,-1,15
 408 -74 408 -74 439 10 c 1,16,17
 426 6 426 6 411 3 c 128,-1,18
 396 0 396 0 381 0 c 0,19,20
 320 0 320 0 277 40 c 128,-1,21
 234 80 234 80 234 137 c 0,22,23
 234 197 234 197 274 240 c 128,-1,24
 314 283 314 283 371 283 c 0,25,26
 436 283 436 283 481.5 240 c 128,-1,27
 527 197 527 197 527 137 c 0,28,29
 527 23 527 23 472.5 -73.5 c 128,-1,30
 418 -170 418 -170 322 -225 c 0,31,32
 299 -238 299 -238 286 -251 c 128,-1,33
 273 -264 273 -264 273 -273 c 0,34,35
 273 -281 273 -281 278 -291 c 128,-1,36
 283 -301 283 -301 293 -313 c 1,37,-1
 244 -332 l 1,0,1
EndSplineSet
EndChar

StartChar: hyphen
Encoding: 45 45 16
Width: 1074
GlyphClass: 2
Flags: W
LayerCount: 2
Fore
SplineSet
928 293 m 1,0,-1
 869 293 l 1,1,2
 869 326 869 326 846.5 348.5 c 128,-1,3
 824 371 824 371 791 371 c 2,4,-1
 283 371 l 2,5,6
 250 371 250 371 227.5 348.5 c 128,-1,7
 205 326 205 326 205 293 c 1,8,-1
 146 293 l 1,9,10
 146 332 146 332 162 363.5 c 128,-1,11
 178 395 178 395 205 410 c 1,12,13
 178 420 178 420 162 452 c 128,-1,14
 146 484 146 484 146 527 c 1,15,-1
 205 527 l 1,16,17
 205 494 205 494 227.5 471.5 c 128,-1,18
 250 449 250 449 283 449 c 2,19,-1
 791 449 l 2,20,21
 824 449 824 449 846.5 471.5 c 128,-1,22
 869 494 869 494 869 527 c 1,23,-1
 928 527 l 1,24,25
 928 488 928 488 912 457 c 128,-1,26
 896 426 896 426 869 410 c 1,27,28
 896 395 896 395 912 363.5 c 128,-1,29
 928 332 928 332 928 293 c 1,0,-1
EndSplineSet
EndChar

StartChar: period
Encoding: 46 46 17
Width: 576
GlyphClass: 2
Flags: W
LayerCount: 2
Fore
SplineSet
283 0 m 0,0,1
 227 0 227 0 186.5 43 c 128,-1,2
 146 86 146 86 146 146 c 0,3,4
 146 207 146 207 186.5 250 c 128,-1,5
 227 293 227 293 283 293 c 0,6,7
 344 293 344 293 387 250 c 128,-1,8
 430 207 430 207 430 146 c 0,9,10
 430 86 430 86 387 43 c 128,-1,11
 344 0 344 0 283 0 c 0,0,1
EndSplineSet
EndChar

StartChar: slash
Encoding: 47 47 18
Width: 1152
GlyphClass: 2
Flags: W
LayerCount: 2
Fore
SplineSet
410 -146 m 1,0,1
 361 -129 361 -129 332 -104.5 c 128,-1,2
 303 -80 303 -80 303 -59 c 2,3,-1
 303 -39 l 1,4,5
 295 -43 295 -43 282.5 -46 c 128,-1,6
 270 -49 270 -49 254 -49 c 0,7,8
 227 -49 227 -49 198.5 -33.5 c 128,-1,9
 170 -18 170 -18 146 10 c 1,10,-1
 186 59 l 1,11,12
 205 39 205 39 225.5 29.5 c 128,-1,13
 246 20 246 20 264 20 c 0,14,15
 273 20 273 20 287 33.5 c 128,-1,16
 301 47 301 47 322 78 c 2,17,-1
 732 703 l 2,18,19
 756 736 756 736 768.5 760.5 c 128,-1,20
 781 785 781 785 781 801 c 0,21,22
 781 824 781 824 759.5 847.5 c 128,-1,23
 738 871 738 871 703 889 c 1,24,-1
 742 937 l 1,25,26
 789 916 789 916 818.5 889.5 c 128,-1,27
 848 863 848 863 850 840 c 2,28,-1
 850 811 l 1,29,30
 867 820 867 820 879 825 c 128,-1,31
 891 830 891 830 898 830 c 0,32,33
 926 830 926 830 954 814.5 c 128,-1,34
 982 799 982 799 1006 771 c 1,35,-1
 967 723 l 1,36,37
 951 742 951 742 933.5 752 c 128,-1,38
 916 762 916 762 898 762 c 0,39,40
 885 762 885 762 866.5 746 c 128,-1,41
 848 730 848 730 830 703 c 2,42,-1
 400 59 l 2,43,44
 381 29 381 29 371 9.5 c 128,-1,45
 361 -10 361 -10 361 -20 c 0,46,47
 361 -41 361 -41 385.5 -62.5 c 128,-1,48
 410 -84 410 -84 449 -98 c 1,49,-1
 410 -146 l 1,0,1
EndSplineSet
EndChar

StartChar: zero
Encoding: 48 48 19
Width: 793
GlyphClass: 2
Flags: W
LayerCount: 2
Fore
SplineSet
388 -10 m 0,0,1
 211 -10 211 -10 105.5 113.5 c 128,-1,2
 0 237 0 237 0 441 c 0,3,4
 0 640 0 640 108.5 761 c 128,-1,5
 217 882 217 882 396 882 c 0,6,7
 577 882 577 882 685 761 c 128,-1,8
 793 640 793 640 793 441 c 0,9,10
 793 237 793 237 682 113.5 c 128,-1,11
 571 -10 571 -10 388 -10 c 0,0,1
388 62 m 0,12,13
 540 62 540 62 631.5 165 c 128,-1,14
 723 268 723 268 723 441 c 0,15,16
 723 601 723 601 630.5 705.5 c 128,-1,17
 538 810 538 810 396 810 c 0,18,19
 248 810 248 810 159 714.5 c 128,-1,20
 70 619 70 619 70 459 c 0,21,22
 70 377 70 377 134.5 320.5 c 128,-1,23
 199 264 199 264 291 264 c 0,24,25
 301 264 301 264 311.5 267 c 128,-1,26
 322 270 322 270 334 274 c 1,27,-1
 334 203 l 1,28,29
 322 199 322 199 311.5 196.5 c 128,-1,30
 301 194 301 194 291 194 c 0,31,32
 215 203 215 203 160 231 c 128,-1,33
 105 259 105 259 88 299 c 1,34,35
 118 194 118 194 201.5 128 c 128,-1,36
 285 62 285 62 388 62 c 0,12,13
EndSplineSet
EndChar

StartChar: one
Encoding: 49 49 20
Width: 793
GlyphClass: 2
Flags: W
LayerCount: 2
Fore
SplineSet
256 0 m 1,0,-1
 256 53 l 1,1,-1
 291 53 l 2,2,3
 320 53 320 53 340.5 73.5 c 128,-1,4
 361 94 361 94 361 123 c 2,5,-1
 361 758 l 2,6,7
 361 788 361 788 340.5 808 c 128,-1,8
 320 828 320 828 291 828 c 2,9,-1
 256 828 l 1,10,-1
 256 882 l 1,11,-1
 291 882 l 2,12,13
 328 882 328 882 356.5 867.5 c 128,-1,14
 385 853 385 853 396 828 c 1,15,16
 408 853 408 853 436.5 867.5 c 128,-1,17
 465 882 465 882 503 882 c 2,18,-1
 538 882 l 1,19,-1
 538 828 l 1,20,-1
 503 828 l 2,21,22
 472 828 472 828 452 808 c 128,-1,23
 432 788 432 788 432 758 c 2,24,-1
 432 123 l 2,25,26
 432 94 432 94 452 73.5 c 128,-1,27
 472 53 472 53 503 53 c 2,28,-1
 538 53 l 1,29,-1
 538 0 l 1,30,-1
 503 0 l 2,31,32
 467 0 467 0 438.5 14 c 128,-1,33
 410 28 410 28 396 53 c 1,34,35
 383 28 383 28 354.5 14 c 128,-1,36
 326 0 326 0 291 0 c 2,37,-1
 256 0 l 1,0,-1
EndSplineSet
EndChar

StartChar: two
Encoding: 50 50 21
Width: 793
GlyphClass: 2
Flags: W
LayerCount: 2
Fore
SplineSet
291 0 m 2,0,1
 203 0 203 0 141.5 39 c 128,-1,2
 80 78 80 78 80 132 c 0,3,4
 80 190 80 190 144.5 240.5 c 128,-1,5
 209 291 209 291 309 309 c 0,6,7
 453 334 453 334 548 419 c 128,-1,8
 643 504 643 504 643 608 c 0,9,10
 643 699 643 699 571 754.5 c 128,-1,11
 499 810 499 810 379 810 c 0,12,13
 275 810 275 810 212.5 770.5 c 128,-1,14
 150 731 150 731 150 660 c 0,15,16
 150 606 150 606 183.5 567.5 c 128,-1,17
 217 529 217 529 264 529 c 0,18,19
 305 529 305 529 333 549 c 128,-1,20
 361 569 361 569 361 599 c 0,21,22
 361 619 361 619 348.5 634 c 128,-1,23
 336 649 336 649 317 653 c 1,24,-1
 326 705 l 1,25,26
 352 705 352 705 374 690.5 c 128,-1,27
 396 676 396 676 406 653 c 1,28,29
 414 676 414 676 440.5 690.5 c 128,-1,30
 467 705 467 705 503 705 c 1,31,-1
 494 653 l 1,32,33
 467 653 467 653 447 637.5 c 128,-1,34
 427 622 427 622 424 599 c 0,35,36
 412 538 412 538 367 498.5 c 128,-1,37
 322 459 322 459 264 459 c 0,38,39
 189 459 189 459 134.5 518 c 128,-1,40
 80 577 80 577 80 660 c 0,41,42
 80 762 80 762 161.5 822 c 128,-1,43
 243 882 243 882 379 882 c 0,44,45
 531 882 531 882 622 806.5 c 128,-1,46
 713 731 713 731 713 608 c 0,47,48
 713 478 713 478 601.5 373 c 128,-1,49
 490 268 490 268 317 238 c 0,50,51
 244 225 244 225 197 195.5 c 128,-1,52
 150 166 150 166 150 132 c 0,53,54
 150 107 150 107 191.5 88.5 c 128,-1,55
 233 70 233 70 291 70 c 2,56,-1
 590 70 l 2,57,58
 620 70 620 70 640 90.5 c 128,-1,59
 660 111 660 111 660 141 c 1,60,-1
 713 141 l 1,61,62
 713 105 713 105 699.5 77 c 128,-1,63
 686 49 686 49 660 35 c 1,64,65
 686 21 686 21 699.5 -7 c 128,-1,66
 713 -35 713 -35 713 -70 c 1,67,-1
 660 -70 l 1,68,69
 660 -41 660 -41 640 -20.5 c 128,-1,70
 620 0 620 0 590 0 c 2,71,-1
 291 0 l 2,0,1
EndSplineSet
EndChar

StartChar: three
Encoding: 51 51 22
Width: 793
GlyphClass: 2
Flags: W
LayerCount: 2
Fore
SplineSet
379 -10 m 0,0,1
 243 -10 243 -10 161.5 43.5 c 128,-1,2
 80 97 80 97 80 185 c 0,3,4
 80 240 80 240 131.5 278.5 c 128,-1,5
 183 317 183 317 256 317 c 0,6,7
 307 317 307 317 345 295.5 c 128,-1,8
 383 274 383 274 388 238 c 0,9,10
 393 211 393 211 412.5 193.5 c 128,-1,11
 432 176 432 176 459 176 c 1,12,-1
 459 123 l 1,13,14
 428 123 428 123 401.5 137.5 c 128,-1,15
 375 152 375 152 361 176 c 1,16,17
 348 152 348 152 326.5 137.5 c 128,-1,18
 305 123 305 123 281 123 c 1,19,-1
 281 176 l 1,20,21
 301 180 301 180 313.5 192.5 c 128,-1,22
 326 205 326 205 326 220 c 0,23,24
 326 238 326 238 305.5 251 c 128,-1,25
 285 264 285 264 256 264 c 0,26,27
 211 264 211 264 180.5 241 c 128,-1,28
 150 218 150 218 150 185 c 0,29,30
 150 129 150 129 212.5 95.5 c 128,-1,31
 275 62 275 62 379 62 c 0,32,33
 499 62 499 62 571 112 c 128,-1,34
 643 162 643 162 643 246 c 0,35,36
 643 313 643 313 591.5 359.5 c 128,-1,37
 540 406 540 406 467 406 c 2,38,-1
 291 406 l 2,39,40
 261 406 261 406 240.5 389.5 c 128,-1,41
 220 373 220 373 220 352 c 1,42,-1
 168 352 l 1,43,44
 168 379 168 379 182 403 c 128,-1,45
 196 427 196 427 220 441 c 1,46,47
 196 455 196 455 182 479 c 128,-1,48
 168 503 168 503 168 529 c 1,49,-1
 220 529 l 1,50,51
 220 507 220 507 240.5 491.5 c 128,-1,52
 261 476 261 476 291 476 c 2,53,-1
 467 476 l 2,54,55
 540 476 540 476 591.5 520 c 128,-1,56
 643 564 643 564 643 625 c 0,57,58
 643 713 643 713 571 766.5 c 128,-1,59
 499 820 499 820 379 820 c 0,60,61
 275 820 275 820 212.5 786 c 128,-1,62
 150 752 150 752 150 695 c 0,63,64
 150 666 150 666 178.5 645.5 c 128,-1,65
 207 625 207 625 246 625 c 0,66,67
 280 625 280 625 303 639 c 128,-1,68
 326 653 326 653 326 670 c 0,69,70
 326 682 326 682 313.5 691.5 c 128,-1,71
 301 701 301 701 281 705 c 1,72,-1
 281 758 l 1,73,74
 307 758 307 758 328.5 746 c 128,-1,75
 350 734 350 734 361 713 c 1,76,77
 373 734 373 734 399 746 c 128,-1,78
 425 758 425 758 459 758 c 1,79,-1
 459 705 l 1,80,81
 432 705 432 705 411.5 692.5 c 128,-1,82
 391 680 391 680 388 660 c 0,83,84
 381 619 381 619 340 591.5 c 128,-1,85
 299 564 299 564 246 564 c 0,86,87
 178 564 178 564 129 602.5 c 128,-1,88
 80 641 80 641 80 695 c 0,89,90
 80 785 80 785 161.5 837.5 c 128,-1,91
 243 890 243 890 379 890 c 0,92,93
 531 890 531 890 622 818 c 128,-1,94
 713 746 713 746 713 625 c 0,95,96
 713 571 713 571 683 520.5 c 128,-1,97
 653 470 653 470 599 441 c 1,98,99
 651 422 651 422 682 368.5 c 128,-1,100
 713 315 713 315 713 246 c 0,101,102
 713 131 713 131 622 60.5 c 128,-1,103
 531 -10 531 -10 379 -10 c 0,0,1
EndSplineSet
EndChar

StartChar: four
Encoding: 52 52 23
Width: 793
GlyphClass: 2
Flags: W
LayerCount: 2
Fore
SplineSet
388 0 m 1,0,-1
 388 53 l 1,1,-1
 424 53 l 2,2,3
 453 53 453 53 473.5 73.5 c 128,-1,4
 494 94 494 94 494 123 c 2,5,-1
 494 229 l 1,6,-1
 35 229 l 1,7,-1
 35 299 l 1,8,-1
 484 740 l 2,9,10
 538 791 538 791 564 825.5 c 128,-1,11
 590 860 590 860 590 882 c 2,12,-1
 590 899 l 1,13,-1
 653 899 l 1,14,-1
 653 882 l 2,15,16
 653 851 653 851 638 824 c 128,-1,17
 623 797 623 797 599 775 c 1,18,19
 623 767 623 767 638 738 c 128,-1,20
 653 709 653 709 653 670 c 1,21,-1
 599 670 l 1,22,23
 599 692 599 692 589 707.5 c 128,-1,24
 579 723 579 723 564 723 c 0,25,26
 551 723 551 723 533.5 708 c 128,-1,27
 516 693 516 693 484 660 c 2,28,-1
 123 299 l 1,29,-1
 494 299 l 1,30,-1
 494 582 l 1,31,-1
 564 582 l 1,32,-1
 564 299 l 1,33,-1
 617 299 l 2,34,35
 655 299 655 299 680 319.5 c 128,-1,36
 705 340 705 340 705 370 c 1,37,-1
 758 370 l 1,38,39
 758 333 758 333 744.5 305 c 128,-1,40
 731 277 731 277 705 264 c 1,41,42
 731 256 731 256 744.5 227 c 128,-1,43
 758 198 758 198 758 159 c 1,44,-1
 705 159 l 1,45,46
 705 189 705 189 680 209 c 128,-1,47
 655 229 655 229 617 229 c 2,48,-1
 564 229 l 1,49,-1
 564 123 l 2,50,51
 564 94 564 94 584 73.5 c 128,-1,52
 604 53 604 53 635 53 c 2,53,-1
 670 53 l 1,54,-1
 670 0 l 1,55,-1
 635 0 l 2,56,57
 599 0 599 0 571 14 c 128,-1,58
 543 28 543 28 529 53 c 1,59,60
 514 28 514 28 486.5 14 c 128,-1,61
 459 0 459 0 424 0 c 2,62,-1
 388 0 l 1,0,-1
EndSplineSet
EndChar

StartChar: five
Encoding: 53 53 24
Width: 793
GlyphClass: 2
Flags: W
LayerCount: 2
Fore
SplineSet
379 -10 m 0,0,1
 243 -10 243 -10 161.5 50.5 c 128,-1,2
 80 111 80 111 80 211 c 0,3,4
 80 277 80 277 129 323.5 c 128,-1,5
 178 370 178 370 246 370 c 0,6,7
 299 370 299 370 340 342.5 c 128,-1,8
 381 315 381 315 388 274 c 0,9,10
 393 246 393 246 412.5 228.5 c 128,-1,11
 432 211 432 211 459 211 c 1,12,-1
 459 159 l 1,13,14
 428 159 428 159 401.5 173 c 128,-1,15
 375 187 375 187 361 211 c 1,16,17
 348 187 348 187 326.5 173 c 128,-1,18
 305 159 305 159 281 159 c 1,19,-1
 281 211 l 1,20,21
 301 215 301 215 313.5 227.5 c 128,-1,22
 326 240 326 240 326 256 c 0,23,24
 326 277 326 277 303 293 c 128,-1,25
 280 309 280 309 246 309 c 0,26,27
 207 309 207 309 178.5 280.5 c 128,-1,28
 150 252 150 252 150 211 c 0,29,30
 150 142 150 142 212.5 102 c 128,-1,31
 275 62 275 62 379 62 c 0,32,33
 499 62 499 62 571 134.5 c 128,-1,34
 643 207 643 207 643 326 c 0,35,36
 643 414 643 414 578.5 476 c 128,-1,37
 514 538 514 538 424 538 c 2,38,-1
 115 538 l 1,39,-1
 115 882 l 1,40,-1
 538 882 l 2,41,42
 571 882 571 882 594 901.5 c 128,-1,43
 617 921 617 921 617 952 c 1,44,-1
 678 952 l 1,45,46
 678 917 678 917 659 887.5 c 128,-1,47
 640 858 640 858 608 845 c 1,48,49
 640 834 640 834 659 804.5 c 128,-1,50
 678 775 678 775 678 740 c 1,51,-1
 617 740 l 1,52,53
 617 770 617 770 594 790 c 128,-1,54
 571 810 571 810 538 810 c 2,55,-1
 185 810 l 1,56,-1
 185 608 l 1,57,-1
 424 608 l 2,58,59
 543 608 543 608 628 525 c 128,-1,60
 713 442 713 442 713 326 c 0,61,62
 713 174 713 174 622 82 c 128,-1,63
 531 -10 531 -10 379 -10 c 0,0,1
EndSplineSet
EndChar

StartChar: six
Encoding: 54 54 25
Width: 793
GlyphClass: 2
Flags: W
LayerCount: 2
Fore
SplineSet
441 0 m 0,0,1
 277 0 277 0 161 134 c 128,-1,2
 45 268 45 268 45 459 c 0,3,4
 45 651 45 651 147.5 766.5 c 128,-1,5
 250 882 250 882 424 882 c 0,6,7
 540 882 540 882 609 835.5 c 128,-1,8
 678 789 678 789 678 713 c 0,9,10
 678 690 678 690 698.5 671.5 c 128,-1,11
 719 653 719 653 749 653 c 1,12,-1
 749 599 l 1,13,14
 713 599 713 599 685.5 613 c 128,-1,15
 658 627 658 627 643 653 c 1,16,17
 629 627 629 627 601 613 c 128,-1,18
 573 599 573 599 538 599 c 1,19,-1
 538 653 l 1,20,21
 568 653 568 653 588 671.5 c 128,-1,22
 608 690 608 690 608 713 c 0,23,24
 608 758 608 758 557.5 784 c 128,-1,25
 507 810 507 810 424 810 c 0,26,27
 283 810 283 810 199 714.5 c 128,-1,28
 115 619 115 619 115 459 c 0,29,30
 115 365 115 365 144.5 289 c 128,-1,31
 174 213 174 213 229 168 c 1,32,33
 250 178 250 178 266.5 220 c 128,-1,34
 283 262 283 262 291 326 c 0,35,36
 299 412 299 412 363 470.5 c 128,-1,37
 427 529 427 529 511 529 c 0,38,39
 610 529 610 529 679.5 454 c 128,-1,40
 749 379 749 379 749 274 c 0,41,42
 749 161 749 161 658.5 80.5 c 128,-1,43
 568 0 568 0 441 0 c 0,0,1
441 70 m 0,44,45
 540 70 540 70 609 129.5 c 128,-1,46
 678 189 678 189 678 274 c 0,47,48
 678 350 678 350 629 404.5 c 128,-1,49
 580 459 580 459 511 459 c 0,50,51
 449 459 449 459 405 420 c 128,-1,52
 361 381 361 381 361 326 c 0,53,54
 361 281 361 281 386.5 250.5 c 128,-1,55
 412 220 412 220 449 220 c 0,56,57
 464 220 464 220 477 222.5 c 128,-1,58
 490 225 490 225 503 229 c 1,59,-1
 503 168 l 1,60,61
 490 164 490 164 477 161.5 c 128,-1,62
 464 159 464 159 449 159 c 0,63,64
 420 159 420 159 391.5 175.5 c 128,-1,65
 363 192 363 192 344 220 c 1,66,67
 334 187 334 187 315.5 161 c 128,-1,68
 297 135 297 135 274 123 c 1,69,70
 303 97 303 97 346 83.5 c 128,-1,71
 389 70 389 70 441 70 c 0,44,45
EndSplineSet
EndChar

StartChar: seven
Encoding: 55 55 26
Width: 793
GlyphClass: 2
Flags: W
LayerCount: 2
Fore
SplineSet
141 0 m 1,0,-1
 141 53 l 1,1,-1
 176 53 l 2,2,3
 189 53 189 53 206.5 73.5 c 128,-1,4
 224 94 224 94 246 132 c 2,5,-1
 555 635 l 2,6,7
 577 670 577 670 606 715 c 128,-1,8
 635 760 635 760 635 775 c 0,9,10
 635 789 635 789 621.5 799.5 c 128,-1,11
 608 810 608 810 590 810 c 2,12,-1
 211 810 l 2,13,14
 181 810 181 810 161 790 c 128,-1,15
 141 770 141 770 141 740 c 1,16,-1
 88 740 l 1,17,18
 88 775 88 775 102.5 803.5 c 128,-1,19
 117 832 117 832 141 845 c 1,20,21
 117 855 117 855 102.5 884 c 128,-1,22
 88 913 88 913 88 952 c 1,23,-1
 141 952 l 1,24,25
 141 921 141 921 161 901.5 c 128,-1,26
 181 882 181 882 211 882 c 2,27,-1
 590 882 l 2,28,29
 638 882 638 882 671.5 851 c 128,-1,30
 705 820 705 820 705 775 c 0,31,32
 705 754 705 754 670 696 c 128,-1,33
 635 638 635 638 617 608 c 2,34,-1
 370 203 l 2,35,36
 363 190 363 190 340 151.5 c 128,-1,37
 317 113 317 113 317 97 c 0,38,39
 317 80 317 80 337 66.5 c 128,-1,40
 357 53 357 53 388 53 c 2,41,-1
 424 53 l 1,42,-1
 424 0 l 1,43,-1
 388 0 l 2,44,45
 350 0 350 0 318.5 14 c 128,-1,46
 287 28 287 28 274 53 c 1,47,48
 252 28 252 28 226.5 14 c 128,-1,49
 201 0 201 0 176 0 c 2,50,-1
 141 0 l 1,0,-1
EndSplineSet
EndChar

StartChar: eight
Encoding: 56 56 27
Width: 791
GlyphClass: 2
Flags: W
LayerCount: 2
Fore
SplineSet
400 70 m 0,0,1
 496 70 496 70 562.5 129.5 c 128,-1,2
 629 189 629 189 629 274 c 0,3,4
 629 350 629 350 559.5 404.5 c 128,-1,5
 490 459 490 459 391 459 c 0,6,7
 315 459 315 459 254.5 420 c 128,-1,8
 194 381 194 381 171 317 c 1,9,10
 171 280 171 280 207 254.5 c 128,-1,11
 243 229 243 229 294 229 c 0,12,13
 305 229 305 229 315.5 232 c 128,-1,14
 326 235 326 235 338 238 c 1,15,-1
 338 176 l 1,16,17
 332 172 332 172 320.5 170 c 128,-1,18
 309 168 309 168 294 168 c 0,19,20
 252 168 252 168 218.5 182 c 128,-1,21
 185 196 185 196 171 220 c 1,22,23
 183 155 183 155 248 112.5 c 128,-1,24
 313 70 313 70 400 70 c 0,0,1
400 0 m 0,25,26
 274 0 274 0 183 80.5 c 128,-1,27
 92 161 92 161 92 274 c 0,28,29
 92 348 92 348 135 407.5 c 128,-1,30
 178 467 178 467 250 494 c 1,31,32
 194 513 194 513 160.5 564.5 c 128,-1,33
 127 616 127 616 127 678 c 0,34,35
 127 764 127 764 204 823 c 128,-1,36
 281 882 281 882 391 882 c 0,37,38
 507 882 507 882 590.5 823 c 128,-1,39
 674 764 674 764 674 678 c 0,40,41
 674 616 674 616 635 563.5 c 128,-1,42
 596 511 596 511 532 494 c 1,43,44
 608 465 608 465 653.5 405.5 c 128,-1,45
 699 346 699 346 699 274 c 0,46,47
 699 161 699 161 611 80.5 c 128,-1,48
 523 0 523 0 400 0 c 0,25,26
400 529 m 0,49,50
 484 529 484 529 543.5 573 c 128,-1,51
 603 617 603 617 603 678 c 0,52,53
 603 732 603 732 541 771 c 128,-1,54
 479 810 479 810 391 810 c 0,55,56
 324 810 324 810 273 784 c 128,-1,57
 222 758 222 758 207 713 c 1,58,59
 207 693 207 693 226.5 676.5 c 128,-1,60
 246 660 246 660 277 660 c 0,61,62
 283 660 283 660 298.5 665 c 128,-1,63
 314 670 314 670 338 678 c 1,64,-1
 338 625 l 1,65,66
 322 617 322 617 311.5 612.5 c 128,-1,67
 301 608 301 608 294 608 c 0,68,69
 266 608 266 608 243 616.5 c 128,-1,70
 220 625 220 625 207 643 c 1,71,72
 215 594 215 594 269.5 561.5 c 128,-1,73
 324 529 324 529 400 529 c 0,49,50
EndSplineSet
EndChar

StartChar: nine
Encoding: 57 57 28
Width: 793
GlyphClass: 2
Flags: W
LayerCount: 2
Fore
SplineSet
370 0 m 0,0,1
 270 0 270 0 195 50 c 128,-1,2
 120 100 120 100 105 176 c 1,3,4
 105 198 105 198 86.5 213.5 c 128,-1,5
 68 229 68 229 45 229 c 1,6,-1
 45 281 l 1,7,8
 80 281 80 281 107.5 267.5 c 128,-1,9
 135 254 135 254 150 229 c 1,10,11
 164 254 164 254 192 267.5 c 128,-1,12
 220 281 220 281 256 281 c 1,13,-1
 256 229 l 1,14,15
 225 229 225 229 205 213.5 c 128,-1,16
 185 198 185 198 185 176 c 0,17,18
 185 129 185 129 235 99.5 c 128,-1,19
 285 70 285 70 370 70 c 0,20,21
 509 70 509 70 593.5 172 c 128,-1,22
 678 274 678 274 678 441 c 0,23,24
 678 525 678 525 648.5 596.5 c 128,-1,25
 619 668 619 668 564 713 c 1,26,27
 536 699 536 699 519.5 656.5 c 128,-1,28
 503 614 503 614 503 555 c 0,29,30
 503 470 503 470 438 411 c 128,-1,31
 373 352 373 352 281 352 c 0,32,33
 183 352 183 352 114 424.5 c 128,-1,34
 45 497 45 497 45 599 c 0,35,36
 45 715 45 715 135 798.5 c 128,-1,37
 225 882 225 882 352 882 c 0,38,39
 516 882 516 882 632.5 752.5 c 128,-1,40
 749 623 749 623 749 441 c 0,41,42
 749 242 749 242 646 121 c 128,-1,43
 543 0 543 0 370 0 c 0,0,1
281 424 m 0,44,45
 344 424 344 424 388 462.5 c 128,-1,46
 432 501 432 501 432 555 c 0,47,48
 432 599 432 599 406.5 629.5 c 128,-1,49
 381 660 381 660 344 660 c 0,50,51
 330 660 330 660 316.5 658 c 128,-1,52
 303 656 303 656 291 653 c 1,53,-1
 291 713 l 1,54,55
 303 717 303 717 316.5 720 c 128,-1,56
 330 723 330 723 344 723 c 0,57,58
 375 723 375 723 404 706.5 c 128,-1,59
 433 690 433 690 449 660 c 1,60,61
 460 695 460 695 478.5 721.5 c 128,-1,62
 497 748 497 748 520 758 c 1,63,64
 499 783 499 783 454.5 796.5 c 128,-1,65
 410 810 410 810 352 810 c 0,66,67
 254 810 254 810 184.5 749 c 128,-1,68
 115 688 115 688 115 599 c 0,69,70
 115 527 115 527 164 475.5 c 128,-1,71
 213 424 213 424 281 424 c 0,44,45
EndSplineSet
EndChar

StartChar: colon
Encoding: 58 58 29
Width: 576
GlyphClass: 2
Flags: W
LayerCount: 2
Fore
SplineSet
283 0 m 0,0,1
 227 0 227 0 186.5 46 c 128,-1,2
 146 92 146 92 146 156 c 0,3,4
 146 213 146 213 186.5 253 c 128,-1,5
 227 293 227 293 283 293 c 0,6,7
 344 293 344 293 387 253 c 128,-1,8
 430 213 430 213 430 156 c 0,9,10
 430 92 430 92 387 46 c 128,-1,11
 344 0 344 0 283 0 c 0,0,1
283 488 m 0,12,13
 227 488 227 488 186.5 534 c 128,-1,14
 146 580 146 580 146 645 c 0,15,16
 146 701 146 701 186.5 741 c 128,-1,17
 227 781 227 781 283 781 c 0,18,19
 344 781 344 781 387 741 c 128,-1,20
 430 701 430 701 430 645 c 0,21,22
 430 580 430 580 387 534 c 128,-1,23
 344 488 344 488 283 488 c 0,12,13
EndSplineSet
EndChar

StartChar: semicolon
Encoding: 59 59 30
Width: 820
GlyphClass: 2
Flags: W
LayerCount: 2
Fore
SplineSet
391 -332 m 1,0,1
 377 -314 377 -314 369 -302.5 c 128,-1,2
 361 -291 361 -291 361 -283 c 0,3,4
 361 -273 361 -273 369 -260.5 c 128,-1,5
 377 -248 377 -248 391 -234 c 1,6,7
 363 -234 363 -234 337 -218.5 c 128,-1,8
 311 -203 311 -203 293 -176 c 1,9,-1
 342 -146 l 1,10,11
 348 -152 348 -152 361.5 -164 c 128,-1,12
 375 -176 375 -176 381 -176 c 0,13,14
 443 -176 443 -176 499 -125 c 128,-1,15
 555 -74 555 -74 586 10 c 1,16,17
 572 6 572 6 557.5 3 c 128,-1,18
 543 0 543 0 527 0 c 0,19,20
 467 0 467 0 424 40 c 128,-1,21
 381 80 381 80 381 137 c 0,22,23
 381 197 381 197 421 240 c 128,-1,24
 461 283 461 283 518 283 c 0,25,26
 582 283 582 283 628 240 c 128,-1,27
 674 197 674 197 674 137 c 0,28,29
 674 23 674 23 619 -73.5 c 128,-1,30
 564 -170 564 -170 469 -225 c 0,31,32
 445 -238 445 -238 432.5 -251 c 128,-1,33
 420 -264 420 -264 420 -273 c 0,34,35
 420 -281 420 -281 425 -291 c 128,-1,36
 430 -301 430 -301 439 -313 c 1,37,-1
 391 -332 l 1,0,1
527 488 m 0,38,39
 471 488 471 488 431 534 c 128,-1,40
 391 580 391 580 391 645 c 0,41,42
 391 701 391 701 431 741 c 128,-1,43
 471 781 471 781 527 781 c 0,44,45
 588 781 588 781 631 741 c 128,-1,46
 674 701 674 701 674 645 c 0,47,48
 674 580 674 580 631 534 c 128,-1,49
 588 488 588 488 527 488 c 0,38,39
EndSplineSet
EndChar

StartChar: less
Encoding: 60 60 31
Width: 1068
GlyphClass: 2
Flags: W
LayerCount: 2
Fore
SplineSet
732 908 m 1,0,-1
 806 836 l 1,1,-1
 486 516 l 1,2,-1
 804 200 l 1,3,-1
 732 128 l 1,4,-1
 342 516 l 1,5,-1
 732 908 l 1,0,-1
EndSplineSet
EndChar

StartChar: equal
Encoding: 61 61 32
Width: 1074
GlyphClass: 2
Flags: W
LayerCount: 2
Fore
SplineSet
928 469 m 1,0,-1
 869 469 l 1,1,2
 869 502 869 502 846.5 524.5 c 128,-1,3
 824 547 824 547 791 547 c 2,4,-1
 283 547 l 2,5,6
 250 547 250 547 227.5 524.5 c 128,-1,7
 205 502 205 502 205 469 c 1,8,-1
 146 469 l 1,9,10
 146 512 146 512 162 544 c 128,-1,11
 178 576 178 576 205 586 c 1,12,13
 178 596 178 596 162 628 c 128,-1,14
 146 660 146 660 146 703 c 1,15,-1
 205 703 l 1,16,17
 205 670 205 670 227.5 647.5 c 128,-1,18
 250 625 250 625 283 625 c 2,19,-1
 791 625 l 2,20,21
 824 625 824 625 846.5 647.5 c 128,-1,22
 869 670 869 670 869 703 c 1,23,-1
 928 703 l 1,24,25
 928 660 928 660 912 628 c 128,-1,26
 896 596 896 596 869 586 c 1,27,28
 896 576 896 576 912 544 c 128,-1,29
 928 512 928 512 928 469 c 1,0,-1
928 78 m 1,30,-1
 869 78 l 1,31,32
 869 111 869 111 846.5 133.5 c 128,-1,33
 824 156 824 156 791 156 c 2,34,-1
 283 156 l 2,35,36
 250 156 250 156 227.5 133.5 c 128,-1,37
 205 111 205 111 205 78 c 1,38,-1
 146 78 l 1,39,40
 146 121 146 121 162 153.5 c 128,-1,41
 178 186 178 186 205 195 c 1,42,43
 178 205 178 205 162 237.5 c 128,-1,44
 146 270 146 270 146 312 c 1,45,-1
 205 312 l 1,46,47
 205 279 205 279 227.5 256.5 c 128,-1,48
 250 234 250 234 283 234 c 2,49,-1
 791 234 l 2,50,51
 824 234 824 234 846.5 256.5 c 128,-1,52
 869 279 869 279 869 312 c 1,53,-1
 928 312 l 1,54,55
 928 270 928 270 912 237.5 c 128,-1,56
 896 205 896 205 869 195 c 1,57,58
 896 186 896 186 912 153.5 c 128,-1,59
 928 121 928 121 928 78 c 1,30,-1
EndSplineSet
EndChar

StartChar: greater
Encoding: 62 62 33
Width: 1068
GlyphClass: 2
Flags: W
LayerCount: 2
Fore
SplineSet
866 516 m 1,0,-1
 476 128 l 1,1,-1
 404 200 l 1,2,-1
 722 516 l 1,3,-1
 402 836 l 1,4,-1
 476 908 l 1,5,-1
 866 516 l 1,0,-1
EndSplineSet
EndChar

StartChar: question
Encoding: 63 63 34
Width: 1240
GlyphClass: 2
Flags: W
LayerCount: 2
Fore
SplineSet
713 0 m 0,0,1
 652 0 652 0 609 43 c 128,-1,2
 566 86 566 86 566 146 c 0,3,4
 566 207 566 207 609 250 c 128,-1,5
 652 293 652 293 713 293 c 0,6,7
 777 293 777 293 823 250 c 128,-1,8
 869 207 869 207 869 146 c 0,9,10
 869 86 869 86 823 43 c 128,-1,11
 777 0 777 0 713 0 c 0,0,1
859 332 m 1,12,-1
 820 332 l 2,13,14
 779 332 779 332 749 342 c 128,-1,15
 719 352 719 352 703 371 c 1,16,17
 687 352 687 352 657 342 c 128,-1,18
 627 332 627 332 586 332 c 2,19,-1
 547 332 l 1,20,-1
 547 391 l 1,21,-1
 586 391 l 2,22,23
 619 391 619 391 641.5 408.5 c 128,-1,24
 664 426 664 426 664 449 c 2,25,-1
 664 479 l 2,26,27
 664 523 664 523 694.5 558.5 c 128,-1,28
 725 594 725 594 771 605 c 0,29,30
 879 633 879 633 947.5 706 c 128,-1,31
 1016 779 1016 779 1016 869 c 0,32,33
 1016 963 1016 963 941.5 1028.5 c 128,-1,34
 867 1094 867 1094 762 1094 c 0,35,36
 648 1094 648 1094 568 1031.5 c 128,-1,37
 488 969 488 969 488 879 c 0,38,39
 488 838 488 838 510.5 809.5 c 128,-1,40
 533 781 533 781 566 781 c 2,41,-1
 605 781 l 1,42,-1
 605 723 l 1,43,-1
 566 723 l 2,44,45
 527 723 527 723 496 738.5 c 128,-1,46
 465 754 465 754 449 781 c 1,47,48
 434 754 434 754 402.5 738.5 c 128,-1,49
 371 723 371 723 332 723 c 2,50,-1
 293 723 l 1,51,-1
 293 781 l 1,52,-1
 332 781 l 2,53,54
 365 781 365 781 387.5 809.5 c 128,-1,55
 410 838 410 838 410 879 c 0,56,57
 410 1000 410 1000 512.5 1086 c 128,-1,58
 615 1172 615 1172 762 1172 c 0,59,60
 898 1172 898 1172 996 1083 c 128,-1,61
 1094 994 1094 994 1094 869 c 0,62,63
 1094 764 1094 764 1020.5 677 c 128,-1,64
 947 590 947 590 830 557 c 0,65,66
 791 545 791 545 766.5 523.5 c 128,-1,67
 742 502 742 502 742 479 c 2,68,-1
 742 439 l 2,69,70
 742 420 742 420 764.5 405.5 c 128,-1,71
 787 391 787 391 820 391 c 2,72,-1
 859 391 l 1,73,-1
 859 332 l 1,12,-1
EndSplineSet
EndChar

StartChar: at
Encoding: 64 64 35
Width: 1760
GlyphClass: 2
Flags: W
LayerCount: 2
Fore
SplineSet
936 128 m 1,0,1
 800 -2 800 -2 668 -2 c 0,2,3
 504 -2 504 -2 462 164 c 0,4,5
 450 212 450 212 450 262 c 2,6,-1
 450 314 l 1,7,-1
 458 348 l 2,8,9
 488 476 488 476 575 601 c 128,-1,10
 662 726 662 726 772 786 c 128,-1,11
 882 846 882 846 970 846 c 0,12,13
 1112 846 1112 846 1176 702 c 1,14,-1
 1228 824 l 1,15,-1
 1368 824 l 1,16,-1
 1094 180 l 1,17,18
 1094 160 1094 160 1102 142 c 1,19,20
 1112 132 1112 132 1138 128 c 1,21,22
 1184 128 1184 128 1258 174 c 0,23,24
 1356 236 1356 236 1434 343 c 128,-1,25
 1512 450 1512 450 1532 560 c 2,26,-1
 1540 604 l 1,27,-1
 1542 656 l 2,28,29
 1544 726 1544 726 1518 802 c 0,30,31
 1476 924 1476 924 1338 992 c 0,32,33
 1220 1052 1220 1052 1078 1052 c 0,34,35
 786 1052 786 1052 567 861 c 128,-1,36
 348 670 348 670 284 380 c 0,37,38
 266 298 266 298 266 224 c 0,39,40
 266 -50 266 -50 492 -154 c 0,41,42
 636 -220 636 -220 828 -220 c 0,43,44
 1204 -220 1204 -220 1428 14 c 1,45,-1
 1568 14 l 1,46,47
 1444 -182 1444 -182 1138 -286 c 0,48,49
 992 -336 992 -336 804 -336 c 0,50,51
 448 -336 448 -336 278 -162 c 0,52,53
 146 -26 146 -26 146 196 c 0,54,55
 146 464 146 464 320 730 c 0,56,57
 454 936 454 936 661 1051 c 128,-1,58
 868 1166 868 1166 1110 1166 c 0,59,60
 1524 1166 1524 1166 1634 852 c 0,61,62
 1662 770 1662 770 1660 686 c 2,63,-1
 1658 624 l 1,64,-1
 1646 556 l 2,65,66
 1608 342 1608 342 1402 156 c 0,67,68
 1224 -4 1224 -4 1058 -4 c 2,69,-1
 1036 -4 l 1,70,-1
 1006 0 l 2,71,72
 960 6 960 6 934 60 c 1,73,-1
 932 86 l 1,74,-1
 936 128 l 1,0,1
602 340 m 2,75,-1
 596 302 l 1,76,-1
 594 264 l 2,77,78
 590 202 590 202 625 158 c 128,-1,79
 660 114 660 114 720 114 c 0,80,81
 844 114 844 114 926 218 c 1,82,83
 978 258 978 258 1028 350 c 0,84,85
 1076 436 1076 436 1088 508 c 2,86,-1
 1094 542 l 1,87,-1
 1096 578 l 2,88,89
 1100 642 1100 642 1060 687 c 128,-1,90
 1020 732 1020 732 956 732 c 0,91,92
 800 732 800 732 660 490 c 0,93,94
 612 408 612 408 602 340 c 2,75,-1
EndSplineSet
EndChar

StartChar: bracketleft
Encoding: 91 91 36
Width: 556
GlyphClass: 2
Flags: W
LayerCount: 2
Fore
SplineSet
50 -398 m 1,0,-1
 442 1432 l 1,1,-1
 830 1432 l 1,2,-1
 798 1286 l 1,3,-1
 586 1286 l 1,4,-1
 258 -252 l 1,5,-1
 470 -252 l 1,6,-1
 438 -398 l 1,7,-1
 50 -398 l 1,0,-1
EndSplineSet
EndChar

StartChar: backslash
Encoding: 92 92 37
Width: 556
GlyphClass: 2
Flags: W
LayerCount: 2
Fore
SplineSet
416 -24 m 1,0,-1
 0 1456 l 1,1,-1
 142 1456 l 1,2,-1
 556 -24 l 1,3,-1
 416 -24 l 1,0,-1
EndSplineSet
EndChar

StartChar: bracketright
Encoding: 93 93 38
Width: 556
GlyphClass: 2
Flags: W
LayerCount: 2
Fore
SplineSet
340 -398 m 1,0,-1
 -48 -398 l 1,1,-1
 -16 -252 l 1,2,-1
 196 -252 l 1,3,-1
 524 1286 l 1,4,-1
 312 1286 l 1,5,-1
 344 1432 l 1,6,-1
 732 1432 l 1,7,-1
 340 -398 l 1,0,-1
EndSplineSet
EndChar

StartChar: asciicircum
Encoding: 94 94 39
Width: 938
GlyphClass: 2
Flags: W
LayerCount: 2
Fore
SplineSet
234 674 m 1,0,-1
 52 674 l 1,1,-1
 398 1456 l 1,2,-1
 540 1456 l 1,3,-1
 886 674 l 1,4,-1
 708 674 l 1,5,-1
 468 1256 l 1,6,-1
 234 674 l 1,0,-1
EndSplineSet
EndChar

StartChar: underscore
Encoding: 95 95 40
Width: 1112
GlyphClass: 2
Flags: W
LayerCount: 2
Fore
SplineSet
-30 -398 m 1,0,-1
 -30 -270 l 1,1,-1
 1134 -270 l 1,2,-1
 1134 -398 l 1,3,-1
 -30 -398 l 1,0,-1
EndSplineSet
EndChar

StartChar: grave
Encoding: 96 96 41
Width: 666
GlyphClass: 2
Flags: W
LayerCount: 2
Fore
SplineSet
454 1166 m 1,0,-1
 312 1166 l 1,1,-1
 86 1440 l 1,2,-1
 322 1440 l 1,3,-1
 454 1166 l 1,0,-1
EndSplineSet
EndChar

StartChar: braceleft
Encoding: 123 123 42
Width: 668
GlyphClass: 2
Flags: W
LayerCount: 2
Fore
SplineSet
184 598 m 1,0,1
 336 598 336 598 400 744 c 1,2,-1
 434 854 l 1,3,-1
 466 974 l 2,4,5
 480 1042 480 1042 520 1202 c 0,6,7
 550 1312 550 1312 650 1396 c 0,8,9
 686 1426 686 1426 756 1446 c 1,10,-1
 804 1454 l 1,11,-1
 878 1456 l 1,12,-1
 934 1456 l 1,13,-1
 900 1302 l 1,14,-1
 868 1302 l 2,15,16
 770 1302 770 1302 724 1264 c 0,17,18
 690 1236 690 1236 658 1102 c 2,19,-1
 644 1042 l 1,20,-1
 614 898 l 1,21,-1
 596 824 l 2,22,23
 590 800 590 800 578 780 c 0,24,25
 536 676 536 676 484 623 c 128,-1,26
 432 570 432 570 328 518 c 1,27,28
 468 460 468 460 468 296 c 0,29,30
 468 244 468 244 438 78 c 2,31,-1
 392 -178 l 1,32,33
 392 -220 392 -220 414 -242 c 1,34,-1
 450 -258 l 1,35,36
 486 -268 486 -268 532 -268 c 2,37,-1
 564 -268 l 1,38,-1
 532 -420 l 1,39,-1
 476 -420 l 2,40,41
 378 -420 378 -420 342 -406 c 0,42,43
 292 -386 292 -386 256 -334 c 1,44,-1
 234 -278 l 1,45,-1
 226 -206 l 1,46,47
 226 -160 226 -160 244 -72 c 2,48,-1
 268 46 l 1,49,-1
 296 194 l 1,50,-1
 304 290 l 2,51,52
 310 352 310 352 264 398 c 1,53,54
 214 438 214 438 150 438 c 1,55,-1
 184 598 l 1,0,1
EndSplineSet
EndChar

StartChar: bar
Encoding: 124 124 43
Width: 520
GlyphClass: 2
Flags: W
LayerCount: 2
Fore
SplineSet
184 -420 m 1,0,-1
 184 1456 l 1,1,-1
 336 1456 l 1,2,-1
 336 -420 l 1,3,-1
 184 -420 l 1,0,-1
EndSplineSet
EndChar

StartChar: braceright
Encoding: 125 125 44
Width: 668
GlyphClass: 2
Flags: W
LayerCount: 2
Fore
SplineSet
740 598 m 1,0,-1
 706 438 l 1,1,2
 632 438 632 438 570 398 c 128,-1,3
 508 358 508 358 486 290 c 2,4,-1
 456 200 l 1,5,-1
 372 -154 l 2,6,7
 354 -230 354 -230 310 -282 c 2,8,-1
 274 -324 l 1,9,-1
 234 -364 l 1,10,-1
 194 -386 l 1,11,-1
 134 -410 l 1,12,-1
 86 -418 l 1,13,-1
 10 -420 l 1,14,-1
 -44 -420 l 1,15,-1
 -12 -268 l 1,16,-1
 18 -268 l 2,17,18
 116 -268 116 -268 159 -231 c 128,-1,19
 202 -194 202 -194 230 -66 c 2,20,-1
 272 124 l 1,21,-1
 304 244 l 2,22,23
 354 432 354 432 558 518 c 1,24,25
 460 566 460 566 432 656 c 0,26,27
 422 688 422 688 422 748 c 0,28,29
 422 838 422 838 448 958 c 2,30,-1
 474 1078 l 1,31,-1
 486 1142 l 1,32,-1
 496 1212 l 1,33,-1
 496 1222 l 2,34,35
 496 1302 496 1302 354 1302 c 2,36,-1
 324 1302 l 1,37,-1
 358 1456 l 1,38,-1
 412 1456 l 2,39,40
 584 1456 584 1456 634 1370 c 0,41,42
 660 1326 660 1326 660 1240 c 1,43,-1
 650 1138 l 1,44,-1
 592 834 l 1,45,-1
 582 742 l 1,46,47
 582 686 582 686 624 638 c 1,48,49
 646 620 646 620 674 608 c 1,50,-1
 704 600 l 1,51,-1
 740 598 l 1,0,-1
EndSplineSet
EndChar

StartChar: asciitilde
Encoding: 126 126 45
Width: 1168
GlyphClass: 2
Flags: W
LayerCount: 2
Fore
SplineSet
84 544 m 1,0,-1
 84 744 l 1,1,2
 190 862 190 862 356 862 c 0,3,4
 402 862 402 862 480 844 c 1,5,6
 526 826 526 826 664 776 c 2,7,-1
 764 740 l 1,8,-1
 806 730 l 1,9,-1
 832 730 l 2,10,11
 950 730 950 730 1084 864 c 1,12,-1
 1084 658 l 1,13,14
 1024 604 1024 604 960 572 c 1,15,16
 876 544 876 544 814 546 c 2,17,-1
 758 548 l 1,18,-1
 726 548 l 1,19,20
 718 552 718 552 704 556 c 0,21,22
 662 568 662 568 524 628 c 0,23,24
 414 676 414 676 340 676 c 0,25,26
 276 676 276 676 222 650 c 1,27,-1
 162 612 l 1,28,-1
 136 592 l 1,29,-1
 84 544 l 1,0,-1
EndSplineSet
EndChar

StartChar: cent
Encoding: 162 162 46
Width: 721
GlyphClass: 2
Flags: W
LayerCount: 2
Fore
SplineSet
598 156 m 1,0,1
 537 71 537 71 467 31 c 128,-1,2
 397 -9 397 -9 304 -17 c 1,3,-1
 228 -265 l 1,4,-1
 187 -265 l 1,5,-1
 262 -17 l 1,6,7
 177 -8 177 -8 128.5 47 c 128,-1,8
 80 102 80 102 80 188 c 0,9,10
 80 345 80 345 191.5 478.5 c 128,-1,11
 303 612 303 612 457 638 c 1,12,-1
 541 917 l 1,13,-1
 580 917 l 1,14,-1
 499 638 l 1,15,16
 580 638 580 638 616.5 607 c 128,-1,17
 653 576 653 576 653 523 c 0,18,19
 653 482 653 482 631.5 455.5 c 128,-1,20
 610 429 610 429 580 429 c 0,21,22
 557 429 557 429 544 442 c 128,-1,23
 531 455 531 455 531 476 c 0,24,25
 531 491 531 491 536 502 c 128,-1,26
 541 513 541 513 560.5 534.5 c 128,-1,27
 580 556 580 556 580 570 c 0,28,29
 580 578 580 578 575 585 c 0,30,31
 565 596 565 596 549.5 601 c 128,-1,32
 534 606 534 606 489 606 c 1,33,-1
 322 49 l 1,34,-1
 352 47 l 1,35,36
 470 47 470 47 580 173 c 1,37,-1
 598 156 l 1,0,1
284 57 m 1,38,-1
 445 598 l 1,39,40
 383 570 383 570 342 533 c 0,41,42
 274 467 274 467 237 380.5 c 128,-1,43
 200 294 200 294 200 205 c 0,44,45
 200 146 200 146 224 108 c 0,46,47
 243 81 243 81 284 57 c 1,38,-1
EndSplineSet
EndChar

StartChar: multiply
Encoding: 215 215 47
Width: 975
GlyphClass: 2
Flags: W
LayerCount: 2
Fore
SplineSet
267 230 m 1,0,-1
 515 479 l 1,1,-1
 267 728 l 1,2,-1
 308 768 l 1,3,-1
 556 520 l 1,4,-1
 805 768 l 1,5,-1
 844 728 l 1,6,-1
 595 480 l 1,7,-1
 845 230 l 1,8,-1
 805 190 l 1,9,-1
 555 439 l 1,10,-1
 307 190 l 1,11,-1
 267 230 l 1,0,-1
EndSplineSet
EndChar

StartChar: divide
Encoding: 247 247 48
Width: 937
GlyphClass: 2
Flags: W
LayerCount: 2
Fore
SplineSet
391 137 m 256,0,1
 391 170 391 170 413.5 192.5 c 128,-1,2
 436 215 436 215 469 215 c 256,3,4
 502 215 502 215 524.5 192.5 c 128,-1,5
 547 170 547 170 547 137 c 256,6,7
 547 104 547 104 524.5 81.5 c 128,-1,8
 502 59 502 59 469 59 c 256,9,10
 436 59 436 59 413.5 81.5 c 128,-1,11
 391 104 391 104 391 137 c 256,0,1
146 352 m 1,12,-1
 146 430 l 1,13,-1
 791 430 l 1,14,-1
 791 352 l 1,15,-1
 146 352 l 1,12,-1
391 645 m 0,16,17
 391 678 391 678 413.5 700.5 c 128,-1,18
 436 723 436 723 469 723 c 256,19,20
 502 723 502 723 524.5 700.5 c 128,-1,21
 547 678 547 678 547 645 c 0,22,23
 547 611 547 611 524.5 588.5 c 128,-1,24
 502 566 502 566 469 566 c 256,25,26
 436 566 436 566 413.5 588.5 c 128,-1,27
 391 611 391 611 391 645 c 0,16,17
EndSplineSet
EndChar

StartChar: tm_visarga
Encoding: 2947 2947 49
Width: 1654
GlyphClass: 2
Flags: W
LayerCount: 2
Fore
SplineSet
285 0 m 0,0,1
 191 0 191 0 126 68.5 c 128,-1,2
 61 137 61 137 61 234 c 0,3,4
 61 332 61 332 126 400.5 c 128,-1,5
 191 469 191 469 285 469 c 0,6,7
 383 469 383 469 451.5 400.5 c 128,-1,8
 520 332 520 332 520 234 c 0,9,10
 520 137 520 137 451.5 68.5 c 128,-1,11
 383 0 383 0 285 0 c 0,0,1
285 78 m 0,12,13
 350 78 350 78 395.5 124 c 128,-1,14
 441 170 441 170 441 234 c 0,15,16
 441 299 441 299 395.5 345 c 128,-1,17
 350 391 350 391 285 391 c 0,18,19
 225 391 225 391 182 345 c 128,-1,20
 139 299 139 299 139 234 c 0,21,22
 139 170 139 170 182 124 c 128,-1,23
 225 78 225 78 285 78 c 0,12,13
1359 0 m 0,24,25
 1266 0 1266 0 1200.5 68.5 c 128,-1,26
 1135 137 1135 137 1135 234 c 0,27,28
 1135 332 1135 332 1200.5 400.5 c 128,-1,29
 1266 469 1266 469 1359 469 c 0,30,31
 1457 469 1457 469 1525.5 400.5 c 128,-1,32
 1594 332 1594 332 1594 234 c 0,33,34
 1594 137 1594 137 1525.5 68.5 c 128,-1,35
 1457 0 1457 0 1359 0 c 0,24,25
1359 78 m 0,36,37
 1424 78 1424 78 1470 124 c 128,-1,38
 1516 170 1516 170 1516 234 c 0,39,40
 1516 299 1516 299 1470 345 c 128,-1,41
 1424 391 1424 391 1359 391 c 0,42,43
 1299 391 1299 391 1256 345 c 128,-1,44
 1213 299 1213 299 1213 234 c 0,45,46
 1213 170 1213 170 1256 124 c 128,-1,47
 1299 78 1299 78 1359 78 c 0,36,37
822 898 m 0,48,49
 725 898 725 898 656.5 966.5 c 128,-1,50
 588 1035 588 1035 588 1133 c 0,51,52
 588 1230 588 1230 656.5 1298.5 c 128,-1,53
 725 1367 725 1367 822 1367 c 0,54,55
 920 1367 920 1367 988.5 1298.5 c 128,-1,56
 1057 1230 1057 1230 1057 1133 c 0,57,58
 1057 1035 1057 1035 988.5 966.5 c 128,-1,59
 920 898 920 898 822 898 c 0,48,49
822 977 m 0,60,61
 887 977 887 977 933 1022.5 c 128,-1,62
 979 1068 979 1068 979 1133 c 0,63,64
 979 1197 979 1197 933 1243 c 128,-1,65
 887 1289 887 1289 822 1289 c 0,66,67
 758 1289 758 1289 712 1243 c 128,-1,68
 666 1197 666 1197 666 1133 c 0,69,70
 666 1068 666 1068 712 1022.5 c 128,-1,71
 758 977 758 977 822 977 c 0,60,61
EndSplineSet
EndChar

StartChar: tm_a
Encoding: 2949 2949 50
Width: 1719
GlyphClass: 2
Flags: W
LayerCount: 2
Fore
SplineSet
1357 0 m 1,0,-1
 1357 59 l 1,1,-1
 1396 59 l 2,2,3
 1430 59 1430 59 1452.5 81.5 c 128,-1,4
 1475 104 1475 104 1475 137 c 2,5,-1
 1475 312 l 1,6,-1
 1270 312 l 1,7,8
 1232 166 1232 166 1095.5 73 c 128,-1,9
 959 -20 959 -20 781 -20 c 2,10,-1
 459 -20 l 2,11,12
 273 -20 273 -20 161 46.5 c 128,-1,13
 49 113 49 113 49 225 c 0,14,15
 49 293 49 293 111.5 342 c 128,-1,16
 174 391 174 391 264 391 c 2,17,-1
 1201 391 l 1,18,-1
 1201 498 l 2,19,20
 1201 615 1201 615 1100.5 698 c 128,-1,21
 1000 781 1000 781 859 781 c 2,22,-1
 811 781 l 1,23,24
 830 758 830 758 840 728.5 c 128,-1,25
 850 699 850 699 850 664 c 0,26,27
 850 574 850 574 787.5 511.5 c 128,-1,28
 725 449 725 449 635 449 c 0,29,30
 555 449 555 449 497 498 c 128,-1,31
 439 547 439 547 439 615 c 0,32,33
 439 717 439 717 537 788 c 128,-1,34
 635 859 635 859 771 859 c 2,35,-1
 859 859 l 2,36,37
 1033 859 1033 859 1156 753.5 c 128,-1,38
 1279 648 1279 648 1279 498 c 2,39,-1
 1279 391 l 1,40,-1
 1475 391 l 1,41,-1
 1475 645 l 2,42,43
 1475 678 1475 678 1452.5 700.5 c 128,-1,44
 1430 723 1430 723 1396 723 c 2,45,-1
 1357 723 l 1,46,-1
 1357 781 l 1,47,-1
 1396 781 l 2,48,49
 1436 781 1436 781 1467 765.5 c 128,-1,50
 1498 750 1498 750 1514 723 c 1,51,52
 1529 750 1529 750 1560.5 765.5 c 128,-1,53
 1592 781 1592 781 1631 781 c 2,54,-1
 1670 781 l 1,55,-1
 1670 723 l 1,56,-1
 1631 723 l 2,57,58
 1598 723 1598 723 1575.5 700.5 c 128,-1,59
 1553 678 1553 678 1553 645 c 2,60,-1
 1553 137 l 2,61,62
 1553 104 1553 104 1575.5 81.5 c 128,-1,63
 1598 59 1598 59 1631 59 c 2,64,-1
 1670 59 l 1,65,-1
 1670 0 l 1,66,-1
 1631 0 l 2,67,68
 1592 0 1592 0 1560.5 15.5 c 128,-1,69
 1529 31 1529 31 1514 59 c 1,70,71
 1498 31 1498 31 1467 15.5 c 128,-1,72
 1436 0 1436 0 1396 0 c 2,73,-1
 1357 0 l 1,0,-1
635 518 m 0,74,75
 691 518 691 518 731 561 c 128,-1,76
 771 604 771 604 771 664 c 0,77,78
 771 713 771 713 746 747 c 128,-1,79
 721 781 721 781 684 781 c 0,80,81
 619 781 619 781 573 732.5 c 128,-1,82
 527 684 527 684 527 615 c 0,83,84
 527 574 527 574 558.5 546 c 128,-1,85
 590 518 590 518 635 518 c 0,74,75
781 59 m 2,86,87
 920 59 920 59 1030.5 128 c 128,-1,88
 1141 197 1141 197 1182 312 c 1,89,-1
 264 312 l 2,90,91
 207 312 207 312 167 287 c 128,-1,92
 127 262 127 262 127 225 c 0,93,94
 127 148 127 148 218 103.5 c 128,-1,95
 309 59 309 59 459 59 c 2,96,-1
 781 59 l 2,86,87
EndSplineSet
EndChar

StartChar: tm_aa
Encoding: 2950 2950 51
Width: 1986
GlyphClass: 2
Flags: W
LayerCount: 2
Fore
SplineSet
1279 -586 m 2,0,-1
 479 -586 l 2,1,2
 301 -586 301 -586 175 -514.5 c 128,-1,3
 49 -443 49 -443 49 -342 c 0,4,5
 49 -273 49 -273 106.5 -224.5 c 128,-1,6
 164 -176 164 -176 244 -176 c 2,7,-1
 1084 -176 l 2,8,9
 1117 -176 1117 -176 1139.5 -153.5 c 128,-1,10
 1162 -131 1162 -131 1162 -98 c 1,11,-1
 1221 -98 l 1,12,13
 1221 -139 1221 -139 1205 -170 c 128,-1,14
 1189 -201 1189 -201 1162 -215 c 1,15,16
 1189 -230 1189 -230 1205 -261.5 c 128,-1,17
 1221 -293 1221 -293 1221 -332 c 1,18,-1
 1162 -332 l 1,19,20
 1162 -299 1162 -299 1139.5 -276.5 c 128,-1,21
 1117 -254 1117 -254 1084 -254 c 2,22,-1
 244 -254 l 2,23,24
 195 -254 195 -254 161 -279.5 c 128,-1,25
 127 -305 127 -305 127 -342 c 0,26,27
 127 -410 127 -410 229.5 -459 c 128,-1,28
 332 -508 332 -508 479 -508 c 2,29,-1
 1279 -508 l 2,30,31
 1555 -508 1555 -508 1720 -380 c 128,-1,32
 1885 -252 1885 -252 1885 -39 c 0,33,34
 1885 33 1885 33 1839 85 c 128,-1,35
 1793 137 1793 137 1729 137 c 0,36,37
 1656 137 1656 137 1604.5 97 c 128,-1,38
 1553 57 1553 57 1553 0 c 2,39,-1
 1553 -59 l 2,40,41
 1553 -92 1553 -92 1575.5 -114.5 c 128,-1,42
 1598 -137 1598 -137 1631 -137 c 2,43,-1
 1670 -137 l 1,44,-1
 1670 -195 l 1,45,-1
 1631 -195 l 2,46,47
 1592 -195 1592 -195 1560.5 -179.5 c 128,-1,48
 1529 -164 1529 -164 1514 -137 c 1,49,50
 1498 -164 1498 -164 1467 -179.5 c 128,-1,51
 1436 -195 1436 -195 1396 -195 c 2,52,-1
 1357 -195 l 1,53,-1
 1357 -137 l 1,54,-1
 1396 -137 l 2,55,56
 1430 -137 1430 -137 1452.5 -114.5 c 128,-1,57
 1475 -92 1475 -92 1475 -59 c 2,58,-1
 1475 312 l 1,59,-1
 1270 312 l 1,60,61
 1232 166 1232 166 1095.5 73 c 128,-1,62
 959 -20 959 -20 781 -20 c 2,63,-1
 459 -20 l 2,64,65
 273 -20 273 -20 161 46.5 c 128,-1,66
 49 113 49 113 49 225 c 0,67,68
 49 293 49 293 111.5 342 c 128,-1,69
 174 391 174 391 264 391 c 2,70,-1
 1201 391 l 1,71,-1
 1201 498 l 2,72,73
 1201 615 1201 615 1109.5 698 c 128,-1,74
 1018 781 1018 781 889 781 c 2,75,-1
 811 781 l 1,76,77
 830 758 830 758 840 728.5 c 128,-1,78
 850 699 850 699 850 664 c 0,79,80
 850 574 850 574 787.5 511.5 c 128,-1,81
 725 449 725 449 635 449 c 0,82,83
 559 449 559 449 504 498 c 128,-1,84
 449 547 449 547 449 615 c 0,85,86
 449 717 449 717 532 788 c 128,-1,87
 615 859 615 859 732 859 c 2,88,-1
 889 859 l 2,89,90
 1051 859 1051 859 1165 753.5 c 128,-1,91
 1279 648 1279 648 1279 498 c 2,92,-1
 1279 391 l 1,93,-1
 1475 391 l 1,94,-1
 1475 645 l 2,95,96
 1475 678 1475 678 1452.5 700.5 c 128,-1,97
 1430 723 1430 723 1396 723 c 2,98,-1
 1357 723 l 1,99,-1
 1357 781 l 1,100,-1
 1396 781 l 2,101,102
 1437 781 1437 781 1468.5 768.5 c 128,-1,103
 1500 756 1500 756 1514 732 c 1,104,105
 1527 756 1527 756 1558.5 768.5 c 128,-1,106
 1590 781 1590 781 1631 781 c 2,107,-1
 1670 781 l 1,108,-1
 1670 723 l 1,109,-1
 1631 723 l 2,110,111
 1598 723 1598 723 1575.5 700.5 c 128,-1,112
 1553 678 1553 678 1553 645 c 2,113,-1
 1553 146 l 1,114,115
 1576 178 1576 178 1623 196.5 c 128,-1,116
 1670 215 1670 215 1729 215 c 0,117,118
 1826 215 1826 215 1894.5 140.5 c 128,-1,119
 1963 66 1963 66 1963 -39 c 0,120,121
 1963 -287 1963 -287 1776.5 -436.5 c 128,-1,122
 1590 -586 1590 -586 1279 -586 c 2,0,-1
635 518 m 0,123,124
 691 518 691 518 731 561 c 128,-1,125
 771 604 771 604 771 664 c 0,126,127
 771 713 771 713 746 747 c 128,-1,128
 721 781 721 781 684 781 c 0,129,130
 619 781 619 781 573 732.5 c 128,-1,131
 527 684 527 684 527 615 c 0,132,133
 527 574 527 574 558.5 546 c 128,-1,134
 590 518 590 518 635 518 c 0,123,124
781 59 m 2,135,136
 908 59 908 59 1016.5 127 c 128,-1,137
 1125 195 1125 195 1182 312 c 1,138,-1
 264 312 l 2,139,140
 207 312 207 312 167 287 c 128,-1,141
 127 262 127 262 127 225 c 0,142,143
 127 148 127 148 218 103.5 c 128,-1,144
 309 59 309 59 459 59 c 2,145,-1
 781 59 l 2,135,136
EndSplineSet
EndChar

StartChar: tm_i
Encoding: 2951 2951 52
Width: 1568
GlyphClass: 2
Flags: W
LayerCount: 2
Fore
SplineSet
1090 -586 m 0,0,1
 959 -586 959 -586 836 -541 c 128,-1,2
 713 -496 713 -496 611 -410 c 1,3,4
 494 -496 494 -496 381 -541 c 128,-1,5
 268 -586 268 -586 172 -586 c 0,6,7
 59 -586 59 -586 -21.5 -506 c 128,-1,8
 -102 -426 -102 -426 -102 -313 c 0,9,10
 -102 -193 -102 -193 -20.5 -79 c 128,-1,11
 61 35 61 35 201 117 c 1,12,13
 168 193 168 193 150.5 272.5 c 128,-1,14
 133 352 133 352 133 430 c 0,15,16
 133 785 133 785 330 998 c 128,-1,17
 527 1211 527 1211 855 1211 c 0,18,19
 1121 1211 1121 1211 1281 1040 c 128,-1,20
 1441 869 1441 869 1441 586 c 0,21,22
 1441 494 1441 494 1431.5 420 c 128,-1,23
 1422 346 1422 346 1402 293 c 0,24,25
 1393 266 1393 266 1388 241.5 c 128,-1,26
 1383 217 1383 217 1383 195 c 0,27,28
 1383 182 1383 182 1405.5 165 c 128,-1,29
 1428 148 1428 148 1480 117 c 1,30,-1
 1461 59 l 1,31,32
 1404 86 1404 86 1368 114.5 c 128,-1,33
 1332 143 1332 143 1324 166 c 1,34,35
 1305 143 1305 143 1281.5 130 c 128,-1,36
 1258 117 1258 117 1236 117 c 0,37,38
 1215 117 1215 117 1195.5 125 c 128,-1,39
 1176 133 1176 133 1158 146 c 1,40,-1
 1187 205 l 1,41,42
 1199 195 1199 195 1212 190.5 c 128,-1,43
 1225 186 1225 186 1236 186 c 0,44,45
 1289 186 1289 186 1326 303 c 128,-1,46
 1363 420 1363 420 1363 586 c 0,47,48
 1363 834 1363 834 1224.5 983.5 c 128,-1,49
 1086 1133 1086 1133 855 1133 c 0,50,51
 562 1133 562 1133 386.5 940.5 c 128,-1,52
 211 748 211 748 211 430 c 0,53,54
 211 336 211 336 225.5 265.5 c 128,-1,55
 240 195 240 195 270 156 c 1,56,57
 348 176 348 176 431 185.5 c 128,-1,58
 514 195 514 195 602 195 c 0,59,60
 709 195 709 195 802.5 177.5 c 128,-1,61
 896 160 896 160 973 127 c 1,62,63
 982 160 982 160 987 212 c 128,-1,64
 992 264 992 264 992 332 c 0,65,66
 992 465 992 465 924.5 568.5 c 128,-1,67
 857 672 857 672 748 703 c 1,68,69
 738 676 738 676 744 650.5 c 128,-1,70
 750 625 750 625 768 615 c 0,71,72
 795 600 795 600 810.5 570.5 c 128,-1,73
 826 541 826 541 826 508 c 0,74,75
 826 436 826 436 765.5 384 c 128,-1,76
 705 332 705 332 621 332 c 0,77,78
 531 332 531 332 468.5 394.5 c 128,-1,79
 406 457 406 457 406 547 c 0,80,81
 406 645 406 645 480.5 713 c 128,-1,82
 555 781 555 781 660 781 c 0,83,84
 830 781 830 781 950 649.5 c 128,-1,85
 1070 518 1070 518 1070 332 c 0,86,87
 1070 242 1070 242 1065.5 183.5 c 128,-1,88
 1061 125 1061 125 1051 98 c 1,89,90
 1195 14 1195 14 1279 -106.5 c 128,-1,91
 1363 -227 1363 -227 1363 -352 c 0,92,93
 1363 -449 1363 -449 1283 -517.5 c 128,-1,94
 1203 -586 1203 -586 1090 -586 c 0,0,1
1090 -508 m 0,95,96
 1170 -508 1170 -508 1227.5 -462 c 128,-1,97
 1285 -416 1285 -416 1285 -352 c 0,98,99
 1285 -262 1285 -262 1215.5 -161.5 c 128,-1,100
 1146 -61 1146 -61 1021 29 c 1,101,102
 986 -64 986 -64 899 -165 c 128,-1,103
 812 -266 812 -266 680 -361 c 1,104,105
 764 -432 764 -432 870.5 -470 c 128,-1,106
 977 -508 977 -508 1090 -508 c 0,95,96
172 -508 m 256,107,108
 252 -508 252 -508 349.5 -471 c 128,-1,109
 447 -434 447 -434 553 -361 c 1,110,111
 439 -266 439 -266 357 -164.5 c 128,-1,112
 275 -63 275 -63 230 39 c 1,113,114
 113 -29 113 -29 45 -123 c 128,-1,115
 -23 -217 -23 -217 -23 -313 c 0,116,117
 -23 -393 -23 -393 34.5 -450.5 c 128,-1,118
 92 -508 92 -508 172 -508 c 256,107,108
621 -313 m 1,119,120
 727 -252 727 -252 814.5 -154.5 c 128,-1,121
 902 -57 902 -57 963 68 c 1,122,123
 879 92 879 92 788 104.5 c 128,-1,124
 697 117 697 117 602 117 c 0,125,126
 467 117 467 117 398.5 111 c 128,-1,127
 330 105 330 105 299 88 c 1,128,129
 363 -47 363 -47 445 -148.5 c 128,-1,130
 527 -250 527 -250 621 -313 c 1,119,120
621 410 m 0,131,132
 674 410 674 410 711 438.5 c 128,-1,133
 748 467 748 467 748 508 c 0,134,135
 748 527 748 527 736.5 542 c 128,-1,136
 725 557 725 557 709 557 c 0,137,138
 697 557 697 557 688.5 548 c 128,-1,139
 680 539 680 539 680 527 c 1,140,-1
 631 527 l 1,141,142
 631 564 631 564 653.5 589.5 c 128,-1,143
 676 615 676 615 709 615 c 1,144,145
 695 625 695 625 687.5 637.5 c 128,-1,146
 680 650 680 650 680 664 c 0,147,148
 680 674 680 674 683 683.5 c 128,-1,149
 686 693 686 693 689 703 c 1,150,-1
 660 703 l 2,151,152
 588 703 588 703 536 657 c 128,-1,153
 484 611 484 611 484 547 c 0,154,155
 484 490 484 490 524 450 c 128,-1,156
 564 410 564 410 621 410 c 0,131,132
EndSplineSet
EndChar

StartChar: tm_ii
Encoding: 2952 2952 53
Width: 1184
GlyphClass: 2
Flags: W
LayerCount: 2
Fore
SplineSet
859 0 m 1,0,-1
 820 0 l 2,1,2
 781 0 781 0 750 15.5 c 128,-1,3
 719 31 719 31 703 59 c 1,4,5
 687 31 687 31 656 15.5 c 128,-1,6
 625 0 625 0 586 0 c 2,7,-1
 547 0 l 1,8,-1
 547 59 l 1,9,-1
 586 59 l 2,10,11
 619 59 619 59 641.5 81.5 c 128,-1,12
 664 104 664 104 664 137 c 2,13,-1
 664 703 l 1,14,-1
 293 703 l 2,15,16
 270 703 270 703 252 691.5 c 128,-1,17
 234 680 234 680 234 664 c 2,18,-1
 234 137 l 2,19,20
 234 104 234 104 256.5 81.5 c 128,-1,21
 279 59 279 59 312 59 c 2,22,-1
 352 59 l 1,23,-1
 352 0 l 1,24,-1
 312 0 l 2,25,26
 279 0 279 0 250 15.5 c 128,-1,27
 221 31 221 31 205 59 c 1,28,29
 189 31 189 31 155 15.5 c 128,-1,30
 121 0 121 0 78 0 c 2,31,-1
 39 0 l 1,32,-1
 39 59 l 1,33,-1
 78 59 l 2,34,35
 111 59 111 59 133.5 81.5 c 128,-1,36
 156 104 156 104 156 137 c 2,37,-1
 156 664 l 2,38,39
 156 713 156 713 196 747 c 128,-1,40
 236 781 236 781 293 781 c 2,41,-1
 1016 781 l 2,42,43
 1049 781 1049 781 1071.5 803.5 c 128,-1,44
 1094 826 1094 826 1094 859 c 1,45,-1
 1152 859 l 1,46,47
 1152 820 1152 820 1136.5 789 c 128,-1,48
 1121 758 1121 758 1094 742 c 1,49,50
 1121 727 1121 727 1136.5 695.5 c 128,-1,51
 1152 664 1152 664 1152 625 c 1,52,-1
 1094 625 l 1,53,54
 1094 658 1094 658 1071.5 680.5 c 128,-1,55
 1049 703 1049 703 1016 703 c 2,56,-1
 742 703 l 1,57,-1
 742 137 l 2,58,59
 742 104 742 104 764.5 81.5 c 128,-1,60
 787 59 787 59 820 59 c 2,61,-1
 859 59 l 1,62,-1
 859 0 l 1,0,-1
957 293 m 256,63,64
 916 293 916 293 887.5 321.5 c 128,-1,65
 859 350 859 350 859 391 c 256,66,67
 859 432 859 432 887.5 460 c 128,-1,68
 916 488 916 488 957 488 c 256,69,70
 998 488 998 488 1026.5 460 c 128,-1,71
 1055 432 1055 432 1055 391 c 256,72,73
 1055 350 1055 350 1026.5 321.5 c 128,-1,74
 998 293 998 293 957 293 c 256,63,64
449 293 m 256,75,76
 408 293 408 293 380 321.5 c 128,-1,77
 352 350 352 350 352 391 c 256,78,79
 352 432 352 432 380 460 c 128,-1,80
 408 488 408 488 449 488 c 256,81,82
 490 488 490 488 518.5 460 c 128,-1,83
 547 432 547 432 547 391 c 256,84,85
 547 350 547 350 518.5 321.5 c 128,-1,86
 490 293 490 293 449 293 c 256,75,76
EndSplineSet
EndChar

StartChar: tm_u
Encoding: 2953 2953 54
Width: 2203
GlyphClass: 2
Flags: W
LayerCount: 2
Fore
SplineSet
2178 -59 m 1,0,-1
 2119 -59 l 1,1,2
 2119 -35 2119 -35 2096.5 -17.5 c 128,-1,3
 2074 0 2074 0 2041 0 c 2,4,-1
 283 0 l 2,5,6
 203 0 203 0 145.5 49 c 128,-1,7
 88 98 88 98 88 166 c 256,8,9
 88 234 88 234 150.5 283 c 128,-1,10
 213 332 213 332 303 332 c 2,11,-1
 479 332 l 2,12,13
 568 332 568 332 630.5 403.5 c 128,-1,14
 693 475 693 475 693 576 c 0,15,16
 693 615 693 615 685.5 645.5 c 128,-1,17
 678 676 678 676 664 693 c 1,18,19
 631 703 631 703 603.5 678.5 c 128,-1,20
 576 654 576 654 576 615 c 0,21,22
 576 531 576 531 513.5 470.5 c 128,-1,23
 451 410 451 410 361 410 c 0,24,25
 256 410 256 410 181.5 478.5 c 128,-1,26
 107 547 107 547 107 645 c 0,27,28
 107 760 107 760 184.5 829 c 128,-1,29
 262 898 262 898 391 898 c 0,30,31
 562 898 562 898 666.5 810.5 c 128,-1,32
 771 723 771 723 771 576 c 0,33,34
 771 443 771 443 685.5 348.5 c 128,-1,35
 600 254 600 254 479 254 c 2,36,-1
 303 254 l 2,37,38
 246 254 246 254 206 228.5 c 128,-1,39
 166 203 166 203 166 166 c 256,40,41
 166 129 166 129 200 103.5 c 128,-1,42
 234 78 234 78 283 78 c 2,43,-1
 2041 78 l 2,44,45
 2074 78 2074 78 2096.5 100.5 c 128,-1,46
 2119 123 2119 123 2119 156 c 1,47,-1
 2178 156 l 1,48,49
 2178 117 2178 117 2162 86 c 128,-1,50
 2146 55 2146 55 2119 39 c 1,51,52
 2146 23 2146 23 2162 -3 c 128,-1,53
 2178 -29 2178 -29 2178 -59 c 1,0,-1
361 488 m 0,54,55
 418 488 418 488 458 525 c 128,-1,56
 498 562 498 562 498 615 c 0,57,58
 498 652 498 652 469.5 677.5 c 128,-1,59
 441 703 441 703 400 703 c 1,60,-1
 400 762 l 1,61,62
 453 762 453 762 490 746 c 128,-1,63
 527 730 527 730 537 703 c 1,64,65
 549 727 549 727 569.5 742.5 c 128,-1,66
 590 758 590 758 615 762 c 1,67,68
 582 791 582 791 523.5 805.5 c 128,-1,69
 465 820 465 820 391 820 c 0,70,71
 307 820 307 820 246.5 768.5 c 128,-1,72
 186 717 186 717 186 645 c 0,73,74
 186 580 186 580 237.5 534 c 128,-1,75
 289 488 289 488 361 488 c 0,54,55
EndSplineSet
EndChar

StartChar: tm_uu
Encoding: 2954 2954 55
Width: 2242
GlyphClass: 2
Flags: W
LayerCount: 2
Fore
SplineSet
2178 -59 m 1,0,-1
 2119 -59 l 1,1,2
 2119 -35 2119 -35 2096.5 -17.5 c 128,-1,3
 2074 0 2074 0 2041 0 c 2,4,-1
 283 0 l 2,5,6
 203 0 203 0 145.5 49 c 128,-1,7
 88 98 88 98 88 166 c 256,8,9
 88 234 88 234 150.5 283 c 128,-1,10
 213 332 213 332 303 332 c 2,11,-1
 479 332 l 2,12,13
 568 332 568 332 630.5 403.5 c 128,-1,14
 693 475 693 475 693 576 c 0,15,16
 693 615 693 615 685.5 645.5 c 128,-1,17
 678 676 678 676 664 693 c 1,18,19
 631 703 631 703 603.5 681.5 c 128,-1,20
 576 660 576 660 576 625 c 0,21,22
 576 535 576 535 513.5 472.5 c 128,-1,23
 451 410 451 410 361 410 c 0,24,25
 256 410 256 410 181.5 478.5 c 128,-1,26
 107 547 107 547 107 645 c 0,27,28
 107 760 107 760 184.5 829 c 128,-1,29
 262 898 262 898 391 898 c 0,30,31
 562 898 562 898 666.5 810.5 c 128,-1,32
 771 723 771 723 771 576 c 0,33,34
 771 443 771 443 685.5 348.5 c 128,-1,35
 600 254 600 254 479 254 c 2,36,-1
 303 254 l 2,37,38
 246 254 246 254 206 228.5 c 128,-1,39
 166 203 166 203 166 166 c 256,40,41
 166 129 166 129 200 103.5 c 128,-1,42
 234 78 234 78 283 78 c 2,43,-1
 2041 78 l 2,44,45
 2074 78 2074 78 2096.5 100.5 c 128,-1,46
 2119 123 2119 123 2119 156 c 1,47,-1
 2178 156 l 1,48,49
 2178 117 2178 117 2162 86 c 128,-1,50
 2146 55 2146 55 2119 39 c 1,51,52
 2146 23 2146 23 2162 -3 c 128,-1,53
 2178 -29 2178 -29 2178 -59 c 1,0,-1
361 488 m 0,54,55
 418 488 418 488 458 525 c 128,-1,56
 498 562 498 562 498 615 c 0,57,58
 498 652 498 652 469.5 677.5 c 128,-1,59
 441 703 441 703 400 703 c 1,60,-1
 400 762 l 1,61,62
 453 762 453 762 490 746 c 128,-1,63
 527 730 527 730 537 703 c 1,64,65
 549 727 549 727 569.5 742.5 c 128,-1,66
 590 758 590 758 615 762 c 1,67,68
 582 791 582 791 523.5 805.5 c 128,-1,69
 465 820 465 820 391 820 c 0,70,71
 307 820 307 820 246.5 768.5 c 128,-1,72
 186 717 186 717 186 645 c 0,73,74
 186 580 186 580 237.5 534 c 128,-1,75
 289 488 289 488 361 488 c 0,54,55
2002 137 m 1,76,-1
 1963 137 l 2,77,78
 1924 137 1924 137 1892.5 152.5 c 128,-1,79
 1861 168 1861 168 1846 195 c 1,80,81
 1830 168 1830 168 1799 152.5 c 128,-1,82
 1768 137 1768 137 1729 137 c 2,83,-1
 1689 137 l 1,84,-1
 1689 195 l 1,85,-1
 1729 195 l 2,86,87
 1762 195 1762 195 1784.5 217.5 c 128,-1,88
 1807 240 1807 240 1807 273 c 2,89,-1
 1807 703 l 1,90,-1
 1514 703 l 1,91,-1
 1514 273 l 2,92,93
 1514 240 1514 240 1536.5 217.5 c 128,-1,94
 1559 195 1559 195 1592 195 c 2,95,-1
 1631 195 l 1,96,-1
 1631 137 l 1,97,-1
 1592 137 l 2,98,99
 1553 137 1553 137 1521.5 152.5 c 128,-1,100
 1490 168 1490 168 1475 195 c 1,101,102
 1459 168 1459 168 1427.5 152.5 c 128,-1,103
 1396 137 1396 137 1357 137 c 2,104,-1
 1318 137 l 1,105,-1
 1318 195 l 1,106,-1
 1357 195 l 2,107,108
 1391 195 1391 195 1413.5 217.5 c 128,-1,109
 1436 240 1436 240 1436 273 c 2,110,-1
 1436 547 l 2,111,112
 1436 611 1436 611 1361.5 657 c 128,-1,113
 1287 703 1287 703 1182 703 c 0,114,115
 1092 703 1092 703 1020.5 648.5 c 128,-1,116
 949 594 949 594 928 508 c 1,117,118
 961 527 961 527 998 537 c 128,-1,119
 1035 547 1035 547 1074 547 c 0,120,121
 1168 547 1168 547 1233.5 486.5 c 128,-1,122
 1299 426 1299 426 1299 342 c 256,123,124
 1299 258 1299 258 1238.5 197.5 c 128,-1,125
 1178 137 1178 137 1094 137 c 0,126,127
 984 137 984 137 907 217 c 128,-1,128
 830 297 830 297 830 410 c 0,129,130
 830 564 830 564 932.5 672.5 c 128,-1,131
 1035 781 1035 781 1182 781 c 0,132,133
 1260 781 1260 781 1325.5 760.5 c 128,-1,134
 1391 740 1391 740 1436 703 c 1,135,-1
 1436 781 l 1,136,-1
 2041 781 l 2,137,138
 2082 781 2082 781 2110.5 803.5 c 128,-1,139
 2139 826 2139 826 2139 859 c 1,140,-1
 2197 859 l 1,141,142
 2197 820 2197 820 2175.5 788 c 128,-1,143
 2154 756 2154 756 2119 742 c 1,144,145
 2154 729 2154 729 2175.5 696.5 c 128,-1,146
 2197 664 2197 664 2197 625 c 1,147,-1
 2139 625 l 1,148,149
 2133 658 2133 658 2105.5 680.5 c 128,-1,150
 2078 703 2078 703 2041 703 c 2,151,-1
 1885 703 l 1,152,-1
 1885 273 l 2,153,154
 1885 240 1885 240 1907.5 217.5 c 128,-1,155
 1930 195 1930 195 1963 195 c 2,156,-1
 2002 195 l 1,157,-1
 2002 137 l 1,76,-1
1094 215 m 0,158,159
 1146 215 1146 215 1183.5 252 c 128,-1,160
 1221 289 1221 289 1221 342 c 256,161,162
 1221 395 1221 395 1178 432 c 128,-1,163
 1135 469 1135 469 1074 469 c 0,164,165
 1029 469 1029 469 998 454 c 128,-1,166
 967 439 967 439 967 420 c 0,167,168
 967 406 967 406 977.5 392.5 c 128,-1,169
 988 379 988 379 1006 371 c 1,170,-1
 967 332 l 1,171,172
 947 338 947 338 932.5 353.5 c 128,-1,173
 918 369 918 369 908 391 c 1,174,175
 908 318 908 318 963 266.5 c 128,-1,176
 1018 215 1018 215 1094 215 c 0,158,159
EndSplineSet
EndChar

StartChar: tm_e
Encoding: 2958 2958 56
Width: 1434
GlyphClass: 2
Flags: W
LayerCount: 2
Fore
SplineSet
1117 0 m 1,0,-1
 1078 0 l 2,1,2
 1039 0 1039 0 1008 15.5 c 128,-1,3
 977 31 977 31 961 59 c 1,4,5
 945 31 945 31 914 15.5 c 128,-1,6
 883 0 883 0 844 0 c 2,7,-1
 805 0 l 1,8,-1
 805 59 l 1,9,-1
 844 59 l 2,10,11
 877 59 877 59 899.5 81.5 c 128,-1,12
 922 104 922 104 922 137 c 2,13,-1
 922 703 l 1,14,-1
 473 703 l 2,15,16
 344 703 344 703 252 611.5 c 128,-1,17
 160 520 160 520 160 391 c 0,18,19
 160 324 160 324 175.5 273.5 c 128,-1,20
 191 223 191 223 219 195 c 1,21,22
 244 213 244 213 258.5 238.5 c 128,-1,23
 273 264 273 264 277 293 c 0,24,25
 285 377 285 377 347.5 432.5 c 128,-1,26
 410 488 410 488 492 488 c 0,27,28
 598 488 598 488 672 422.5 c 128,-1,29
 746 357 746 357 746 264 c 0,30,31
 746 154 746 154 660 77 c 128,-1,32
 574 0 574 0 453 0 c 0,33,34
 299 0 299 0 190.5 114.5 c 128,-1,35
 82 229 82 229 82 391 c 256,36,37
 82 553 82 553 196.5 667 c 128,-1,38
 311 781 311 781 473 781 c 2,39,-1
 1273 781 l 2,40,41
 1301 781 1301 781 1323.5 803.5 c 128,-1,42
 1346 826 1346 826 1352 859 c 1,43,-1
 1410 859 l 1,44,45
 1410 816 1410 816 1394.5 784 c 128,-1,46
 1379 752 1379 752 1352 742 c 1,47,48
 1379 730 1379 730 1394.5 698 c 128,-1,49
 1410 666 1410 666 1410 625 c 1,50,-1
 1342 625 l 1,51,52
 1342 658 1342 658 1321.5 680.5 c 128,-1,53
 1301 703 1301 703 1273 703 c 2,54,-1
 1000 703 l 1,55,-1
 1000 137 l 2,56,57
 1000 104 1000 104 1022.5 81.5 c 128,-1,58
 1045 59 1045 59 1078 59 c 2,59,-1
 1117 59 l 1,60,-1
 1117 0 l 1,0,-1
453 78 m 0,61,62
 543 78 543 78 605.5 132.5 c 128,-1,63
 668 187 668 187 668 264 c 0,64,65
 668 324 668 324 616 367 c 128,-1,66
 564 410 564 410 492 410 c 0,67,68
 432 410 432 410 389 376 c 128,-1,69
 346 342 346 342 346 293 c 0,70,71
 346 252 346 252 371 223.5 c 128,-1,72
 396 195 396 195 434 195 c 2,73,-1
 473 195 l 1,74,-1
 473 137 l 1,75,-1
 434 137 l 2,76,77
 391 137 391 137 356.5 152.5 c 128,-1,78
 322 168 322 168 307 195 c 1,79,80
 299 180 299 180 286 167 c 128,-1,81
 273 154 273 154 258 146 c 1,82,83
 285 113 285 113 336 95.5 c 128,-1,84
 387 78 387 78 453 78 c 0,61,62
EndSplineSet
EndChar

StartChar: tm_ee
Encoding: 2959 2959 57
Width: 1437
GlyphClass: 2
Flags: W
LayerCount: 2
Fore
SplineSet
477 0 m 0,0,1
 307 0 307 0 196.5 108.5 c 128,-1,2
 86 217 86 217 86 381 c 0,3,4
 86 562 86 562 198.5 671.5 c 128,-1,5
 311 781 311 781 496 781 c 2,6,-1
 1277 781 l 2,7,8
 1311 781 1311 781 1333 803.5 c 128,-1,9
 1355 826 1355 826 1355 859 c 1,10,-1
 1414 859 l 1,11,12
 1414 811 1414 811 1391.5 776.5 c 128,-1,13
 1369 742 1369 742 1336 742 c 1,14,15
 1369 742 1369 742 1391.5 708 c 128,-1,16
 1414 674 1414 674 1414 625 c 1,17,-1
 1355 625 l 1,18,19
 1355 658 1355 658 1333 680.5 c 128,-1,20
 1311 703 1311 703 1277 703 c 2,21,-1
 1004 703 l 1,22,-1
 1004 88 l 2,23,24
 1004 33 1004 33 971.5 -13 c 128,-1,25
 939 -59 939 -59 887 -78 c 1,26,-1
 760 -146 l 2,27,28
 717 -172 717 -172 694.5 -191.5 c 128,-1,29
 672 -211 672 -211 672 -225 c 0,30,31
 672 -250 672 -250 677 -269.5 c 128,-1,32
 682 -289 682 -289 691 -303 c 1,33,-1
 633 -332 l 1,34,35
 613 -305 613 -305 603.5 -276.5 c 128,-1,36
 594 -248 594 -248 594 -225 c 0,37,38
 594 -191 594 -191 620 -157 c 128,-1,39
 646 -123 646 -123 691 -98 c 2,40,-1
 838 -29 l 2,41,42
 879 -12 879 -12 902.5 20.5 c 128,-1,43
 926 53 926 53 926 88 c 2,44,-1
 926 703 l 1,45,-1
 496 703 l 2,46,47
 346 703 346 703 255 615 c 128,-1,48
 164 527 164 527 164 381 c 0,49,50
 164 324 164 324 178.5 276.5 c 128,-1,51
 193 229 193 229 223 195 c 1,52,53
 248 199 248 199 264.5 224.5 c 128,-1,54
 281 250 281 250 281 283 c 0,55,56
 281 367 281 367 349.5 427.5 c 128,-1,57
 418 488 418 488 516 488 c 0,58,59
 613 488 613 488 681.5 422.5 c 128,-1,60
 750 357 750 357 750 264 c 0,61,62
 750 154 750 154 670 77 c 128,-1,63
 590 0 590 0 477 0 c 0,0,1
477 78 m 0,64,65
 557 78 557 78 614.5 132.5 c 128,-1,66
 672 187 672 187 672 264 c 0,67,68
 672 324 672 324 626 367 c 128,-1,69
 580 410 580 410 516 410 c 0,70,71
 451 410 451 410 405 373 c 128,-1,72
 359 336 359 336 359 283 c 0,73,74
 359 246 359 246 381.5 220.5 c 128,-1,75
 404 195 404 195 437 195 c 2,76,-1
 477 195 l 1,77,-1
 477 137 l 1,78,-1
 437 137 l 2,79,80
 404 137 404 137 373 155.5 c 128,-1,81
 342 174 342 174 320 205 c 1,82,83
 312 186 312 186 296.5 170 c 128,-1,84
 281 154 281 154 262 146 c 1,85,86
 289 113 289 113 345.5 95.5 c 128,-1,87
 402 78 402 78 477 78 c 0,64,65
EndSplineSet
EndChar

StartChar: tm_ai
Encoding: 2960 2960 58
Width: 1352
GlyphClass: 2
Flags: W
LayerCount: 2
Fore
SplineSet
943 -586 m 0,0,1
 852 -586 852 -586 776.5 -552 c 128,-1,2
 701 -518 701 -518 660 -459 c 1,3,4
 619 -518 619 -518 547 -552 c 128,-1,5
 475 -586 475 -586 387 -586 c 0,6,7
 258 -586 258 -586 166 -497 c 128,-1,8
 74 -408 74 -408 74 -283 c 0,9,10
 74 -150 74 -150 179.5 -55.5 c 128,-1,11
 285 39 285 39 436 39 c 2,12,-1
 982 39 l 2,13,14
 1051 39 1051 39 1099.5 88 c 128,-1,15
 1148 137 1148 137 1148 205 c 2,16,-1
 1148 547 l 2,17,18
 1148 611 1148 611 1093.5 657 c 128,-1,19
 1039 703 1039 703 963 703 c 0,20,21
 895 703 895 703 846 663 c 128,-1,22
 797 623 797 623 797 566 c 2,23,-1
 797 254 l 2,24,25
 797 221 797 221 819.5 198.5 c 128,-1,26
 842 176 842 176 875 176 c 2,27,-1
 914 176 l 1,28,-1
 914 117 l 1,29,-1
 875 117 l 2,30,31
 834 117 834 117 802 132.5 c 128,-1,32
 770 148 770 148 758 176 c 1,33,34
 746 148 746 148 714 132.5 c 128,-1,35
 682 117 682 117 641 117 c 2,36,-1
 602 117 l 1,37,-1
 602 176 l 1,38,-1
 641 176 l 2,39,40
 674 176 674 176 696.5 198.5 c 128,-1,41
 719 221 719 221 719 254 c 2,42,-1
 719 479 l 2,43,44
 719 572 719 572 644.5 637.5 c 128,-1,45
 570 703 570 703 465 703 c 0,46,47
 352 703 352 703 266 636.5 c 128,-1,48
 180 570 180 570 162 469 c 1,49,50
 191 496 191 496 237 511.5 c 128,-1,51
 283 527 283 527 338 527 c 0,52,53
 422 527 422 527 482.5 469.5 c 128,-1,54
 543 412 543 412 543 332 c 0,55,56
 543 242 543 242 482.5 179.5 c 128,-1,57
 422 117 422 117 338 117 c 0,58,59
 229 117 229 117 151.5 200 c 128,-1,60
 74 283 74 283 74 400 c 0,61,62
 74 559 74 559 188.5 670 c 128,-1,63
 303 781 303 781 465 781 c 0,64,65
 551 781 551 781 621 744 c 128,-1,66
 691 707 691 707 729 645 c 1,67,68
 760 707 760 707 823.5 744 c 128,-1,69
 887 781 887 781 963 781 c 0,70,71
 1072 781 1072 781 1149.5 713 c 128,-1,72
 1227 645 1227 645 1227 547 c 2,73,-1
 1227 205 l 2,74,75
 1227 104 1227 104 1155.5 32.5 c 128,-1,76
 1084 -39 1084 -39 982 -39 c 2,77,-1
 436 -39 l 2,78,79
 318 -39 318 -39 235 -110.5 c 128,-1,80
 152 -182 152 -182 152 -283 c 0,81,82
 152 -377 152 -377 220.5 -442.5 c 128,-1,83
 289 -508 289 -508 387 -508 c 0,84,85
 484 -508 484 -508 552.5 -456 c 128,-1,86
 621 -404 621 -404 621 -332 c 0,87,88
 621 -299 621 -299 603.5 -276.5 c 128,-1,89
 586 -254 586 -254 562 -254 c 2,90,-1
 523 -254 l 1,91,-1
 523 -195 l 1,92,-1
 562 -195 l 2,93,94
 592 -195 592 -195 618.5 -211 c 128,-1,95
 645 -227 645 -227 660 -254 c 1,96,97
 676 -227 676 -227 702.5 -211 c 128,-1,98
 729 -195 729 -195 758 -195 c 2,99,-1
 797 -195 l 1,100,-1
 797 -254 l 1,101,-1
 758 -254 l 2,102,103
 734 -254 734 -254 716.5 -276.5 c 128,-1,104
 699 -299 699 -299 699 -332 c 0,105,106
 699 -404 699 -404 770.5 -456 c 128,-1,107
 842 -508 842 -508 943 -508 c 0,108,109
 1027 -508 1027 -508 1087.5 -456 c 128,-1,110
 1148 -404 1148 -404 1148 -332 c 0,111,112
 1148 -275 1148 -275 1108 -235 c 128,-1,113
 1068 -195 1068 -195 1012 -195 c 2,114,-1
 953 -195 l 1,115,-1
 953 -117 l 1,116,-1
 1012 -117 l 2,117,118
 1102 -117 1102 -117 1164.5 -179.5 c 128,-1,119
 1227 -242 1227 -242 1227 -332 c 0,120,121
 1227 -438 1227 -438 1144 -512 c 128,-1,122
 1061 -586 1061 -586 943 -586 c 0,0,1
338 195 m 0,123,124
 391 195 391 195 428 235 c 128,-1,125
 465 275 465 275 465 332 c 0,126,127
 465 385 465 385 422 422 c 128,-1,128
 379 459 379 459 318 459 c 0,129,130
 273 459 273 459 242 438.5 c 128,-1,131
 211 418 211 418 211 391 c 0,132,133
 211 379 211 379 221.5 368 c 128,-1,134
 232 357 232 357 250 352 c 1,135,-1
 221 312 l 1,136,137
 197 322 197 322 178.5 337 c 128,-1,138
 160 352 160 352 152 371 c 1,139,140
 160 297 160 297 214 246 c 128,-1,141
 268 195 268 195 338 195 c 0,123,124
EndSplineSet
EndChar

StartChar: tm_o
Encoding: 2962 2962 59
Width: 1426
GlyphClass: 2
Flags: W
LayerCount: 2
Fore
SplineSet
504 -586 m 0,0,1
 332 -586 332 -586 227.5 -519.5 c 128,-1,2
 123 -453 123 -453 123 -342 c 0,3,4
 123 -266 123 -266 175 -211 c 128,-1,5
 227 -156 227 -156 299 -156 c 0,6,7
 340 -156 340 -156 368 -133.5 c 128,-1,8
 396 -111 396 -111 396 -78 c 1,9,-1
 455 -78 l 1,10,11
 455 -117 455 -117 439.5 -148.5 c 128,-1,12
 424 -180 424 -180 396 -195 c 1,13,14
 424 -213 424 -213 439.5 -244 c 128,-1,15
 455 -275 455 -275 455 -313 c 1,16,-1
 396 -313 l 1,17,18
 396 -279 396 -279 368 -256.5 c 128,-1,19
 340 -234 340 -234 299 -234 c 256,20,21
 258 -234 258 -234 229.5 -265.5 c 128,-1,22
 201 -297 201 -297 201 -342 c 0,23,24
 201 -418 201 -418 284 -463 c 128,-1,25
 367 -508 367 -508 504 -508 c 0,26,27
 625 -508 625 -508 732.5 -459 c 128,-1,28
 840 -410 840 -410 914 -322 c 0,29,30
 949 -281 949 -281 985 -249 c 128,-1,31
 1021 -217 1021 -217 1061 -195 c 1,32,33
 963 -160 963 -160 904.5 -85 c 128,-1,34
 846 -10 846 -10 846 78 c 2,35,-1
 846 186 l 2,36,37
 846 311 846 311 917 399.5 c 128,-1,38
 988 488 988 488 1090 488 c 2,39,-1
 1139 488 l 1,40,-1
 1139 410 l 1,41,-1
 1090 410 l 2,42,43
 1021 410 1021 410 972.5 344.5 c 128,-1,44
 924 279 924 279 924 186 c 2,45,-1
 924 98 l 1,46,47
 951 88 951 88 982.5 83 c 128,-1,48
 1014 78 1014 78 1051 78 c 0,49,50
 1145 78 1145 78 1200.5 163 c 128,-1,51
 1256 248 1256 248 1256 391 c 0,52,53
 1256 541 1256 541 1149.5 632 c 128,-1,54
 1043 723 1043 723 865 723 c 2,55,-1
 572 723 l 2,56,57
 387 723 387 723 274.5 627 c 128,-1,58
 162 531 162 531 162 371 c 0,59,60
 162 311 162 311 177.5 265 c 128,-1,61
 193 219 193 219 221 195 c 1,62,63
 248 211 248 211 263.5 234.5 c 128,-1,64
 279 258 279 258 279 283 c 0,65,66
 279 367 279 367 347.5 427.5 c 128,-1,67
 416 488 416 488 514 488 c 0,68,69
 611 488 611 488 679.5 422.5 c 128,-1,70
 748 357 748 357 748 264 c 0,71,72
 748 154 748 154 659 77 c 128,-1,73
 570 0 570 0 445 0 c 0,74,75
 295 0 295 0 189.5 108.5 c 128,-1,76
 84 217 84 217 84 371 c 0,77,78
 84 566 84 566 218 683.5 c 128,-1,79
 352 801 352 801 572 801 c 2,80,-1
 865 801 l 2,81,82
 1078 801 1078 801 1206 688.5 c 128,-1,83
 1334 576 1334 576 1334 391 c 0,84,85
 1334 213 1334 213 1257 106.5 c 128,-1,86
 1180 0 1180 0 1051 0 c 0,87,88
 1025 0 1025 0 998 3 c 128,-1,89
 971 6 971 6 943 10 c 1,90,91
 973 -49 973 -49 1033.5 -83 c 128,-1,92
 1094 -117 1094 -117 1168 -117 c 0,93,94
 1209 -117 1209 -117 1237.5 -94.5 c 128,-1,95
 1266 -72 1266 -72 1266 -39 c 1,96,-1
 1334 -39 l 1,97,98
 1334 -78 1334 -78 1318.5 -109.5 c 128,-1,99
 1303 -141 1303 -141 1275 -156 c 1,100,101
 1303 -172 1303 -172 1318.5 -203 c 128,-1,102
 1334 -234 1334 -234 1334 -273 c 1,103,-1
 1275 -273 l 1,104,105
 1275 -240 1275 -240 1257.5 -217.5 c 128,-1,106
 1240 -195 1240 -195 1217 -195 c 0,107,108
 1178 -195 1178 -195 1134 -220.5 c 128,-1,109
 1090 -246 1090 -246 1051 -293 c 0,110,111
 934 -432 934 -432 790 -509 c 128,-1,112
 646 -586 646 -586 504 -586 c 0,0,1
445 78 m 0,113,114
 539 78 539 78 604.5 132.5 c 128,-1,115
 670 187 670 187 670 264 c 0,116,117
 670 324 670 324 624 367 c 128,-1,118
 578 410 578 410 514 410 c 0,119,120
 449 410 449 410 403 373 c 128,-1,121
 357 336 357 336 357 283 c 0,122,123
 357 246 357 246 377.5 220.5 c 128,-1,124
 398 195 398 195 426 195 c 2,125,-1
 475 195 l 1,126,-1
 475 137 l 1,127,-1
 426 137 l 2,128,129
 398 137 398 137 370 152.5 c 128,-1,130
 342 168 342 168 318 195 c 1,131,132
 311 176 311 176 292 163 c 128,-1,133
 273 150 273 150 250 146 c 1,134,135
 277 113 277 113 328 95.5 c 128,-1,136
 379 78 379 78 445 78 c 0,113,114
EndSplineSet
EndChar

StartChar: tm_oo
Encoding: 2963 2963 60
Width: 1426
GlyphClass: 2
Flags: W
LayerCount: 2
Fore
SplineSet
514 -586 m 0,0,1
 352 -586 352 -586 237.5 -509 c 128,-1,2
 123 -432 123 -432 123 -322 c 0,3,4
 123 -229 123 -229 197 -163.5 c 128,-1,5
 271 -98 271 -98 377 -98 c 0,6,7
 475 -98 475 -98 543 -155.5 c 128,-1,8
 611 -213 611 -213 611 -293 c 0,9,10
 611 -338 611 -338 589.5 -375 c 128,-1,11
 568 -412 568 -412 533 -430 c 0,12,13
 486 -453 486 -453 461 -472.5 c 128,-1,14
 436 -492 436 -492 436 -508 c 1,15,-1
 514 -508 l 2,16,17
 641 -508 641 -508 753 -457 c 128,-1,18
 865 -406 865 -406 943 -313 c 0,19,20
 982 -266 982 -266 1012.5 -235.5 c 128,-1,21
 1043 -205 1043 -205 1061 -195 c 1,22,23
 963 -146 963 -146 904.5 -67 c 128,-1,24
 846 12 846 12 846 98 c 2,25,-1
 846 186 l 2,26,27
 846 311 846 311 917 399.5 c 128,-1,28
 988 488 988 488 1090 488 c 2,29,-1
 1139 488 l 1,30,-1
 1139 410 l 1,31,-1
 1090 410 l 2,32,33
 1021 410 1021 410 972.5 344.5 c 128,-1,34
 924 279 924 279 924 186 c 2,35,-1
 924 98 l 1,36,37
 951 88 951 88 982.5 83 c 128,-1,38
 1014 78 1014 78 1051 78 c 0,39,40
 1145 78 1145 78 1200.5 163 c 128,-1,41
 1256 248 1256 248 1256 391 c 0,42,43
 1256 541 1256 541 1149.5 632 c 128,-1,44
 1043 723 1043 723 865 723 c 2,45,-1
 572 723 l 2,46,47
 387 723 387 723 274.5 632 c 128,-1,48
 162 541 162 541 162 391 c 0,49,50
 162 320 162 320 177.5 269.5 c 128,-1,51
 193 219 193 219 221 195 c 1,52,53
 248 211 248 211 263.5 234.5 c 128,-1,54
 279 258 279 258 279 283 c 0,55,56
 279 367 279 367 347.5 427.5 c 128,-1,57
 416 488 416 488 514 488 c 0,58,59
 611 488 611 488 679.5 422.5 c 128,-1,60
 748 357 748 357 748 264 c 0,61,62
 748 154 748 154 659 77 c 128,-1,63
 570 0 570 0 445 0 c 0,64,65
 295 0 295 0 189.5 114.5 c 128,-1,66
 84 229 84 229 84 391 c 0,67,68
 84 576 84 576 218 688.5 c 128,-1,69
 352 801 352 801 572 801 c 2,70,-1
 865 801 l 2,71,72
 1078 801 1078 801 1206 688.5 c 128,-1,73
 1334 576 1334 576 1334 391 c 0,74,75
 1334 213 1334 213 1257 106.5 c 128,-1,76
 1180 0 1180 0 1051 0 c 0,77,78
 1025 0 1025 0 998 3 c 128,-1,79
 971 6 971 6 943 10 c 1,80,81
 973 -49 973 -49 1033.5 -83 c 128,-1,82
 1094 -117 1094 -117 1168 -117 c 0,83,84
 1209 -117 1209 -117 1237.5 -94.5 c 128,-1,85
 1266 -72 1266 -72 1266 -39 c 1,86,-1
 1334 -39 l 1,87,88
 1334 -78 1334 -78 1318.5 -109.5 c 128,-1,89
 1303 -141 1303 -141 1275 -156 c 1,90,91
 1303 -172 1303 -172 1318.5 -203 c 128,-1,92
 1334 -234 1334 -234 1334 -273 c 1,93,-1
 1275 -273 l 1,94,95
 1275 -240 1275 -240 1257.5 -217.5 c 128,-1,96
 1240 -195 1240 -195 1217 -195 c 0,97,98
 1178 -195 1178 -195 1134 -220.5 c 128,-1,99
 1090 -246 1090 -246 1051 -293 c 0,100,101
 934 -432 934 -432 793 -509 c 128,-1,102
 652 -586 652 -586 514 -586 c 0,0,1
377 -508 m 1,103,104
 389 -475 389 -475 404.5 -453.5 c 128,-1,105
 420 -432 420 -432 436 -430 c 1,106,107
 408 -420 408 -420 392.5 -387.5 c 128,-1,108
 377 -355 377 -355 377 -313 c 1,109,-1
 436 -313 l 1,110,111
 436 -336 436 -336 450.5 -353.5 c 128,-1,112
 465 -371 465 -371 484 -371 c 0,113,114
 504 -371 504 -371 518.5 -348.5 c 128,-1,115
 533 -326 533 -326 533 -293 c 0,116,117
 533 -244 533 -244 487 -210 c 128,-1,118
 441 -176 441 -176 377 -176 c 0,119,120
 305 -176 305 -176 253 -219 c 128,-1,121
 201 -262 201 -262 201 -322 c 0,122,123
 201 -377 201 -377 249 -428 c 128,-1,124
 297 -479 297 -479 377 -508 c 1,103,104
445 78 m 0,125,126
 539 78 539 78 604.5 132.5 c 128,-1,127
 670 187 670 187 670 264 c 0,128,129
 670 324 670 324 624 367 c 128,-1,130
 578 410 578 410 514 410 c 0,131,132
 449 410 449 410 403 373 c 128,-1,133
 357 336 357 336 357 283 c 0,134,135
 357 246 357 246 377.5 220.5 c 128,-1,136
 398 195 398 195 426 195 c 2,137,-1
 475 195 l 1,138,-1
 475 137 l 1,139,-1
 426 137 l 2,140,141
 395 137 395 137 365.5 152.5 c 128,-1,142
 336 168 336 168 318 195 c 1,143,144
 311 176 311 176 292 163 c 128,-1,145
 273 150 273 150 250 146 c 1,146,147
 277 113 277 113 328 95.5 c 128,-1,148
 379 78 379 78 445 78 c 0,125,126
EndSplineSet
EndChar

StartChar: tm_ka
Encoding: 2965 2965 62
Width: 1164
GlyphClass: 2
Flags: W
LayerCount: 2
Fore
SplineSet
359 0 m 0,0,1
 238 0 238 0 152 80 c 128,-1,2
 66 160 66 160 66 273 c 0,3,4
 66 371 66 371 116 442.5 c 128,-1,5
 166 514 166 514 242 527 c 1,6,-1
 242 664 l 2,7,8
 242 713 242 713 276.5 747 c 128,-1,9
 311 781 311 781 359 781 c 2,10,-1
 848 781 l 2,11,12
 885 781 885 781 910.5 803.5 c 128,-1,13
 936 826 936 826 936 859 c 1,14,-1
 1004 859 l 1,15,16
 1004 820 1004 820 982.5 788 c 128,-1,17
 961 756 961 756 926 742 c 1,18,19
 961 729 961 729 982.5 696.5 c 128,-1,20
 1004 664 1004 664 1004 625 c 1,21,-1
 936 625 l 1,22,23
 936 658 936 658 910.5 680.5 c 128,-1,24
 885 703 885 703 848 703 c 2,25,-1
 633 703 l 1,26,-1
 633 527 l 1,27,-1
 848 527 l 2,28,29
 949 527 949 527 1020.5 450 c 128,-1,30
 1092 373 1092 373 1092 264 c 0,31,32
 1092 154 1092 154 1017.5 77 c 128,-1,33
 943 0 943 0 838 0 c 0,34,35
 789 0 789 0 755 -22.5 c 128,-1,36
 721 -45 721 -45 721 -78 c 1,37,-1
 662 -78 l 1,38,39
 662 -37 662 -37 680.5 -5 c 128,-1,40
 699 27 699 27 730 39 c 1,41,42
 699 51 699 51 680.5 83 c 128,-1,43
 662 115 662 115 662 156 c 1,44,-1
 721 156 l 1,45,46
 721 123 721 123 755 100.5 c 128,-1,47
 789 78 789 78 838 78 c 0,48,49
 910 78 910 78 962 132.5 c 128,-1,50
 1014 187 1014 187 1014 264 c 0,51,52
 1014 340 1014 340 965 394.5 c 128,-1,53
 916 449 916 449 848 449 c 2,54,-1
 633 449 l 1,55,-1
 633 264 l 2,56,57
 633 154 633 154 553 77 c 128,-1,58
 473 0 473 0 359 0 c 0,0,1
359 78 m 0,59,60
 439 78 439 78 497 132.5 c 128,-1,61
 555 187 555 187 555 264 c 2,62,-1
 555 449 l 1,63,-1
 281 449 l 2,64,65
 225 449 225 449 185 397.5 c 128,-1,66
 145 346 145 346 145 273 c 0,67,68
 145 193 145 193 207.5 135.5 c 128,-1,69
 270 78 270 78 359 78 c 0,59,60
555 527 m 1,70,-1
 555 703 l 1,71,-1
 359 703 l 2,72,73
 344 703 344 703 332 691.5 c 128,-1,74
 320 680 320 680 320 664 c 2,75,-1
 320 527 l 1,76,-1
 555 527 l 1,70,-1
EndSplineSet
EndChar

StartChar: tm_nga
Encoding: 2969 2969 63
Width: 1629
GlyphClass: 2
Flags: W
LayerCount: 2
Fore
SplineSet
680 0 m 2,0,1
 646 0 646 0 624 -22.5 c 128,-1,2
 602 -45 602 -45 602 -78 c 1,3,-1
 543 -78 l 1,4,-1
 543 -59 l 2,5,6
 543 -23 543 -23 558.5 3 c 128,-1,7
 574 29 574 29 602 39 c 1,8,9
 574 49 574 49 558.5 81 c 128,-1,10
 543 113 543 113 543 156 c 1,11,-1
 602 156 l 1,12,13
 602 123 602 123 624 100.5 c 128,-1,14
 646 78 646 78 680 78 c 2,15,-1
 807 78 l 2,16,17
 883 78 883 78 937.5 146.5 c 128,-1,18
 992 215 992 215 992 312 c 0,19,20
 992 377 992 377 949 423 c 128,-1,21
 906 469 906 469 846 469 c 0,22,23
 752 469 752 469 686.5 417 c 128,-1,24
 621 365 621 365 621 293 c 1,25,-1
 543 293 l 1,26,-1
 543 703 l 1,27,-1
 289 703 l 2,28,29
 266 703 266 703 248 691.5 c 128,-1,30
 230 680 230 680 230 664 c 2,31,-1
 230 137 l 2,32,33
 230 104 230 104 252.5 81.5 c 128,-1,34
 275 59 275 59 309 59 c 1,35,-1
 309 0 l 1,36,37
 270 0 270 0 238.5 15.5 c 128,-1,38
 207 31 207 31 191 59 c 1,39,40
 176 31 176 31 144.5 15.5 c 128,-1,41
 113 0 113 0 74 0 c 1,42,-1
 74 59 l 1,43,44
 107 59 107 59 129.5 81.5 c 128,-1,45
 152 104 152 104 152 137 c 2,46,-1
 152 664 l 2,47,48
 152 713 152 713 192 747 c 128,-1,49
 232 781 232 781 289 781 c 2,50,-1
 895 781 l 2,51,52
 928 781 928 781 950.5 803.5 c 128,-1,53
 973 826 973 826 973 859 c 1,54,-1
 1031 859 l 1,55,56
 1031 820 1031 820 1015.5 789 c 128,-1,57
 1000 758 1000 758 973 742 c 1,58,59
 1000 727 1000 727 1015.5 695.5 c 128,-1,60
 1031 664 1031 664 1031 625 c 1,61,-1
 973 625 l 1,62,63
 973 658 973 658 950.5 680.5 c 128,-1,64
 928 703 928 703 895 703 c 2,65,-1
 621 703 l 1,66,-1
 621 449 l 1,67,68
 660 496 660 496 718.5 521.5 c 128,-1,69
 777 547 777 547 846 547 c 0,70,71
 939 547 939 547 1004.5 478.5 c 128,-1,72
 1070 410 1070 410 1070 312 c 0,73,74
 1070 244 1070 244 1042 182.5 c 128,-1,75
 1014 121 1014 121 963 78 c 1,76,-1
 1275 78 l 2,77,78
 1328 78 1328 78 1365 124 c 128,-1,79
 1402 170 1402 170 1402 234 c 2,80,-1
 1402 645 l 2,81,82
 1402 678 1402 678 1379.5 700.5 c 128,-1,83
 1357 723 1357 723 1324 723 c 2,84,-1
 1285 723 l 1,85,-1
 1285 781 l 1,86,-1
 1334 781 l 2,87,88
 1371 781 1371 781 1399.5 765.5 c 128,-1,89
 1428 750 1428 750 1441 723 c 1,90,91
 1455 750 1455 750 1486.5 765.5 c 128,-1,92
 1518 781 1518 781 1559 781 c 2,93,-1
 1598 781 l 1,94,-1
 1598 723 l 1,95,-1
 1559 723 l 2,96,97
 1525 723 1525 723 1502.5 700.5 c 128,-1,98
 1480 678 1480 678 1480 645 c 2,99,-1
 1480 234 l 2,100,101
 1480 137 1480 137 1419.5 68.5 c 128,-1,102
 1359 0 1359 0 1275 0 c 2,103,-1
 680 0 l 2,0,1
EndSplineSet
EndChar

StartChar: tm_ca
Encoding: 2970 2970 64
Width: 1035
GlyphClass: 2
Flags: W
LayerCount: 2
Fore
SplineSet
352 0 m 0,0,1
 234 0 234 0 151 80 c 128,-1,2
 68 160 68 160 68 273 c 0,3,4
 68 371 68 371 118 442.5 c 128,-1,5
 168 514 168 514 244 527 c 1,6,-1
 244 674 l 2,7,8
 244 719 244 719 278 750 c 128,-1,9
 312 781 312 781 361 781 c 2,10,-1
 850 781 l 2,11,12
 887 781 887 781 912 803.5 c 128,-1,13
 937 826 937 826 937 859 c 1,14,-1
 1006 859 l 1,15,16
 1006 820 1006 820 984.5 788 c 128,-1,17
 963 756 963 756 928 742 c 1,18,19
 963 729 963 729 984.5 696.5 c 128,-1,20
 1006 664 1006 664 1006 625 c 1,21,-1
 937 625 l 1,22,23
 937 658 937 658 912 680.5 c 128,-1,24
 887 703 887 703 850 703 c 2,25,-1
 635 703 l 1,26,-1
 635 527 l 1,27,-1
 937 527 l 1,28,-1
 937 449 l 1,29,-1
 635 449 l 1,30,-1
 635 264 l 2,31,32
 635 154 635 154 552 77 c 128,-1,33
 469 0 469 0 352 0 c 0,0,1
352 78 m 256,34,35
 436 78 436 78 496.5 132.5 c 128,-1,36
 557 187 557 187 557 264 c 2,37,-1
 557 449 l 1,38,-1
 283 449 l 2,39,40
 227 449 227 449 186.5 397.5 c 128,-1,41
 146 346 146 346 146 273 c 0,42,43
 146 193 146 193 207 135.5 c 128,-1,44
 268 78 268 78 352 78 c 256,34,35
557 527 m 1,45,-1
 557 703 l 1,46,-1
 361 703 l 2,47,48
 346 703 346 703 334 694.5 c 128,-1,49
 322 686 322 686 322 674 c 2,50,-1
 322 527 l 1,51,-1
 557 527 l 1,45,-1
EndSplineSet
EndChar

StartChar: tm_ja
Encoding: 2972 2972 65
Width: 1354
GlyphClass: 2
Flags: W
LayerCount: 2
Fore
SplineSet
1053 -586 m 0,0,1
 979 -586 979 -586 921 -545 c 128,-1,2
 863 -504 863 -504 848 -439 c 0,3,4
 842 -414 842 -414 828 -398.5 c 128,-1,5
 814 -383 814 -383 799 -381 c 1,6,7
 680 -480 680 -480 566.5 -533 c 128,-1,8
 453 -586 453 -586 359 -586 c 0,9,10
 242 -586 242 -586 159 -509 c 128,-1,11
 76 -432 76 -432 76 -322 c 0,12,13
 76 -172 76 -172 178.5 -66.5 c 128,-1,14
 281 39 281 39 428 39 c 2,15,-1
 994 39 l 2,16,17
 1059 39 1059 39 1104.5 93.5 c 128,-1,18
 1150 148 1150 148 1150 225 c 2,19,-1
 1150 537 l 2,20,21
 1150 605 1150 605 1098.5 654 c 128,-1,22
 1047 703 1047 703 975 703 c 0,23,24
 902 703 902 703 850.5 657 c 128,-1,25
 799 611 799 611 799 547 c 2,26,-1
 799 254 l 2,27,28
 799 221 799 221 821.5 198.5 c 128,-1,29
 844 176 844 176 877 176 c 2,30,-1
 916 176 l 1,31,-1
 916 117 l 1,32,-1
 877 117 l 2,33,34
 836 117 836 117 804.5 130 c 128,-1,35
 773 143 773 143 760 166 c 1,36,37
 746 143 746 143 715 130 c 128,-1,38
 684 117 684 117 643 117 c 2,39,-1
 604 117 l 1,40,-1
 604 176 l 1,41,-1
 643 176 l 2,42,43
 676 176 676 176 698.5 198.5 c 128,-1,44
 721 221 721 221 721 254 c 2,45,-1
 721 469 l 2,46,47
 721 566 721 566 638 634.5 c 128,-1,48
 555 703 555 703 437 703 c 0,49,50
 340 703 340 703 265.5 639.5 c 128,-1,51
 191 576 191 576 174 479 c 1,52,53
 201 502 201 502 242 514.5 c 128,-1,54
 283 527 283 527 330 527 c 0,55,56
 420 527 420 527 482.5 469.5 c 128,-1,57
 545 412 545 412 545 332 c 0,58,59
 545 242 545 242 482.5 179.5 c 128,-1,60
 420 117 420 117 330 117 c 0,61,62
 225 117 225 117 150.5 194 c 128,-1,63
 76 271 76 271 76 381 c 0,64,65
 76 547 76 547 181.5 664 c 128,-1,66
 287 781 287 781 437 781 c 0,67,68
 535 781 535 781 617 739 c 128,-1,69
 699 697 699 697 740 625 c 1,70,71
 766 695 766 695 830.5 738 c 128,-1,72
 895 781 895 781 975 781 c 0,73,74
 1080 781 1080 781 1154.5 710 c 128,-1,75
 1229 639 1229 639 1229 537 c 2,76,-1
 1229 225 l 2,77,78
 1229 115 1229 115 1160.5 38 c 128,-1,79
 1092 -39 1092 -39 994 -39 c 2,80,-1
 428 -39 l 2,81,82
 314 -39 314 -39 234 -122 c 128,-1,83
 154 -205 154 -205 154 -322 c 0,84,85
 154 -402 154 -402 214.5 -460 c 128,-1,86
 275 -518 275 -518 359 -518 c 0,87,88
 449 -518 449 -518 558.5 -459 c 128,-1,89
 668 -400 668 -400 779 -293 c 0,90,91
 848 -227 848 -227 919 -191.5 c 128,-1,92
 990 -156 990 -156 1053 -156 c 0,93,94
 1133 -156 1133 -156 1190.5 -218.5 c 128,-1,95
 1248 -281 1248 -281 1248 -371 c 256,96,97
 1248 -461 1248 -461 1190.5 -523.5 c 128,-1,98
 1133 -586 1133 -586 1053 -586 c 0,0,1
1053 -508 m 0,99,100
 1102 -508 1102 -508 1136 -468 c 128,-1,101
 1170 -428 1170 -428 1170 -371 c 256,102,103
 1170 -314 1170 -314 1136 -274 c 128,-1,104
 1102 -234 1102 -234 1053 -234 c 0,105,106
 998 -234 998 -234 947 -259.5 c 128,-1,107
 896 -285 896 -285 857 -332 c 1,108,-1
 877 -352 l 1,109,110
 893 -332 893 -332 923 -322.5 c 128,-1,111
 953 -313 953 -313 994 -313 c 1,112,-1
 994 -361 l 1,113,114
 967 -361 967 -361 946.5 -378.5 c 128,-1,115
 926 -396 926 -396 926 -420 c 0,116,117
 926 -457 926 -457 963 -482.5 c 128,-1,118
 1000 -508 1000 -508 1053 -508 c 0,99,100
330 195 m 0,119,120
 387 195 387 195 427 235 c 128,-1,121
 467 275 467 275 467 332 c 0,122,123
 467 385 467 385 427 422 c 128,-1,124
 387 459 387 459 330 459 c 0,125,126
 281 459 281 459 247 441.5 c 128,-1,127
 213 424 213 424 213 400 c 0,128,129
 213 389 213 389 221 376 c 128,-1,130
 229 363 229 363 242 352 c 1,131,-1
 213 312 l 1,132,133
 189 316 189 316 172.5 338.5 c 128,-1,134
 156 361 156 361 154 391 c 1,135,136
 154 311 154 311 206 253 c 128,-1,137
 258 195 258 195 330 195 c 0,119,120
EndSplineSet
EndChar

StartChar: tm_nya
Encoding: 2974 2974 66
Width: 2029
GlyphClass: 2
Flags: W
LayerCount: 2
Fore
SplineSet
1271 -586 m 2,0,-1
 900 -586 l 2,1,2
 537 -586 537 -586 318.5 -367 c 128,-1,3
 100 -148 100 -148 100 215 c 0,4,5
 100 408 100 408 174 557.5 c 128,-1,6
 248 707 248 707 373 762 c 1,7,8
 410 783 410 783 430.5 809.5 c 128,-1,9
 451 836 451 836 451 859 c 1,10,-1
 510 859 l 1,11,12
 510 832 510 832 494.5 801.5 c 128,-1,13
 479 771 479 771 451 742 c 1,14,15
 479 725 479 725 494.5 693.5 c 128,-1,16
 510 662 510 662 510 625 c 1,17,-1
 451 625 l 1,18,19
 451 648 451 648 436.5 666 c 128,-1,20
 422 684 422 684 402 684 c 0,21,22
 309 684 309 684 243.5 546 c 128,-1,23
 178 408 178 408 178 215 c 0,24,25
 178 -113 178 -113 375 -310.5 c 128,-1,26
 572 -508 572 -508 900 -508 c 2,27,-1
 1271 -508 l 2,28,29
 1547 -508 1547 -508 1712 -326.5 c 128,-1,30
 1877 -145 1877 -145 1877 156 c 0,31,32
 1877 299 1877 299 1812.5 384 c 128,-1,33
 1748 469 1748 469 1643 469 c 0,34,35
 1557 469 1557 469 1490.5 413 c 128,-1,36
 1424 357 1424 357 1408 273 c 1,37,-1
 1408 137 l 2,38,39
 1408 104 1408 104 1430.5 81.5 c 128,-1,40
 1453 59 1453 59 1486 59 c 2,41,-1
 1525 59 l 1,42,-1
 1525 0 l 1,43,-1
 1486 0 l 2,44,45
 1447 0 1447 0 1416 15.5 c 128,-1,46
 1385 31 1385 31 1369 59 c 1,47,48
 1354 31 1354 31 1322.5 15.5 c 128,-1,49
 1291 0 1291 0 1252 0 c 2,50,-1
 1213 0 l 1,51,-1
 1213 59 l 1,52,-1
 1252 59 l 2,53,54
 1285 59 1285 59 1307.5 81.5 c 128,-1,55
 1330 104 1330 104 1330 137 c 2,56,-1
 1330 703 l 1,57,-1
 920 703 l 2,58,59
 773 703 773 703 670.5 608.5 c 128,-1,60
 568 514 568 514 568 381 c 0,61,62
 568 318 568 318 584 270.5 c 128,-1,63
 600 223 600 223 627 195 c 1,64,65
 654 219 654 219 670 242.5 c 128,-1,66
 686 266 686 266 686 283 c 0,67,68
 686 367 686 367 754 427.5 c 128,-1,69
 822 488 822 488 920 488 c 0,70,71
 1014 488 1014 488 1079.5 422.5 c 128,-1,72
 1145 357 1145 357 1145 264 c 0,73,74
 1145 154 1145 154 1062 77 c 128,-1,75
 979 0 979 0 861 0 c 0,76,77
 707 0 707 0 598.5 111.5 c 128,-1,78
 490 223 490 223 490 381 c 0,79,80
 490 547 490 547 616 664 c 128,-1,81
 742 781 742 781 920 781 c 2,82,-1
 1682 781 l 2,83,84
 1707 781 1707 781 1728.5 802.5 c 128,-1,85
 1750 824 1750 824 1760 859 c 1,86,-1
 1818 859 l 1,87,88
 1818 820 1818 820 1802.5 789 c 128,-1,89
 1787 758 1787 758 1760 742 c 1,90,91
 1787 727 1787 727 1802.5 695.5 c 128,-1,92
 1818 664 1818 664 1818 625 c 1,93,-1
 1760 625 l 1,94,95
 1760 658 1760 658 1737.5 680.5 c 128,-1,96
 1715 703 1715 703 1682 703 c 2,97,-1
 1408 703 l 1,98,-1
 1408 430 l 1,99,100
 1449 484 1449 484 1510.5 515.5 c 128,-1,101
 1572 547 1572 547 1643 547 c 0,102,103
 1771 547 1771 547 1863 432.5 c 128,-1,104
 1955 318 1955 318 1955 156 c 0,105,106
 1955 -180 1955 -180 1768.5 -383 c 128,-1,107
 1582 -586 1582 -586 1271 -586 c 2,0,-1
861 78 m 0,108,109
 945 78 945 78 1005.5 132.5 c 128,-1,110
 1066 187 1066 187 1066 264 c 0,111,112
 1066 324 1066 324 1023 367 c 128,-1,113
 980 410 980 410 920 410 c 0,114,115
 855 410 855 410 809.5 373 c 128,-1,116
 764 336 764 336 764 283 c 0,117,118
 764 246 764 246 786.5 220.5 c 128,-1,119
 809 195 809 195 842 195 c 2,120,-1
 881 195 l 1,121,-1
 881 137 l 1,122,-1
 842 137 l 2,123,124
 809 137 809 137 778.5 152.5 c 128,-1,125
 748 168 748 168 725 195 c 1,126,127
 711 172 711 172 698.5 157.5 c 128,-1,128
 686 143 686 143 676 137 c 1,129,130
 699 109 699 109 748 93.5 c 128,-1,131
 797 78 797 78 861 78 c 0,108,109
EndSplineSet
EndChar

StartChar: tm_tta
Encoding: 2975 2975 67
Width: 1150
GlyphClass: 2
Flags: W
LayerCount: 2
Fore
SplineSet
1125 -78 m 1,0,-1
 1066 -78 l 1,1,2
 1066 -45 1066 -45 1043.5 -22.5 c 128,-1,3
 1021 0 1021 0 988 0 c 2,4,-1
 363 0 l 2,5,6
 273 0 273 0 210.5 62.5 c 128,-1,7
 148 125 148 125 148 215 c 2,8,-1
 148 645 l 2,9,10
 148 678 148 678 126 700.5 c 128,-1,11
 104 723 104 723 70 723 c 2,12,-1
 31 723 l 1,13,-1
 31 781 l 1,14,-1
 70 781 l 2,15,16
 109 781 109 781 140.5 765.5 c 128,-1,17
 172 750 172 750 187 723 c 1,18,19
 203 750 203 750 234.5 765.5 c 128,-1,20
 266 781 266 781 305 781 c 2,21,-1
 344 781 l 1,22,-1
 344 723 l 1,23,-1
 305 723 l 2,24,25
 271 723 271 723 249 700.5 c 128,-1,26
 227 678 227 678 227 645 c 2,27,-1
 227 215 l 2,28,29
 227 158 227 158 267 118 c 128,-1,30
 307 78 307 78 363 78 c 2,31,-1
 988 78 l 2,32,33
 1021 78 1021 78 1043.5 100.5 c 128,-1,34
 1066 123 1066 123 1066 156 c 1,35,-1
 1125 156 l 1,36,37
 1125 115 1125 115 1109.5 84 c 128,-1,38
 1094 53 1094 53 1066 39 c 1,39,40
 1094 23 1094 23 1109.5 -8 c 128,-1,41
 1125 -39 1125 -39 1125 -78 c 1,0,-1
EndSplineSet
EndChar

StartChar: tm_nna
Encoding: 2979 2979 68
Width: 2152
GlyphClass: 2
Flags: W
LayerCount: 2
Fore
SplineSet
465 0 m 0,0,1
 307 0 307 0 195.5 111.5 c 128,-1,2
 84 223 84 223 84 381 c 0,3,4
 84 572 84 572 215 686.5 c 128,-1,5
 346 801 346 801 562 801 c 0,6,7
 695 801 695 801 789 786 c 128,-1,8
 883 771 883 771 934 742 c 1,9,10
 975 766 975 766 1032.5 778.5 c 128,-1,11
 1090 791 1090 791 1158 791 c 0,12,13
 1223 791 1223 791 1277.5 778.5 c 128,-1,14
 1332 766 1332 766 1373 742 c 1,15,16
 1416 762 1416 762 1466 771.5 c 128,-1,17
 1516 781 1516 781 1568 781 c 2,18,-1
 1988 781 l 2,19,20
 2021 781 2021 781 2043.5 803.5 c 128,-1,21
 2066 826 2066 826 2066 859 c 1,22,-1
 2125 859 l 1,23,24
 2125 818 2125 818 2106.5 786 c 128,-1,25
 2088 754 2088 754 2057 742 c 1,26,27
 2088 730 2088 730 2106.5 698 c 128,-1,28
 2125 666 2125 666 2125 625 c 1,29,-1
 2066 625 l 1,30,31
 2066 658 2066 658 2043.5 680.5 c 128,-1,32
 2021 703 2021 703 1988 703 c 2,33,-1
 1920 703 l 1,34,-1
 1920 137 l 2,35,36
 1920 104 1920 104 1942.5 81.5 c 128,-1,37
 1965 59 1965 59 1998 59 c 2,38,-1
 2037 59 l 1,39,-1
 2037 0 l 1,40,-1
 1998 0 l 2,41,42
 1959 0 1959 0 1927.5 15.5 c 128,-1,43
 1896 31 1896 31 1881 59 c 1,44,45
 1865 31 1865 31 1834 15.5 c 128,-1,46
 1803 0 1803 0 1764 0 c 2,47,-1
 1725 0 l 1,48,-1
 1725 59 l 1,49,-1
 1764 59 l 2,50,51
 1797 59 1797 59 1819.5 81.5 c 128,-1,52
 1842 104 1842 104 1842 137 c 2,53,-1
 1842 703 l 1,54,-1
 1549 703 l 2,55,56
 1527 703 1527 703 1503 698 c 128,-1,57
 1479 693 1479 693 1451 684 c 1,58,59
 1545 605 1545 605 1595.5 505.5 c 128,-1,60
 1646 406 1646 406 1646 303 c 0,61,62
 1646 178 1646 178 1572 89 c 128,-1,63
 1498 0 1498 0 1393 0 c 0,64,65
 1314 0 1314 0 1251.5 31 c 128,-1,66
 1189 62 1189 62 1158 117 c 1,67,68
 1127 62 1127 62 1066.5 31 c 128,-1,69
 1006 0 1006 0 934 0 c 0,70,71
 861 0 861 0 800.5 31 c 128,-1,72
 740 62 740 62 709 117 c 1,73,74
 662 61 662 61 597.5 30.5 c 128,-1,75
 533 0 533 0 465 0 c 0,0,1
465 78 m 0,76,77
 549 78 549 78 609.5 132.5 c 128,-1,78
 670 187 670 187 670 264 c 0,79,80
 670 324 670 324 621 367 c 128,-1,81
 572 410 572 410 504 410 c 0,82,83
 443 410 443 410 400 376 c 128,-1,84
 357 342 357 342 357 293 c 0,85,86
 357 252 357 252 385.5 223.5 c 128,-1,87
 414 195 414 195 455 195 c 2,88,-1
 475 195 l 1,89,-1
 475 137 l 1,90,-1
 455 137 l 2,91,92
 414 137 414 137 378 152.5 c 128,-1,93
 342 168 342 168 318 195 c 1,94,95
 307 178 307 178 294 165 c 128,-1,96
 281 152 281 152 270 146 c 1,97,98
 297 113 297 113 347.5 95.5 c 128,-1,99
 398 78 398 78 465 78 c 0,76,77
221 195 m 1,100,101
 248 219 248 219 263.5 242.5 c 128,-1,102
 279 266 279 266 279 283 c 0,103,104
 279 367 279 367 344.5 427.5 c 128,-1,105
 410 488 410 488 504 488 c 0,106,107
 561 488 561 488 608.5 473.5 c 128,-1,108
 656 459 656 459 689 430 c 1,109,110
 711 504 711 504 753 568.5 c 128,-1,111
 795 633 795 633 855 684 c 1,112,113
 822 703 822 703 748 713 c 128,-1,114
 674 723 674 723 562 723 c 0,115,116
 381 723 381 723 271.5 629 c 128,-1,117
 162 535 162 535 162 381 c 0,118,119
 162 318 162 318 177.5 270.5 c 128,-1,120
 193 223 193 223 221 195 c 1,100,101
934 78 m 0,121,122
 1010 78 1010 78 1064.5 143.5 c 128,-1,123
 1119 209 1119 209 1119 303 c 0,124,125
 1119 387 1119 387 1068.5 476.5 c 128,-1,126
 1018 566 1018 566 924 645 c 1,127,128
 840 557 840 557 794 468 c 128,-1,129
 748 379 748 379 748 303 c 0,130,131
 748 209 748 209 802.5 143.5 c 128,-1,132
 857 78 857 78 934 78 c 0,121,122
1393 78 m 0,133,134
 1465 78 1465 78 1516.5 143.5 c 128,-1,135
 1568 209 1568 209 1568 303 c 0,136,137
 1568 393 1568 393 1517.5 484.5 c 128,-1,138
 1467 576 1467 576 1373 654 c 1,139,140
 1289 566 1289 566 1243 475.5 c 128,-1,141
 1197 385 1197 385 1197 303 c 0,142,143
 1197 209 1197 209 1254.5 143.5 c 128,-1,144
 1312 78 1312 78 1393 78 c 0,133,134
1158 469 m 1,145,146
 1182 533 1182 533 1219 588 c 128,-1,147
 1256 643 1256 643 1305 684 c 1,148,149
 1279 697 1279 697 1242 705 c 128,-1,150
 1205 713 1205 713 1158 713 c 0,151,152
 1102 713 1102 713 1061.5 705 c 128,-1,153
 1021 697 1021 697 1002 684 c 1,154,155
 1057 637 1057 637 1097 582 c 128,-1,156
 1137 527 1137 527 1158 469 c 1,145,146
EndSplineSet
EndChar

StartChar: tm_ta
Encoding: 2980 2980 69
Width: 1113
GlyphClass: 2
Flags: W
LayerCount: 2
Fore
SplineSet
66 273 m 0,0,1
 66 365 66 365 115 436.5 c 128,-1,2
 164 508 164 508 242 527 c 1,3,-1
 242 664 l 2,4,5
 242 713 242 713 276.5 747 c 128,-1,6
 311 781 311 781 359 781 c 2,7,-1
 867 781 l 2,8,9
 900 781 900 781 922.5 803.5 c 128,-1,10
 945 826 945 826 945 859 c 1,11,-1
 1004 859 l 1,12,13
 1004 818 1004 818 988.5 787 c 128,-1,14
 973 756 973 756 945 742 c 1,15,16
 973 719 973 719 988.5 688.5 c 128,-1,17
 1004 658 1004 658 1004 625 c 1,18,-1
 945 625 l 1,19,20
 945 658 945 658 922.5 680.5 c 128,-1,21
 900 703 900 703 867 703 c 2,22,-1
 633 703 l 1,23,-1
 633 527 l 1,24,-1
 711 527 l 2,25,26
 840 527 840 527 931.5 419 c 128,-1,27
 1023 311 1023 311 1023 156 c 0,28,29
 1023 2 1023 2 925.5 -106.5 c 128,-1,30
 828 -215 828 -215 691 -215 c 2,31,-1
 271 -215 l 2,32,33
 244 -215 244 -215 223.5 -232.5 c 128,-1,34
 203 -250 203 -250 203 -273 c 2,35,-1
 203 -332 l 2,36,37
 203 -355 203 -355 225.5 -373 c 128,-1,38
 248 -391 248 -391 281 -391 c 2,39,-1
 320 -391 l 1,40,-1
 320 -449 l 1,41,-1
 281 -449 l 2,42,43
 242 -449 242 -449 211 -433.5 c 128,-1,44
 180 -418 180 -418 164 -391 c 1,45,46
 148 -418 148 -418 117 -433.5 c 128,-1,47
 86 -449 86 -449 47 -449 c 2,48,-1
 8 -449 l 1,49,-1
 8 -391 l 1,50,-1
 47 -391 l 2,51,52
 80 -391 80 -391 102.5 -373 c 128,-1,53
 125 -355 125 -355 125 -332 c 2,54,-1
 125 -273 l 2,55,56
 125 -217 125 -217 168 -177 c 128,-1,57
 211 -137 211 -137 271 -137 c 2,58,-1
 691 -137 l 2,59,60
 797 -137 797 -137 871 -51 c 128,-1,61
 945 35 945 35 945 156 c 256,62,63
 945 277 945 277 877 363 c 128,-1,64
 809 449 809 449 711 449 c 2,65,-1
 633 449 l 1,66,-1
 633 234 l 2,67,68
 633 137 633 137 550 68.5 c 128,-1,69
 467 0 467 0 350 0 c 0,70,71
 232 0 232 0 149 80 c 128,-1,72
 66 160 66 160 66 273 c 0,0,1
350 78 m 256,73,74
 434 78 434 78 494.5 124 c 128,-1,75
 555 170 555 170 555 234 c 2,76,-1
 555 449 l 1,77,-1
 301 449 l 2,78,79
 236 449 236 449 190.5 397.5 c 128,-1,80
 145 346 145 346 145 273 c 0,81,82
 145 193 145 193 205.5 135.5 c 128,-1,83
 266 78 266 78 350 78 c 256,73,74
555 527 m 1,84,-1
 555 703 l 1,85,-1
 359 703 l 2,86,87
 344 703 344 703 332 691.5 c 128,-1,88
 320 680 320 680 320 664 c 2,89,-1
 320 527 l 1,90,-1
 555 527 l 1,84,-1
EndSplineSet
EndChar

StartChar: tm_na
Encoding: 2984 2984 70
Width: 1248
GlyphClass: 2
Flags: W
LayerCount: 2
Fore
SplineSet
156 664 m 2,0,1
 156 713 156 713 193 747 c 128,-1,2
 230 781 230 781 283 781 c 2,3,-1
 898 781 l 2,4,5
 932 781 932 781 954.5 803.5 c 128,-1,6
 977 826 977 826 977 859 c 1,7,-1
 1035 859 l 1,8,9
 1035 818 1035 818 1016.5 786 c 128,-1,10
 998 754 998 754 967 742 c 1,11,12
 998 730 998 730 1016.5 698 c 128,-1,13
 1035 666 1035 666 1035 625 c 1,14,-1
 977 625 l 1,15,16
 977 658 977 658 954.5 680.5 c 128,-1,17
 932 703 932 703 898 703 c 2,18,-1
 625 703 l 1,19,-1
 625 449 l 1,20,21
 658 496 658 496 720.5 521.5 c 128,-1,22
 783 547 783 547 859 547 c 0,23,24
 988 547 988 547 1080 446.5 c 128,-1,25
 1172 346 1172 346 1172 205 c 0,26,27
 1172 31 1172 31 1063.5 -92 c 128,-1,28
 955 -215 955 -215 801 -215 c 2,29,-1
 264 -215 l 2,30,31
 236 -215 236 -215 215.5 -232.5 c 128,-1,32
 195 -250 195 -250 195 -273 c 2,33,-1
 195 -313 l 2,34,35
 195 -346 195 -346 217.5 -368.5 c 128,-1,36
 240 -391 240 -391 273 -391 c 2,37,-1
 312 -391 l 1,38,-1
 312 -449 l 1,39,-1
 273 -449 l 2,40,41
 232 -449 232 -449 200 -433.5 c 128,-1,42
 168 -418 168 -418 156 -391 c 1,43,44
 145 -418 145 -418 112.5 -433.5 c 128,-1,45
 80 -449 80 -449 39 -449 c 2,46,-1
 0 -449 l 1,47,-1
 0 -391 l 1,48,-1
 39 -391 l 2,49,50
 72 -391 72 -391 95.5 -367.5 c 128,-1,51
 119 -344 119 -344 117 -313 c 2,52,-1
 117 -273 l 2,53,54
 117 -217 117 -217 160 -177 c 128,-1,55
 203 -137 203 -137 264 -137 c 2,56,-1
 801 -137 l 2,57,58
 922 -137 922 -137 1008 -36.5 c 128,-1,59
 1094 64 1094 64 1094 205 c 0,60,61
 1094 314 1094 314 1025.5 391.5 c 128,-1,62
 957 469 957 469 859 469 c 0,63,64
 762 469 762 469 693.5 411.5 c 128,-1,65
 625 354 625 354 625 273 c 2,66,-1
 625 137 l 2,67,68
 625 104 625 104 647.5 81.5 c 128,-1,69
 670 59 670 59 703 59 c 2,70,-1
 742 59 l 1,71,-1
 742 0 l 1,72,-1
 703 0 l 2,73,74
 664 0 664 0 633 15.5 c 128,-1,75
 602 31 602 31 586 59 c 1,76,77
 570 31 570 31 539 15.5 c 128,-1,78
 508 0 508 0 469 0 c 2,79,-1
 430 0 l 1,80,-1
 430 59 l 1,81,-1
 469 59 l 2,82,83
 502 59 502 59 524.5 81.5 c 128,-1,84
 547 104 547 104 547 137 c 2,85,-1
 547 703 l 1,86,-1
 283 703 l 2,87,88
 264 703 264 703 249 691.5 c 128,-1,89
 234 680 234 680 234 664 c 2,90,-1
 234 137 l 2,91,92
 234 104 234 104 256.5 81.5 c 128,-1,93
 279 59 279 59 312 59 c 2,94,-1
 352 59 l 1,95,-1
 352 0 l 1,96,-1
 312 0 l 2,97,98
 273 0 273 0 242 15.5 c 128,-1,99
 211 31 211 31 195 59 c 1,100,101
 180 31 180 31 148.5 15.5 c 128,-1,102
 117 0 117 0 78 0 c 2,103,-1
 39 0 l 1,104,-1
 39 59 l 1,105,-1
 78 59 l 2,106,107
 111 59 111 59 133.5 81.5 c 128,-1,108
 156 104 156 104 156 137 c 2,109,-1
 156 664 l 2,0,1
EndSplineSet
EndChar

StartChar: tm_nnna
Encoding: 2985 2985 71
Width: 1770
GlyphClass: 2
Flags: W
LayerCount: 2
Fore
SplineSet
447 0 m 0,0,1
 283 0 283 0 184.5 101.5 c 128,-1,2
 86 203 86 203 86 371 c 0,3,4
 86 566 86 566 221.5 683.5 c 128,-1,5
 357 801 357 801 584 801 c 0,6,7
 693 801 693 801 780 783.5 c 128,-1,8
 867 766 867 766 926 732 c 1,9,10
 967 756 967 756 1019.5 768.5 c 128,-1,11
 1072 781 1072 781 1131 781 c 2,12,-1
 1609 781 l 2,13,14
 1643 781 1643 781 1665 803.5 c 128,-1,15
 1687 826 1687 826 1687 859 c 1,16,-1
 1746 859 l 1,17,18
 1746 820 1746 820 1730.5 789 c 128,-1,19
 1715 758 1715 758 1687 742 c 1,20,21
 1715 727 1715 727 1730.5 695.5 c 128,-1,22
 1746 664 1746 664 1746 625 c 1,23,-1
 1687 625 l 1,24,25
 1687 658 1687 658 1665 680.5 c 128,-1,26
 1643 703 1643 703 1609 703 c 2,27,-1
 1492 703 l 1,28,-1
 1492 137 l 2,29,30
 1492 104 1492 104 1514.5 81.5 c 128,-1,31
 1537 59 1537 59 1570 59 c 2,32,-1
 1609 59 l 1,33,-1
 1609 0 l 1,34,-1
 1570 0 l 2,35,36
 1531 0 1531 0 1500 15.5 c 128,-1,37
 1469 31 1469 31 1453 59 c 1,38,39
 1437 31 1437 31 1406 15.5 c 128,-1,40
 1375 0 1375 0 1336 0 c 2,41,-1
 1297 0 l 1,42,-1
 1297 59 l 1,43,-1
 1336 59 l 2,44,45
 1369 59 1369 59 1391.5 81.5 c 128,-1,46
 1414 104 1414 104 1414 137 c 2,47,-1
 1414 703 l 1,48,-1
 1131 703 l 2,49,50
 1098 703 1098 703 1065.5 695 c 128,-1,51
 1033 687 1033 687 1004 674 c 1,52,53
 1096 611 1096 611 1147.5 510.5 c 128,-1,54
 1199 410 1199 410 1199 293 c 0,55,56
 1199 172 1199 172 1125 86 c 128,-1,57
 1051 0 1051 0 945 0 c 0,58,59
 861 0 861 0 796.5 37 c 128,-1,60
 732 74 732 74 711 137 c 1,61,62
 684 74 684 74 611.5 37 c 128,-1,63
 539 0 539 0 447 0 c 0,0,1
945 78 m 0,64,65
 1018 78 1018 78 1069.5 140.5 c 128,-1,66
 1121 203 1121 203 1121 293 c 0,67,68
 1121 391 1121 391 1072 480.5 c 128,-1,69
 1023 570 1023 570 936 635 c 1,70,71
 848 561 848 561 799 469 c 128,-1,72
 750 377 750 377 750 283 c 0,73,74
 750 199 750 199 807.5 138.5 c 128,-1,75
 865 78 865 78 945 78 c 0,64,65
447 78 m 0,76,77
 541 78 541 78 606.5 135.5 c 128,-1,78
 672 193 672 193 672 273 c 0,79,80
 672 330 672 330 623 370 c 128,-1,81
 574 410 574 410 506 410 c 0,82,83
 445 410 445 410 402 370 c 128,-1,84
 359 330 359 330 359 273 c 0,85,86
 359 240 359 240 381.5 217.5 c 128,-1,87
 404 195 404 195 437 195 c 2,88,-1
 477 195 l 1,89,-1
 477 137 l 1,90,-1
 437 137 l 2,91,92
 395 137 395 137 360.5 152.5 c 128,-1,93
 326 168 326 168 311 195 c 1,94,95
 303 178 303 178 290 163 c 128,-1,96
 277 148 277 148 262 137 c 1,97,98
 291 109 291 109 339 93.5 c 128,-1,99
 387 78 387 78 447 78 c 0,76,77
223 195 m 1,100,101
 250 219 250 219 265.5 244.5 c 128,-1,102
 281 270 281 270 281 293 c 0,103,104
 281 373 281 373 346.5 430.5 c 128,-1,105
 412 488 412 488 506 488 c 0,106,107
 570 488 570 488 619 472.5 c 128,-1,108
 668 457 668 457 691 430 c 1,109,110
 719 504 719 504 761 566.5 c 128,-1,111
 803 629 803 629 857 674 c 1,112,113
 816 697 816 697 747 710 c 128,-1,114
 678 723 678 723 584 723 c 0,115,116
 393 723 393 723 278.5 627 c 128,-1,117
 164 531 164 531 164 371 c 0,118,119
 164 311 164 311 179.5 265 c 128,-1,120
 195 219 195 219 223 195 c 1,100,101
EndSplineSet
EndChar

StartChar: tm_pa
Encoding: 2986 2986 72
Width: 1078
GlyphClass: 2
Flags: W
LayerCount: 2
Fore
SplineSet
715 0 m 2,0,-1
 363 0 l 2,1,2
 273 0 273 0 210.5 62.5 c 128,-1,3
 148 125 148 125 148 215 c 2,4,-1
 148 645 l 2,5,6
 148 678 148 678 126 700.5 c 128,-1,7
 104 723 104 723 70 723 c 2,8,-1
 31 723 l 1,9,-1
 31 781 l 1,10,-1
 80 781 l 2,11,12
 113 781 113 781 142.5 765.5 c 128,-1,13
 172 750 172 750 187 723 c 1,14,15
 203 750 203 750 234.5 765.5 c 128,-1,16
 266 781 266 781 305 781 c 2,17,-1
 344 781 l 1,18,-1
 344 723 l 1,19,-1
 305 723 l 2,20,21
 271 723 271 723 249 700.5 c 128,-1,22
 227 678 227 678 227 645 c 2,23,-1
 227 215 l 2,24,25
 227 158 227 158 267 118 c 128,-1,26
 307 78 307 78 363 78 c 2,27,-1
 715 78 l 2,28,29
 771 78 771 78 811.5 118 c 128,-1,30
 852 158 852 158 852 215 c 2,31,-1
 852 645 l 2,32,33
 852 678 852 678 829.5 700.5 c 128,-1,34
 807 723 807 723 773 723 c 2,35,-1
 734 723 l 1,36,-1
 734 781 l 1,37,-1
 773 781 l 2,38,39
 816 781 816 781 847.5 767.5 c 128,-1,40
 879 754 879 754 891 732 c 1,41,42
 902 754 902 754 933.5 767.5 c 128,-1,43
 965 781 965 781 1008 781 c 2,44,-1
 1047 781 l 1,45,-1
 1047 723 l 1,46,-1
 1008 723 l 2,47,48
 975 723 975 723 952.5 700.5 c 128,-1,49
 930 678 930 678 930 645 c 2,50,-1
 930 215 l 2,51,52
 930 125 930 125 867.5 62.5 c 128,-1,53
 805 0 805 0 715 0 c 2,0,-1
EndSplineSet
EndChar

StartChar: tm_ma
Encoding: 2990 2990 73
Width: 1209
GlyphClass: 2
Flags: W
LayerCount: 2
Fore
SplineSet
891 0 m 2,0,-1
 363 0 l 2,1,2
 273 0 273 0 210.5 62.5 c 128,-1,3
 148 125 148 125 148 215 c 2,4,-1
 148 645 l 2,5,6
 148 678 148 678 126 700.5 c 128,-1,7
 104 723 104 723 70 723 c 2,8,-1
 31 723 l 1,9,-1
 31 781 l 1,10,-1
 70 781 l 2,11,12
 109 781 109 781 140.5 765.5 c 128,-1,13
 172 750 172 750 187 723 c 1,14,15
 203 750 203 750 234.5 765.5 c 128,-1,16
 266 781 266 781 305 781 c 2,17,-1
 344 781 l 1,18,-1
 344 723 l 1,19,-1
 305 723 l 2,20,21
 271 723 271 723 249 700.5 c 128,-1,22
 227 678 227 678 227 645 c 2,23,-1
 227 215 l 2,24,25
 227 158 227 158 267 118 c 128,-1,26
 307 78 307 78 363 78 c 2,27,-1
 578 78 l 1,28,-1
 578 547 l 2,29,30
 578 645 578 645 652.5 713 c 128,-1,31
 727 781 727 781 832 781 c 256,32,33
 937 781 937 781 1011.5 713 c 128,-1,34
 1086 645 1086 645 1086 547 c 2,35,-1
 1086 215 l 2,36,37
 1086 125 1086 125 1028.5 62.5 c 128,-1,38
 971 0 971 0 891 0 c 2,0,-1
891 78 m 2,39,40
 939 78 939 78 973.5 118 c 128,-1,41
 1008 158 1008 158 1008 215 c 2,42,-1
 1008 547 l 2,43,44
 1008 611 1008 611 956 657 c 128,-1,45
 904 703 904 703 832 703 c 256,46,47
 760 703 760 703 708 657 c 128,-1,48
 656 611 656 611 656 547 c 2,49,-1
 656 78 l 1,50,-1
 891 78 l 2,39,40
EndSplineSet
EndChar

StartChar: tm_ya
Encoding: 2991 2991 74
Width: 1391
GlyphClass: 2
Flags: W
LayerCount: 2
Fore
SplineSet
1057 0 m 2,0,-1
 773 0 l 2,1,2
 707 0 707 0 653.5 29.5 c 128,-1,3
 600 59 600 59 578 107 c 1,4,5
 545 57 545 57 490.5 28.5 c 128,-1,6
 436 0 436 0 373 0 c 0,7,8
 279 0 279 0 213.5 68.5 c 128,-1,9
 148 137 148 137 148 234 c 2,10,-1
 148 645 l 2,11,12
 148 678 148 678 126 700.5 c 128,-1,13
 104 723 104 723 70 723 c 2,14,-1
 31 723 l 1,15,-1
 31 781 l 1,16,-1
 70 781 l 2,17,18
 109 781 109 781 140.5 765.5 c 128,-1,19
 172 750 172 750 187 723 c 1,20,21
 203 750 203 750 234.5 765.5 c 128,-1,22
 266 781 266 781 305 781 c 2,23,-1
 344 781 l 1,24,-1
 344 723 l 1,25,-1
 305 723 l 2,26,27
 271 723 271 723 249 700.5 c 128,-1,28
 227 678 227 678 227 645 c 2,29,-1
 227 234 l 2,30,31
 227 170 227 170 269.5 124 c 128,-1,32
 312 78 312 78 373 78 c 0,33,34
 441 78 441 78 490 124 c 128,-1,35
 539 170 539 170 539 234 c 2,36,-1
 539 645 l 2,37,38
 539 678 539 678 516.5 700.5 c 128,-1,39
 494 723 494 723 461 723 c 2,40,-1
 422 723 l 1,41,-1
 422 781 l 1,42,-1
 461 781 l 2,43,44
 500 781 500 781 531 765.5 c 128,-1,45
 562 750 562 750 578 723 c 1,46,47
 594 750 594 750 625 765.5 c 128,-1,48
 656 781 656 781 695 781 c 2,49,-1
 734 781 l 1,50,-1
 734 723 l 1,51,-1
 695 723 l 2,52,53
 662 723 662 723 639.5 700.5 c 128,-1,54
 617 678 617 678 617 645 c 2,55,-1
 617 234 l 2,56,57
 617 170 617 170 663 124 c 128,-1,58
 709 78 709 78 773 78 c 2,59,-1
 1057 78 l 2,60,61
 1102 78 1102 78 1133 124 c 128,-1,62
 1164 170 1164 170 1164 234 c 2,63,-1
 1164 645 l 2,64,65
 1164 678 1164 678 1141.5 700.5 c 128,-1,66
 1119 723 1119 723 1086 723 c 2,67,-1
 1047 723 l 1,68,-1
 1047 781 l 1,69,-1
 1086 781 l 2,70,71
 1125 781 1125 781 1156 765.5 c 128,-1,72
 1187 750 1187 750 1203 723 c 1,73,74
 1219 750 1219 750 1250 765.5 c 128,-1,75
 1281 781 1281 781 1320 781 c 2,76,-1
 1359 781 l 1,77,-1
 1359 723 l 1,78,-1
 1320 723 l 2,79,80
 1287 723 1287 723 1264.5 700.5 c 128,-1,81
 1242 678 1242 678 1242 645 c 2,82,-1
 1242 234 l 2,83,84
 1242 137 1242 137 1187.5 68.5 c 128,-1,85
 1133 0 1133 0 1057 0 c 2,0,-1
EndSplineSet
EndChar

StartChar: tm_ra
Encoding: 2992 2992 75
Width: 844
GlyphClass: 2
Flags: W
LayerCount: 2
Fore
SplineSet
254 -342 m 1,0,1
 225 -309 225 -309 210 -280.5 c 128,-1,2
 195 -252 195 -252 195 -234 c 0,3,4
 195 -199 195 -199 224.5 -164 c 128,-1,5
 254 -129 254 -129 303 -107 c 2,6,-1
 459 -29 l 2,7,8
 500 -12 500 -12 523.5 9.5 c 128,-1,9
 547 31 547 31 547 49 c 2,10,-1
 547 703 l 1,11,-1
 293 703 l 2,12,13
 270 703 270 703 252 691.5 c 128,-1,14
 234 680 234 680 234 664 c 2,15,-1
 234 137 l 2,16,17
 234 104 234 104 256.5 81.5 c 128,-1,18
 279 59 279 59 312 59 c 2,19,-1
 352 59 l 1,20,-1
 352 0 l 1,21,-1
 312 0 l 2,22,23
 273 0 273 0 242 15.5 c 128,-1,24
 211 31 211 31 195 59 c 1,25,26
 180 31 180 31 148.5 15.5 c 128,-1,27
 117 0 117 0 78 0 c 2,28,-1
 39 0 l 1,29,-1
 39 59 l 1,30,-1
 78 59 l 2,31,32
 111 59 111 59 133.5 81.5 c 128,-1,33
 156 104 156 104 156 137 c 2,34,-1
 156 664 l 2,35,36
 156 713 156 713 196 747 c 128,-1,37
 236 781 236 781 293 781 c 2,38,-1
 684 781 l 2,39,40
 717 781 717 781 739.5 803.5 c 128,-1,41
 762 826 762 826 762 859 c 1,42,-1
 820 859 l 1,43,44
 820 816 820 816 804.5 784 c 128,-1,45
 789 752 789 752 762 742 c 1,46,47
 789 732 789 732 804.5 700 c 128,-1,48
 820 668 820 668 820 625 c 1,49,-1
 762 625 l 1,50,51
 762 658 762 658 739.5 680.5 c 128,-1,52
 717 703 717 703 684 703 c 2,53,-1
 625 703 l 1,54,-1
 625 49 l 2,55,56
 625 18 625 18 601.5 -13.5 c 128,-1,57
 578 -45 578 -45 537 -68 c 2,58,-1
 332 -176 l 2,59,60
 324 -182 324 -182 298.5 -202.5 c 128,-1,61
 273 -223 273 -223 273 -234 c 0,62,63
 273 -248 273 -248 281 -265.5 c 128,-1,64
 289 -283 289 -283 303 -303 c 1,65,-1
 254 -342 l 1,0,1
EndSplineSet
EndChar

StartChar: tm_rra
Encoding: 2993 2993 76
Width: 1293
GlyphClass: 2
Flags: W
LayerCount: 2
Fore
SplineSet
152 527 m 2,0,1
 152 633 152 633 217.5 707 c 128,-1,2
 283 781 283 781 377 781 c 0,3,4
 449 781 449 781 507.5 750 c 128,-1,5
 566 719 566 719 592 664 c 1,6,7
 633 719 633 719 702 750 c 128,-1,8
 771 781 771 781 855 781 c 0,9,10
 984 781 984 781 1076 701 c 128,-1,11
 1168 621 1168 621 1168 508 c 2,12,-1
 1168 195 l 2,13,14
 1168 25 1168 25 1042 -95 c 128,-1,15
 916 -215 916 -215 738 -215 c 2,16,-1
 270 -215 l 2,17,18
 236 -215 236 -215 213.5 -232.5 c 128,-1,19
 191 -250 191 -250 191 -273 c 2,20,-1
 191 -313 l 2,21,22
 191 -346 191 -346 213.5 -368.5 c 128,-1,23
 236 -391 236 -391 270 -391 c 2,24,-1
 309 -391 l 1,25,-1
 309 -449 l 1,26,-1
 270 -449 l 2,27,28
 230 -449 230 -449 199 -433.5 c 128,-1,29
 168 -418 168 -418 152 -391 c 1,30,31
 137 -418 137 -418 105.5 -433.5 c 128,-1,32
 74 -449 74 -449 35 -449 c 2,33,-1
 -4 -449 l 1,34,-1
 -4 -391 l 1,35,-1
 35 -391 l 2,36,37
 68 -391 68 -391 90.5 -368.5 c 128,-1,38
 113 -346 113 -346 113 -313 c 2,39,-1
 113 -273 l 2,40,41
 113 -217 113 -217 159 -177 c 128,-1,42
 205 -137 205 -137 270 -137 c 2,43,-1
 738 -137 l 2,44,45
 885 -137 885 -137 987.5 -39 c 128,-1,46
 1090 59 1090 59 1090 195 c 2,47,-1
 1090 508 l 2,48,49
 1090 588 1090 588 1021.5 645.5 c 128,-1,50
 953 703 953 703 855 703 c 0,51,52
 758 703 758 703 689.5 651.5 c 128,-1,53
 621 600 621 600 621 527 c 2,54,-1
 621 137 l 2,55,56
 621 104 621 104 643.5 81.5 c 128,-1,57
 666 59 666 59 699 59 c 2,58,-1
 738 59 l 1,59,-1
 738 0 l 1,60,-1
 699 0 l 2,61,62
 660 0 660 0 629 15.5 c 128,-1,63
 598 31 598 31 582 59 c 1,64,65
 566 31 566 31 535 15.5 c 128,-1,66
 504 0 504 0 465 0 c 2,67,-1
 426 0 l 1,68,-1
 426 59 l 1,69,-1
 465 59 l 2,70,71
 498 59 498 59 520.5 81.5 c 128,-1,72
 543 104 543 104 543 137 c 2,73,-1
 543 527 l 2,74,75
 543 600 543 600 494 651.5 c 128,-1,76
 445 703 445 703 377 703 c 0,77,78
 316 703 316 703 273 651.5 c 128,-1,79
 230 600 230 600 230 527 c 2,80,-1
 230 137 l 2,81,82
 230 104 230 104 252.5 81.5 c 128,-1,83
 275 59 275 59 309 59 c 2,84,-1
 348 59 l 1,85,-1
 348 0 l 1,86,-1
 309 0 l 2,87,88
 270 0 270 0 238.5 15.5 c 128,-1,89
 207 31 207 31 191 59 c 1,90,91
 176 31 176 31 144.5 15.5 c 128,-1,92
 113 0 113 0 74 0 c 2,93,-1
 35 0 l 1,94,-1
 35 59 l 1,95,-1
 74 59 l 2,96,97
 107 59 107 59 129.5 81.5 c 128,-1,98
 152 104 152 104 152 137 c 2,99,-1
 152 527 l 2,0,1
EndSplineSet
EndChar

StartChar: tm_la
Encoding: 2994 2994 77
Width: 1639
GlyphClass: 2
Flags: W
LayerCount: 2
Fore
SplineSet
473 0 m 0,0,1
 303 0 303 0 192.5 108.5 c 128,-1,2
 82 217 82 217 82 381 c 0,3,4
 82 562 82 562 210 671.5 c 128,-1,5
 338 781 338 781 551 781 c 0,6,7
 729 781 729 781 835 696 c 128,-1,8
 941 611 941 611 941 469 c 2,9,-1
 941 215 l 2,10,11
 941 158 941 158 987 118 c 128,-1,12
 1033 78 1033 78 1098 78 c 2,13,-1
 1293 78 l 2,14,15
 1342 78 1342 78 1376 112 c 128,-1,16
 1410 146 1410 146 1410 195 c 2,17,-1
 1410 645 l 2,18,19
 1410 678 1410 678 1387.5 700.5 c 128,-1,20
 1365 723 1365 723 1332 723 c 2,21,-1
 1293 723 l 1,22,-1
 1293 781 l 1,23,-1
 1332 781 l 2,24,25
 1371 781 1371 781 1402.5 765.5 c 128,-1,26
 1434 750 1434 750 1449 723 c 1,27,28
 1465 750 1465 750 1496 765.5 c 128,-1,29
 1527 781 1527 781 1566 781 c 2,30,-1
 1605 781 l 1,31,-1
 1605 723 l 1,32,-1
 1566 723 l 2,33,34
 1533 723 1533 723 1510.5 700.5 c 128,-1,35
 1488 678 1488 678 1488 645 c 2,36,-1
 1488 195 l 2,37,38
 1488 115 1488 115 1430.5 57.5 c 128,-1,39
 1373 0 1373 0 1293 0 c 2,40,-1
 1098 0 l 2,41,42
 1000 0 1000 0 931.5 62.5 c 128,-1,43
 863 125 863 125 863 215 c 2,44,-1
 863 469 l 2,45,46
 863 574 863 574 778 638.5 c 128,-1,47
 693 703 693 703 551 703 c 0,48,49
 373 703 373 703 266.5 615 c 128,-1,50
 160 527 160 527 160 381 c 0,51,52
 160 324 160 324 174.5 276.5 c 128,-1,53
 189 229 189 229 219 195 c 1,54,55
 244 199 244 199 260.5 224.5 c 128,-1,56
 277 250 277 250 277 283 c 0,57,58
 277 367 277 367 345.5 427.5 c 128,-1,59
 414 488 414 488 512 488 c 0,60,61
 609 488 609 488 677.5 422.5 c 128,-1,62
 746 357 746 357 746 264 c 0,63,64
 746 154 746 154 666 77 c 128,-1,65
 586 0 586 0 473 0 c 0,0,1
473 78 m 0,66,67
 553 78 553 78 610.5 132.5 c 128,-1,68
 668 187 668 187 668 264 c 0,69,70
 668 324 668 324 622 367 c 128,-1,71
 576 410 576 410 512 410 c 0,72,73
 447 410 447 410 401 373 c 128,-1,74
 355 336 355 336 355 283 c 0,75,76
 355 246 355 246 377.5 220.5 c 128,-1,77
 400 195 400 195 434 195 c 2,78,-1
 473 195 l 1,79,-1
 473 137 l 1,80,-1
 434 137 l 2,81,82
 400 137 400 137 369 155.5 c 128,-1,83
 338 174 338 174 316 205 c 1,84,85
 309 186 309 186 293 170 c 128,-1,86
 277 154 277 154 258 146 c 1,87,88
 281 115 281 115 338 96.5 c 128,-1,89
 395 78 395 78 473 78 c 0,66,67
EndSplineSet
EndChar

StartChar: tm_lla
Encoding: 2995 2995 78
Width: 1652
GlyphClass: 2
Flags: W
LayerCount: 2
Fore
SplineSet
473 0 m 0,0,1
 303 0 303 0 192.5 108.5 c 128,-1,2
 82 217 82 217 82 381 c 0,3,4
 82 562 82 562 216 671.5 c 128,-1,5
 350 781 350 781 570 781 c 0,6,7
 699 781 699 781 797 745 c 128,-1,8
 895 709 895 709 941 645 c 1,9,10
 941 701 941 701 978.5 741 c 128,-1,11
 1016 781 1016 781 1068 781 c 2,12,-1
 1488 781 l 2,13,14
 1516 781 1516 781 1538.5 803.5 c 128,-1,15
 1561 826 1561 826 1566 859 c 1,16,-1
 1625 859 l 1,17,18
 1625 820 1625 820 1609.5 789 c 128,-1,19
 1594 758 1594 758 1566 742 c 1,20,21
 1594 727 1594 727 1609.5 695.5 c 128,-1,22
 1625 664 1625 664 1625 625 c 1,23,-1
 1566 625 l 1,24,25
 1561 658 1561 658 1538.5 680.5 c 128,-1,26
 1516 703 1516 703 1488 703 c 2,27,-1
 1410 703 l 1,28,-1
 1410 137 l 2,29,30
 1410 104 1410 104 1432.5 81.5 c 128,-1,31
 1455 59 1455 59 1488 59 c 2,32,-1
 1527 59 l 1,33,-1
 1527 0 l 1,34,-1
 1488 0 l 2,35,36
 1449 0 1449 0 1418 15.5 c 128,-1,37
 1387 31 1387 31 1371 59 c 1,38,39
 1355 31 1355 31 1326 15.5 c 128,-1,40
 1297 0 1297 0 1264 0 c 2,41,-1
 1234 0 l 1,42,-1
 1234 59 l 1,43,-1
 1264 59 l 2,44,45
 1291 59 1291 59 1311.5 81.5 c 128,-1,46
 1332 104 1332 104 1332 137 c 2,47,-1
 1332 703 l 1,48,-1
 1068 703 l 2,49,50
 1049 703 1049 703 1034.5 685.5 c 128,-1,51
 1020 668 1020 668 1020 645 c 2,52,-1
 1020 137 l 2,53,54
 1020 104 1020 104 1042 81.5 c 128,-1,55
 1064 59 1064 59 1098 59 c 2,56,-1
 1137 59 l 1,57,-1
 1137 0 l 1,58,-1
 1098 0 l 2,59,60
 1059 0 1059 0 1027.5 15.5 c 128,-1,61
 996 31 996 31 980 59 c 1,62,63
 965 31 965 31 933.5 15.5 c 128,-1,64
 902 0 902 0 863 0 c 2,65,-1
 824 0 l 1,66,-1
 824 59 l 1,67,-1
 863 59 l 2,68,69
 896 59 896 59 918.5 81.5 c 128,-1,70
 941 104 941 104 941 137 c 2,71,-1
 941 459 l 2,72,73
 941 561 941 561 833 632 c 128,-1,74
 725 703 725 703 570 703 c 0,75,76
 385 703 385 703 272.5 615 c 128,-1,77
 160 527 160 527 160 381 c 0,78,79
 160 324 160 324 174.5 276.5 c 128,-1,80
 189 229 189 229 219 195 c 1,81,82
 244 199 244 199 260.5 224.5 c 128,-1,83
 277 250 277 250 277 283 c 0,84,85
 277 367 277 367 345.5 427.5 c 128,-1,86
 414 488 414 488 512 488 c 0,87,88
 609 488 609 488 677.5 422.5 c 128,-1,89
 746 357 746 357 746 264 c 0,90,91
 746 154 746 154 666 77 c 128,-1,92
 586 0 586 0 473 0 c 0,0,1
473 78 m 0,93,94
 553 78 553 78 610.5 132.5 c 128,-1,95
 668 187 668 187 668 264 c 0,96,97
 668 324 668 324 622 367 c 128,-1,98
 576 410 576 410 512 410 c 0,99,100
 447 410 447 410 401 373 c 128,-1,101
 355 336 355 336 355 283 c 0,102,103
 355 246 355 246 377.5 220.5 c 128,-1,104
 400 195 400 195 434 195 c 2,105,-1
 473 195 l 1,106,-1
 473 137 l 1,107,-1
 434 137 l 2,108,109
 400 137 400 137 369 155.5 c 128,-1,110
 338 174 338 174 316 205 c 1,111,112
 309 186 309 186 293 170 c 128,-1,113
 277 154 277 154 258 146 c 1,114,115
 281 115 281 115 338 96.5 c 128,-1,116
 395 78 395 78 473 78 c 0,93,94
EndSplineSet
EndChar

StartChar: tm_llla
Encoding: 2996 2996 79
Width: 1209
GlyphClass: 2
Flags: W
LayerCount: 2
Fore
SplineSet
326 -586 m 0,0,1
 203 -586 203 -586 118 -512.5 c 128,-1,2
 33 -439 33 -439 43 -342 c 0,3,4
 43 -324 43 -324 48 -288 c 128,-1,5
 53 -252 53 -252 53 -234 c 0,6,7
 53 -207 53 -207 40 -183.5 c 128,-1,8
 27 -160 27 -160 4 -146 c 1,9,-1
 33 -98 l 1,10,11
 64 -105 64 -105 87.5 -125.5 c 128,-1,12
 111 -146 111 -146 121 -176 c 1,13,14
 133 -172 133 -172 147.5 -169 c 128,-1,15
 162 -166 162 -166 180 -166 c 0,16,17
 201 -166 201 -166 224.5 -178.5 c 128,-1,18
 248 -191 248 -191 268 -215 c 1,19,-1
 248 -264 l 1,20,21
 236 -250 236 -250 218.5 -242 c 128,-1,22
 201 -234 201 -234 180 -234 c 0,23,24
 152 -234 152 -234 131.5 -265.5 c 128,-1,25
 111 -297 111 -297 111 -342 c 0,26,27
 111 -410 111 -410 173.5 -459 c 128,-1,28
 236 -508 236 -508 326 -508 c 256,29,30
 416 -508 416 -508 510.5 -454 c 128,-1,31
 605 -400 605 -400 687 -303 c 0,32,33
 727 -256 727 -256 757 -225.5 c 128,-1,34
 787 -195 787 -195 805 -186 c 1,35,36
 723 -156 723 -156 668 -106.5 c 128,-1,37
 613 -57 613 -57 600 0 c 1,38,-1
 346 0 l 2,39,40
 270 0 270 0 213 53.5 c 128,-1,41
 156 107 156 107 150 186 c 1,42,-1
 150 645 l 2,43,44
 150 678 150 678 127.5 700.5 c 128,-1,45
 105 723 105 723 72 723 c 2,46,-1
 33 723 l 1,47,-1
 33 781 l 1,48,-1
 72 781 l 2,49,50
 111 781 111 781 142.5 765.5 c 128,-1,51
 174 750 174 750 189 723 c 1,52,53
 205 750 205 750 236.5 765.5 c 128,-1,54
 268 781 268 781 307 781 c 2,55,-1
 346 781 l 1,56,-1
 346 723 l 1,57,-1
 307 723 l 2,58,59
 273 723 273 723 251 700.5 c 128,-1,60
 229 678 229 678 229 645 c 2,61,-1
 229 186 l 2,62,63
 229 141 229 141 263 109.5 c 128,-1,64
 297 78 297 78 346 78 c 2,65,-1
 580 78 l 1,66,-1
 580 547 l 2,67,68
 580 645 580 645 654.5 713 c 128,-1,69
 729 781 729 781 834 781 c 256,70,71
 939 781 939 781 1013.5 713 c 128,-1,72
 1088 645 1088 645 1088 547 c 2,73,-1
 1088 215 l 2,74,75
 1088 125 1088 125 1025.5 62.5 c 128,-1,76
 963 0 963 0 873 0 c 2,77,-1
 687 0 l 1,78,79
 719 -55 719 -55 773.5 -86 c 128,-1,80
 828 -117 828 -117 893 -117 c 0,81,82
 941 -117 941 -117 975.5 -94.5 c 128,-1,83
 1010 -72 1010 -72 1010 -39 c 1,84,-1
 1068 -39 l 1,85,86
 1068 -74 1068 -74 1052.5 -105.5 c 128,-1,87
 1037 -137 1037 -137 1010 -156 c 1,88,89
 1035 -162 1035 -162 1051.5 -184.5 c 128,-1,90
 1068 -207 1068 -207 1068 -234 c 0,91,92
 1068 -246 1068 -246 1063.5 -257 c 128,-1,93
 1059 -268 1059 -268 1049 -273 c 1,94,-1
 971 -273 l 1,95,96
 980 -266 980 -266 985 -256 c 128,-1,97
 990 -246 990 -246 990 -234 c 0,98,99
 990 -219 990 -219 969.5 -207 c 128,-1,100
 949 -195 949 -195 922 -195 c 0,101,102
 904 -195 904 -195 880.5 -211 c 128,-1,103
 857 -227 857 -227 834 -254 c 0,104,105
 701 -412 701 -412 568.5 -499 c 128,-1,106
 436 -586 436 -586 326 -586 c 0,0,1
873 78 m 2,107,108
 930 78 930 78 970 118 c 128,-1,109
 1010 158 1010 158 1010 215 c 2,110,-1
 1010 547 l 2,111,112
 1010 611 1010 611 958 657 c 128,-1,113
 906 703 906 703 834 703 c 256,114,115
 762 703 762 703 710 657 c 128,-1,116
 658 611 658 611 658 547 c 2,117,-1
 658 78 l 1,118,-1
 873 78 l 2,107,108
EndSplineSet
EndChar

StartChar: tm_va
Encoding: 2997 2997 80
Width: 1639
GlyphClass: 2
Flags: W
LayerCount: 2
Fore
SplineSet
475 0 m 0,0,1
 305 0 305 0 194.5 108.5 c 128,-1,2
 84 217 84 217 84 381 c 0,3,4
 84 562 84 562 207 671.5 c 128,-1,5
 330 781 330 781 533 781 c 0,6,7
 746 781 746 781 874 669 c 128,-1,8
 1002 557 1002 557 1002 371 c 0,9,10
 1002 289 1002 289 971.5 213 c 128,-1,11
 941 137 941 137 885 78 c 1,12,-1
 1295 78 l 2,13,14
 1344 78 1344 78 1378 118 c 128,-1,15
 1412 158 1412 158 1412 215 c 2,16,-1
 1412 645 l 2,17,18
 1412 678 1412 678 1389.5 700.5 c 128,-1,19
 1367 723 1367 723 1334 723 c 2,20,-1
 1295 723 l 1,21,-1
 1295 781 l 1,22,-1
 1334 781 l 2,23,24
 1373 781 1373 781 1404.5 765.5 c 128,-1,25
 1436 750 1436 750 1451 723 c 1,26,27
 1467 750 1467 750 1498 765.5 c 128,-1,28
 1529 781 1529 781 1568 781 c 2,29,-1
 1607 781 l 1,30,-1
 1607 723 l 1,31,-1
 1568 723 l 2,32,33
 1535 723 1535 723 1512.5 700.5 c 128,-1,34
 1490 678 1490 678 1490 645 c 2,35,-1
 1490 215 l 2,36,37
 1490 125 1490 125 1432.5 62.5 c 128,-1,38
 1375 0 1375 0 1295 0 c 2,39,-1
 748 0 l 1,40,-1
 748 78 l 1,41,-1
 768 78 l 1,42,43
 840 119 840 119 882 198 c 128,-1,44
 924 277 924 277 924 371 c 0,45,46
 924 521 924 521 817.5 612 c 128,-1,47
 711 703 711 703 533 703 c 0,48,49
 365 703 365 703 263.5 615 c 128,-1,50
 162 527 162 527 162 381 c 0,51,52
 162 324 162 324 176.5 276.5 c 128,-1,53
 191 229 191 229 221 195 c 1,54,55
 246 199 246 199 262.5 224.5 c 128,-1,56
 279 250 279 250 279 283 c 0,57,58
 279 367 279 367 347.5 427.5 c 128,-1,59
 416 488 416 488 514 488 c 0,60,61
 611 488 611 488 679.5 422.5 c 128,-1,62
 748 357 748 357 748 264 c 0,63,64
 748 154 748 154 668 77 c 128,-1,65
 588 0 588 0 475 0 c 0,0,1
475 78 m 0,66,67
 555 78 555 78 612.5 132.5 c 128,-1,68
 670 187 670 187 670 264 c 0,69,70
 670 324 670 324 624 367 c 128,-1,71
 578 410 578 410 514 410 c 0,72,73
 449 410 449 410 403 373 c 128,-1,74
 357 336 357 336 357 283 c 0,75,76
 357 246 357 246 379.5 220.5 c 128,-1,77
 402 195 402 195 436 195 c 2,78,-1
 475 195 l 1,79,-1
 475 137 l 1,80,-1
 436 137 l 2,81,82
 402 137 402 137 371 155.5 c 128,-1,83
 340 174 340 174 318 205 c 1,84,85
 311 186 311 186 295 170 c 128,-1,86
 279 154 279 154 260 146 c 1,87,88
 283 115 283 115 339.5 96.5 c 128,-1,89
 396 78 396 78 475 78 c 0,66,67
EndSplineSet
EndChar

StartChar: tm_ssa
Encoding: 2999 2999 81
Width: 2111
GlyphClass: 2
Flags: W
LayerCount: 2
Fore
SplineSet
1742 -195 m 1,0,-1
 1703 -195 l 2,1,2
 1664 -195 1664 -195 1633 -179.5 c 128,-1,3
 1602 -164 1602 -164 1586 -137 c 1,4,5
 1570 -164 1570 -164 1539 -179.5 c 128,-1,6
 1508 -195 1508 -195 1469 -195 c 2,7,-1
 1430 -195 l 1,8,-1
 1430 -137 l 1,9,-1
 1469 -137 l 2,10,11
 1502 -137 1502 -137 1524.5 -114.5 c 128,-1,12
 1547 -92 1547 -92 1547 -59 c 2,13,-1
 1547 0 l 1,14,-1
 746 0 l 1,15,-1
 746 78 l 1,16,17
 824 98 824 98 873 184.5 c 128,-1,18
 922 271 922 271 922 391 c 0,19,20
 922 533 922 533 820.5 618 c 128,-1,21
 719 703 719 703 551 703 c 0,22,23
 373 703 373 703 266.5 615 c 128,-1,24
 160 527 160 527 160 381 c 0,25,26
 160 324 160 324 174.5 276.5 c 128,-1,27
 189 229 189 229 219 195 c 1,28,29
 246 213 246 213 261.5 234.5 c 128,-1,30
 277 256 277 256 277 273 c 0,31,32
 277 363 277 363 339.5 425.5 c 128,-1,33
 402 488 402 488 492 488 c 0,34,35
 598 488 598 488 672 422.5 c 128,-1,36
 746 357 746 357 746 264 c 0,37,38
 746 154 746 154 660 77 c 128,-1,39
 574 0 574 0 453 0 c 0,40,41
 299 0 299 0 190.5 111.5 c 128,-1,42
 82 223 82 223 82 381 c 0,43,44
 82 562 82 562 210 671.5 c 128,-1,45
 338 781 338 781 551 781 c 0,46,47
 760 781 760 781 885 674.5 c 128,-1,48
 1010 568 1010 568 1010 391 c 0,49,50
 1010 299 1010 299 979.5 218 c 128,-1,51
 949 137 949 137 893 78 c 1,52,-1
 1547 78 l 1,53,-1
 1547 352 l 1,54,-1
 1332 352 l 2,55,56
 1242 352 1242 352 1179.5 412.5 c 128,-1,57
 1117 473 1117 473 1117 557 c 0,58,59
 1117 650 1117 650 1188.5 715.5 c 128,-1,60
 1260 781 1260 781 1361 781 c 0,61,62
 1471 781 1471 781 1548 715.5 c 128,-1,63
 1625 650 1625 650 1625 557 c 2,64,-1
 1625 430 l 1,65,-1
 1840 430 l 2,66,67
 1930 430 1930 430 1992.5 372 c 128,-1,68
 2055 314 2055 314 2055 234 c 0,69,70
 2055 137 2055 137 1989.5 68.5 c 128,-1,71
 1924 0 1924 0 1830 0 c 2,72,-1
 1625 0 l 1,73,-1
 1625 -59 l 2,74,75
 1625 -92 1625 -92 1647.5 -114.5 c 128,-1,76
 1670 -137 1670 -137 1703 -137 c 2,77,-1
 1742 -137 l 1,78,-1
 1742 -195 l 1,0,-1
1830 78 m 2,79,80
 1891 78 1891 78 1934 124 c 128,-1,81
 1977 170 1977 170 1977 234 c 0,82,83
 1977 283 1977 283 1936.5 317.5 c 128,-1,84
 1896 352 1896 352 1840 352 c 2,85,-1
 1625 352 l 1,86,-1
 1625 78 l 1,87,-1
 1830 78 l 2,79,80
1547 430 m 1,88,-1
 1547 557 l 2,89,90
 1547 617 1547 617 1492 660 c 128,-1,91
 1437 703 1437 703 1361 703 c 0,92,93
 1293 703 1293 703 1244 660 c 128,-1,94
 1195 617 1195 617 1195 557 c 0,95,96
 1195 504 1195 504 1235 467 c 128,-1,97
 1275 430 1275 430 1332 430 c 2,98,-1
 1547 430 l 1,88,-1
453 78 m 0,99,100
 543 78 543 78 605.5 132.5 c 128,-1,101
 668 187 668 187 668 264 c 0,102,103
 668 324 668 324 616 367 c 128,-1,104
 564 410 564 410 492 410 c 0,105,106
 436 410 436 410 395.5 373 c 128,-1,107
 355 336 355 336 355 283 c 0,108,109
 355 246 355 246 377.5 220.5 c 128,-1,110
 400 195 400 195 434 195 c 2,111,-1
 473 195 l 1,112,-1
 473 137 l 1,113,-1
 434 137 l 2,114,115
 395 137 395 137 359.5 152.5 c 128,-1,116
 324 168 324 168 297 195 c 1,117,118
 285 182 285 182 274.5 165 c 128,-1,119
 264 148 264 148 258 146 c 1,120,121
 285 113 285 113 336 95.5 c 128,-1,122
 387 78 387 78 453 78 c 0,99,100
EndSplineSet
EndChar

StartChar: tm_sa
Encoding: 3000 3000 82
Width: 2088
GlyphClass: 2
Flags: W
LayerCount: 2
Fore
SplineSet
475 0 m 0,0,1
 305 0 305 0 194.5 110.5 c 128,-1,2
 84 221 84 221 84 391 c 0,3,4
 84 568 84 568 209 674.5 c 128,-1,5
 334 781 334 781 543 781 c 0,6,7
 689 781 689 781 796.5 733.5 c 128,-1,8
 904 686 904 686 934 605 c 1,9,10
 947 682 947 682 1010.5 731.5 c 128,-1,11
 1074 781 1074 781 1158 781 c 0,12,13
 1256 781 1256 781 1324.5 713 c 128,-1,14
 1393 645 1393 645 1393 547 c 2,15,-1
 1393 215 l 2,16,17
 1393 158 1393 158 1444.5 118 c 128,-1,18
 1496 78 1496 78 1568 78 c 2,19,-1
 1725 78 l 2,20,21
 1781 78 1781 78 1821 118 c 128,-1,22
 1861 158 1861 158 1861 215 c 2,23,-1
 1861 645 l 2,24,25
 1861 678 1861 678 1838.5 700.5 c 128,-1,26
 1816 723 1816 723 1783 723 c 2,27,-1
 1744 723 l 1,28,-1
 1744 781 l 1,29,-1
 1783 781 l 2,30,31
 1822 781 1822 781 1853.5 765.5 c 128,-1,32
 1885 750 1885 750 1900 723 c 1,33,34
 1916 750 1916 750 1947.5 765.5 c 128,-1,35
 1979 781 1979 781 2018 781 c 2,36,-1
 2057 781 l 1,37,-1
 2057 723 l 1,38,-1
 2018 723 l 2,39,40
 1984 723 1984 723 1961.5 700.5 c 128,-1,41
 1939 678 1939 678 1939 645 c 2,42,-1
 1939 215 l 2,43,44
 1939 125 1939 125 1876.5 62.5 c 128,-1,45
 1814 0 1814 0 1725 0 c 2,46,-1
 1568 0 l 2,47,48
 1463 0 1463 0 1388.5 62.5 c 128,-1,49
 1314 125 1314 125 1314 215 c 2,50,-1
 1314 547 l 2,51,52
 1314 611 1314 611 1268.5 657 c 128,-1,53
 1223 703 1223 703 1158 703 c 0,54,55
 1094 703 1094 703 1048 657 c 128,-1,56
 1002 611 1002 611 1002 547 c 2,57,-1
 1002 137 l 2,58,59
 1002 104 1002 104 1024.5 81.5 c 128,-1,60
 1047 59 1047 59 1080 59 c 2,61,-1
 1119 59 l 1,62,-1
 1119 0 l 1,63,-1
 1080 0 l 2,64,65
 1041 0 1041 0 1010 15.5 c 128,-1,66
 979 31 979 31 963 59 c 1,67,68
 947 31 947 31 916 15.5 c 128,-1,69
 885 0 885 0 846 0 c 2,70,-1
 807 0 l 1,71,-1
 807 59 l 1,72,-1
 846 59 l 2,73,74
 879 59 879 59 901.5 81.5 c 128,-1,75
 924 104 924 104 924 137 c 2,76,-1
 924 439 l 2,77,78
 924 559 924 559 819.5 631 c 128,-1,79
 715 703 715 703 543 703 c 256,80,81
 371 703 371 703 266.5 618 c 128,-1,82
 162 533 162 533 162 391 c 0,83,84
 162 330 162 330 176.5 279.5 c 128,-1,85
 191 229 191 229 221 195 c 1,86,87
 246 199 246 199 262.5 224.5 c 128,-1,88
 279 250 279 250 279 283 c 0,89,90
 279 367 279 367 347.5 427.5 c 128,-1,91
 416 488 416 488 514 488 c 0,92,93
 611 488 611 488 679.5 422.5 c 128,-1,94
 748 357 748 357 748 264 c 0,95,96
 748 154 748 154 668 77 c 128,-1,97
 588 0 588 0 475 0 c 0,0,1
475 78 m 0,98,99
 555 78 555 78 612.5 132.5 c 128,-1,100
 670 187 670 187 670 264 c 0,101,102
 670 324 670 324 624 367 c 128,-1,103
 578 410 578 410 514 410 c 0,104,105
 449 410 449 410 403 373 c 128,-1,106
 357 336 357 336 357 283 c 0,107,108
 357 246 357 246 379.5 220.5 c 128,-1,109
 402 195 402 195 436 195 c 2,110,-1
 475 195 l 1,111,-1
 475 137 l 1,112,-1
 436 137 l 2,113,114
 402 137 402 137 371 155.5 c 128,-1,115
 340 174 340 174 318 205 c 1,116,117
 311 186 311 186 295 170 c 128,-1,118
 279 154 279 154 260 146 c 1,119,120
 283 115 283 115 339.5 96.5 c 128,-1,121
 396 78 396 78 475 78 c 0,98,99
EndSplineSet
EndChar

StartChar: tm_ha
Encoding: 3001 3001 83
Width: 2312
GlyphClass: 2
Flags: W
LayerCount: 2
Fore
SplineSet
395 -449 m 1,0,-1
 355 -449 l 2,1,2
 316 -449 316 -449 285 -433.5 c 128,-1,3
 254 -418 254 -418 238 -391 c 1,4,5
 223 -418 223 -418 191.5 -433.5 c 128,-1,6
 160 -449 160 -449 121 -449 c 2,7,-1
 82 -449 l 1,8,-1
 82 -391 l 1,9,-1
 121 -391 l 2,10,11
 154 -391 154 -391 176.5 -362.5 c 128,-1,12
 199 -334 199 -334 199 -293 c 0,13,14
 199 -229 199 -229 254 -183 c 128,-1,15
 309 -137 309 -137 385 -137 c 2,16,-1
 1781 -137 l 2,17,18
 1918 -137 1918 -137 2015.5 -34.5 c 128,-1,19
 2113 68 2113 68 2113 215 c 2,20,-1
 2113 469 l 2,21,22
 2113 566 2113 566 2045 634.5 c 128,-1,23
 1977 703 1977 703 1879 703 c 256,24,25
 1781 703 1781 703 1713 657 c 128,-1,26
 1645 611 1645 611 1645 547 c 2,27,-1
 1645 137 l 2,28,29
 1645 104 1645 104 1667 81.5 c 128,-1,30
 1689 59 1689 59 1723 59 c 2,31,-1
 1762 59 l 1,32,-1
 1762 0 l 1,33,-1
 1723 0 l 2,34,35
 1684 0 1684 0 1652.5 15.5 c 128,-1,36
 1621 31 1621 31 1605 59 c 1,37,38
 1590 31 1590 31 1558.5 15.5 c 128,-1,39
 1527 0 1527 0 1488 0 c 2,40,-1
 1449 0 l 1,41,-1
 1449 59 l 1,42,-1
 1488 59 l 2,43,44
 1521 59 1521 59 1543.5 81.5 c 128,-1,45
 1566 104 1566 104 1566 137 c 2,46,-1
 1566 547 l 2,47,48
 1566 611 1566 611 1523 657 c 128,-1,49
 1480 703 1480 703 1420 703 c 0,50,51
 1352 703 1352 703 1303 651.5 c 128,-1,52
 1254 600 1254 600 1254 527 c 2,53,-1
 1254 0 l 1,54,-1
 746 0 l 1,55,-1
 746 78 l 1,56,57
 826 113 826 113 874 198 c 128,-1,58
 922 283 922 283 922 391 c 0,59,60
 922 533 922 533 815.5 618 c 128,-1,61
 709 703 709 703 531 703 c 0,62,63
 363 703 363 703 261.5 612 c 128,-1,64
 160 521 160 521 160 371 c 0,65,66
 160 314 160 314 175.5 268.5 c 128,-1,67
 191 223 191 223 219 195 c 1,68,69
 246 211 246 211 261.5 237.5 c 128,-1,70
 277 264 277 264 277 293 c 0,71,72
 277 377 277 377 345.5 437.5 c 128,-1,73
 414 498 414 498 512 498 c 0,74,75
 609 498 609 498 677.5 429.5 c 128,-1,76
 746 361 746 361 746 264 c 0,77,78
 746 154 746 154 666 77 c 128,-1,79
 586 0 586 0 473 0 c 0,80,81
 311 0 311 0 196.5 108.5 c 128,-1,82
 82 217 82 217 82 371 c 0,83,84
 82 557 82 557 205 669 c 128,-1,85
 328 781 328 781 531 781 c 0,86,87
 744 781 744 781 872 674.5 c 128,-1,88
 1000 568 1000 568 1000 391 c 0,89,90
 1000 293 1000 293 967 211 c 128,-1,91
 934 129 934 129 873 78 c 1,92,-1
 1176 78 l 1,93,-1
 1176 527 l 2,94,95
 1176 633 1176 633 1247 707 c 128,-1,96
 1318 781 1318 781 1420 781 c 0,97,98
 1479 781 1479 781 1529.5 750 c 128,-1,99
 1580 719 1580 719 1605 664 c 1,100,101
 1652 721 1652 721 1723.5 751 c 128,-1,102
 1795 781 1795 781 1879 781 c 0,103,104
 2008 781 2008 781 2099.5 689.5 c 128,-1,105
 2191 598 2191 598 2191 469 c 2,106,-1
 2191 215 l 2,107,108
 2191 37 2191 37 2071 -89 c 128,-1,109
 1951 -215 1951 -215 1781 -215 c 2,110,-1
 385 -215 l 2,111,112
 340 -215 340 -215 308.5 -237.5 c 128,-1,113
 277 -260 277 -260 277 -293 c 0,114,115
 277 -334 277 -334 299.5 -362.5 c 128,-1,116
 322 -391 322 -391 355 -391 c 2,117,-1
 395 -391 l 1,118,-1
 395 -449 l 1,0,-1
473 78 m 0,119,120
 553 78 553 78 610.5 132.5 c 128,-1,121
 668 187 668 187 668 264 c 0,122,123
 668 324 668 324 622 367 c 128,-1,124
 576 410 576 410 512 410 c 0,125,126
 447 410 447 410 401 376 c 128,-1,127
 355 342 355 342 355 293 c 0,128,129
 355 252 355 252 380.5 223.5 c 128,-1,130
 406 195 406 195 443 195 c 2,131,-1
 473 195 l 1,132,-1
 473 137 l 1,133,-1
 443 137 l 2,134,135
 406 137 406 137 373 152.5 c 128,-1,136
 340 168 340 168 316 195 c 1,137,138
 311 180 311 180 295 167 c 128,-1,139
 279 154 279 154 258 146 c 1,140,141
 291 113 291 113 347.5 95.5 c 128,-1,142
 404 78 404 78 473 78 c 0,119,120
EndSplineSet
EndChar

StartChar: tm_aakaar
Encoding: 3006 3006 84
Width: 932
GlyphClass: 2
Flags: W
LayerCount: 2
Fore
SplineSet
742 0 m 1,0,-1
 703 0 l 2,1,2
 664 0 664 0 633 15.5 c 128,-1,3
 602 31 602 31 586 59 c 1,4,5
 570 31 570 31 539 15.5 c 128,-1,6
 508 0 508 0 469 0 c 2,7,-1
 430 0 l 1,8,-1
 430 59 l 1,9,-1
 469 59 l 2,10,11
 502 59 502 59 524.5 81.5 c 128,-1,12
 547 104 547 104 547 137 c 2,13,-1
 547 703 l 1,14,-1
 283 703 l 2,15,16
 264 703 264 703 249 691.5 c 128,-1,17
 234 680 234 680 234 664 c 2,18,-1
 234 137 l 2,19,20
 234 104 234 104 256.5 81.5 c 128,-1,21
 279 59 279 59 312 59 c 2,22,-1
 352 59 l 1,23,-1
 352 0 l 1,24,-1
 312 0 l 2,25,26
 273 0 273 0 242 15.5 c 128,-1,27
 211 31 211 31 195 59 c 1,28,29
 180 31 180 31 148.5 15.5 c 128,-1,30
 117 0 117 0 78 0 c 2,31,-1
 39 0 l 1,32,-1
 39 59 l 1,33,-1
 78 59 l 2,34,35
 111 59 111 59 133.5 81.5 c 128,-1,36
 156 104 156 104 156 137 c 2,37,-1
 156 664 l 2,38,39
 156 713 156 713 193 747 c 128,-1,40
 230 781 230 781 283 781 c 2,41,-1
 771 781 l 2,42,43
 805 781 805 781 827.5 803.5 c 128,-1,44
 850 826 850 826 850 859 c 1,45,-1
 908 859 l 1,46,47
 908 820 908 820 892.5 789 c 128,-1,48
 877 758 877 758 850 742 c 1,49,50
 877 727 877 727 892.5 695.5 c 128,-1,51
 908 664 908 664 908 625 c 1,52,-1
 850 625 l 1,53,54
 850 658 850 658 827.5 680.5 c 128,-1,55
 805 703 805 703 771 703 c 2,56,-1
 625 703 l 1,57,-1
 625 137 l 2,58,59
 625 104 625 104 647.5 81.5 c 128,-1,60
 670 59 670 59 703 59 c 2,61,-1
 742 59 l 1,62,-1
 742 0 l 1,0,-1
EndSplineSet
EndChar

StartChar: tm_ikaar
Encoding: 3007 3007 85
Width: 759
GlyphClass: 2
Flags: W
LayerCount: 2
Fore
SplineSet
-355 1016 m 0,0,1
 -355 1176 -355 1176 -237.5 1271.5 c 128,-1,2
 -120 1367 -120 1367 75 1367 c 0,3,4
 306 1367 306 1367 444.5 1236 c 128,-1,5
 583 1105 583 1105 583 889 c 2,6,-1
 583 137 l 2,7,8
 583 104 583 104 605.5 81.5 c 128,-1,9
 628 59 628 59 661 59 c 2,10,-1
 700 59 l 1,11,-1
 700 0 l 1,12,-1
 661 0 l 2,13,14
 622 0 622 0 591 15.5 c 128,-1,15
 560 31 560 31 544 59 c 1,16,17
 528 31 528 31 497 15.5 c 128,-1,18
 466 0 466 0 427 0 c 2,19,-1
 388 0 l 1,20,-1
 388 59 l 1,21,-1
 427 59 l 2,22,23
 460 59 460 59 482.5 81.5 c 128,-1,24
 505 104 505 104 505 137 c 2,25,-1
 505 889 l 2,26,27
 505 1070 505 1070 387.5 1179.5 c 128,-1,28
 270 1289 270 1289 75 1289 c 0,29,30
 -71 1289 -71 1289 -173.5 1209 c 128,-1,31
 -276 1129 -276 1129 -276 1016 c 0,32,33
 -276 939 -276 939 -253 877.5 c 128,-1,34
 -230 816 -230 816 -189 781 c 1,35,-1
 -276 781 l 1,36,37
 -315 838 -315 838 -335 897.5 c 128,-1,38
 -355 957 -355 957 -355 1016 c 0,0,1
EndSplineSet
EndChar

StartChar: tm_iikaar
Encoding: 3008 3008 86
Width: 239
GlyphClass: 4
Flags: W
LayerCount: 2
Fore
SplineSet
-151 1367 m 0,0,1
 -24 1367 -24 1367 59 1300.5 c 128,-1,2
 142 1234 142 1234 142 1133 c 0,3,4
 142 1035 142 1035 73.5 966.5 c 128,-1,5
 5 898 5 898 -92 898 c 0,6,7
 -143 898 -143 898 -187 916 c 128,-1,8
 -231 934 -231 934 -258 967 c 0,9,10
 -266 971 -266 971 -278.5 974 c 128,-1,11
 -291 977 -291 977 -307 977 c 0,12,13
 -321 977 -321 977 -331.5 966 c 128,-1,14
 -342 955 -342 955 -346 937 c 1,15,16
 -330 896 -330 896 -295 856 c 128,-1,17
 -260 816 -260 816 -209 781 c 1,18,-1
 -307 781 l 1,19,20
 -375 832 -375 832 -414.5 912 c 128,-1,21
 -454 992 -454 992 -454 1084 c 0,22,23
 -454 1207 -454 1207 -368 1287 c 128,-1,24
 -282 1367 -282 1367 -151 1367 c 0,0,1
-92 977 m 0,25,26
 -28 977 -28 977 18 1022.5 c 128,-1,27
 64 1068 64 1068 64 1133 c 0,28,29
 64 1197 64 1197 1.5 1243 c 128,-1,30
 -61 1289 -61 1289 -151 1289 c 0,31,32
 -245 1289 -245 1289 -310 1228.5 c 128,-1,33
 -375 1168 -375 1168 -375 1084 c 0,34,35
 -375 1059 -375 1059 -372.5 1039.5 c 128,-1,36
 -370 1020 -370 1020 -366 1006 c 1,37,38
 -362 1020 -362 1020 -340.5 1027.5 c 128,-1,39
 -319 1035 -319 1035 -288 1035 c 1,40,41
 -295 1080 -295 1080 -278.5 1118 c 128,-1,42
 -262 1156 -262 1156 -229 1172 c 1,43,-1
 -180 1133 l 1,44,45
 -198 1123 -198 1123 -208.5 1104.5 c 128,-1,46
 -219 1086 -219 1086 -219 1064 c 0,47,48
 -219 1027 -219 1027 -182 1002 c 128,-1,49
 -145 977 -145 977 -92 977 c 0,25,26
EndSplineSet
EndChar

StartChar: tm_ukaar
Encoding: 3009 3009 87
Width: 797
GlyphClass: 4
Flags: W
LayerCount: 2
Fore
SplineSet
490 293 m 0,0,1
 396 293 396 293 331 347.5 c 128,-1,2
 266 402 266 402 266 479 c 0,3,4
 266 512 266 512 278.5 545 c 128,-1,5
 291 578 291 578 314 605 c 0,6,7
 324 617 324 617 329 631.5 c 128,-1,8
 334 646 334 646 334 664 c 0,9,10
 334 680 334 680 325 691.5 c 128,-1,11
 316 703 316 703 305 703 c 2,12,-1
 -330 703 l 1,13,-1
 -330 781 l 1,14,-1
 490 781 l 2,15,16
 592 781 592 781 663 707 c 128,-1,17
 734 633 734 633 734 527 c 0,18,19
 734 430 734 430 663 361.5 c 128,-1,20
 592 293 592 293 490 293 c 0,0,1
490 371 m 0,21,22
 559 371 559 371 607.5 417 c 128,-1,23
 656 463 656 463 656 527 c 0,24,25
 656 600 656 600 607.5 651.5 c 128,-1,26
 559 703 559 703 490 703 c 2,27,-1
 402 703 l 1,28,29
 406 697 406 697 409 686.5 c 128,-1,30
 412 676 412 676 412 664 c 0,31,32
 412 650 412 650 409 640.5 c 128,-1,33
 406 631 406 631 402 625 c 1,34,-1
 412 625 l 2,35,36
 465 625 465 625 502 591 c 128,-1,37
 539 557 539 557 539 508 c 1,38,-1
 471 508 l 1,39,40
 471 527 471 527 453.5 542 c 128,-1,41
 436 557 436 557 412 557 c 0,42,43
 385 557 385 557 364.5 534.5 c 128,-1,44
 344 512 344 512 344 479 c 0,45,46
 344 434 344 434 387 402.5 c 128,-1,47
 430 371 430 371 490 371 c 0,21,22
EndSplineSet
EndChar

StartChar: tm_uukaar
Encoding: 3010 3010 88
Width: 1170
GlyphClass: 4
Flags: W
LayerCount: 2
Fore
SplineSet
568 0 m 0,0,1
 398 0 398 0 278 89 c 128,-1,2
 158 178 158 178 158 303 c 0,3,4
 158 336 158 336 135.5 358.5 c 128,-1,5
 113 381 113 381 80 381 c 1,6,-1
 80 439 l 1,7,8
 119 439 119 439 150.5 423.5 c 128,-1,9
 182 408 182 408 197 381 c 1,10,11
 213 408 213 408 244 423.5 c 128,-1,12
 275 439 275 439 314 439 c 1,13,-1
 314 381 l 1,14,15
 281 381 281 381 258.5 358.5 c 128,-1,16
 236 336 236 336 236 303 c 0,17,18
 236 209 236 209 334 143.5 c 128,-1,19
 432 78 432 78 568 78 c 0,20,21
 764 78 764 78 881 206 c 128,-1,22
 998 334 998 334 998 547 c 0,23,24
 998 732 998 732 907 844.5 c 128,-1,25
 816 957 816 957 666 957 c 0,26,27
 572 957 572 957 495 909 c 128,-1,28
 418 861 418 861 383 781 c 1,29,-1
 500 781 l 2,30,31
 602 781 602 781 673 715.5 c 128,-1,32
 744 650 744 650 744 557 c 0,33,34
 744 463 744 463 678.5 397.5 c 128,-1,35
 613 332 613 332 520 332 c 0,36,37
 414 332 414 332 340 418 c 128,-1,38
 266 504 266 504 266 625 c 0,39,40
 266 650 266 650 268.5 669.5 c 128,-1,41
 271 689 271 689 275 703 c 1,42,-1
 -330 703 l 1,43,-1
 -330 781 l 1,44,-1
 295 781 l 1,45,46
 336 896 336 896 438.5 965.5 c 128,-1,47
 541 1035 541 1035 666 1035 c 0,48,49
 852 1035 852 1035 964 901.5 c 128,-1,50
 1076 768 1076 768 1076 547 c 0,51,52
 1076 299 1076 299 937.5 149.5 c 128,-1,53
 799 0 799 0 568 0 c 0,0,1
520 410 m 0,54,55
 580 410 580 410 623 453 c 128,-1,56
 666 496 666 496 666 557 c 0,57,58
 666 617 666 617 617 660 c 128,-1,59
 568 703 568 703 500 703 c 2,60,-1
 354 703 l 1,61,62
 350 676 350 676 347 656.5 c 128,-1,63
 344 637 344 637 344 625 c 0,64,65
 344 535 344 535 395.5 472.5 c 128,-1,66
 447 410 447 410 520 410 c 0,54,55
EndSplineSet
EndChar

StartChar: tm_ekaar
Encoding: 3014 3014 89
Width: 1346
GlyphClass: 2
Flags: W
LayerCount: 2
Fore
SplineSet
1305 0 m 1,0,-1
 1266 0 l 2,1,2
 1227 0 1227 0 1195.5 15.5 c 128,-1,3
 1164 31 1164 31 1148 59 c 1,4,5
 1133 31 1133 31 1101.5 15.5 c 128,-1,6
 1070 0 1070 0 1031 0 c 2,7,-1
 992 0 l 1,8,-1
 992 59 l 1,9,-1
 1031 59 l 2,10,11
 1064 59 1064 59 1086.5 81.5 c 128,-1,12
 1109 104 1109 104 1109 137 c 2,13,-1
 1109 879 l 2,14,15
 1109 1064 1109 1064 992 1176.5 c 128,-1,16
 875 1289 875 1289 680 1289 c 0,17,18
 449 1289 449 1289 310.5 1134.5 c 128,-1,19
 172 980 172 980 172 723 c 2,20,-1
 172 557 l 2,21,22
 172 443 172 443 210 348.5 c 128,-1,23
 248 254 248 254 318 195 c 1,24,25
 350 207 350 207 368.5 233.5 c 128,-1,26
 387 260 387 260 387 293 c 0,27,28
 387 373 387 373 455 430.5 c 128,-1,29
 523 488 523 488 621 488 c 0,30,31
 723 488 723 488 794 422.5 c 128,-1,32
 865 357 865 357 865 264 c 0,33,34
 865 154 865 154 776 77 c 128,-1,35
 687 0 687 0 562 0 c 0,36,37
 369 0 369 0 231.5 163 c 128,-1,38
 94 326 94 326 94 557 c 2,39,-1
 94 723 l 2,40,41
 94 1016 94 1016 254 1191.5 c 128,-1,42
 414 1367 414 1367 680 1367 c 0,43,44
 910 1367 910 1367 1048.5 1233.5 c 128,-1,45
 1187 1100 1187 1100 1187 879 c 2,46,-1
 1187 137 l 2,47,48
 1187 104 1187 104 1209.5 81.5 c 128,-1,49
 1232 59 1232 59 1266 59 c 2,50,-1
 1305 59 l 1,51,-1
 1305 0 l 1,0,-1
562 78 m 0,52,53
 656 78 656 78 721.5 132.5 c 128,-1,54
 787 187 787 187 787 264 c 0,55,56
 787 324 787 324 738 367 c 128,-1,57
 689 410 689 410 621 410 c 0,58,59
 557 410 557 410 511 376 c 128,-1,60
 465 342 465 342 465 293 c 0,61,62
 465 252 465 252 487.5 223.5 c 128,-1,63
 510 195 510 195 543 195 c 2,64,-1
 582 195 l 1,65,-1
 582 137 l 1,66,-1
 543 137 l 2,67,68
 506 137 506 137 474.5 152.5 c 128,-1,69
 443 168 443 168 426 195 c 1,70,71
 420 178 420 178 404.5 162 c 128,-1,72
 389 146 389 146 367 137 c 1,73,74
 391 109 391 109 441.5 93.5 c 128,-1,75
 492 78 492 78 562 78 c 0,52,53
EndSplineSet
EndChar

StartChar: tm_eekaar
Encoding: 3015 3015 90
Width: 914
GlyphClass: 2
Flags: W
LayerCount: 2
Fore
SplineSet
561 0 m 0,0,1
 367 0 367 0 229.5 169 c 128,-1,2
 92 338 92 338 92 576 c 2,3,-1
 92 820 l 2,4,5
 92 1047 92 1047 226.5 1207 c 128,-1,6
 361 1367 361 1367 551 1367 c 0,7,8
 676 1367 676 1367 765 1293 c 128,-1,9
 854 1219 854 1219 854 1113 c 0,10,11
 854 1016 854 1016 782.5 947.5 c 128,-1,12
 711 879 711 879 609 879 c 0,13,14
 523 879 523 879 457 936.5 c 128,-1,15
 391 994 391 994 375 1084 c 1,16,17
 361 1119 361 1119 343.5 1142.5 c 128,-1,18
 326 1166 326 1166 307 1172 c 1,19,20
 242 1117 242 1117 206 1025.5 c 128,-1,21
 170 934 170 934 170 820 c 2,22,-1
 170 576 l 2,23,24
 170 443 170 443 211 338.5 c 128,-1,25
 252 234 252 234 326 186 c 1,26,27
 355 205 355 205 373 233.5 c 128,-1,28
 391 262 391 262 395 293 c 0,29,30
 402 377 402 377 466.5 432.5 c 128,-1,31
 531 488 531 488 619 488 c 0,32,33
 717 488 717 488 785.5 425.5 c 128,-1,34
 854 363 854 363 854 273 c 0,35,36
 854 160 854 160 768 80 c 128,-1,37
 682 0 682 0 561 0 c 0,0,1
561 78 m 0,38,39
 650 78 650 78 712.5 135.5 c 128,-1,40
 775 193 775 193 775 273 c 0,41,42
 775 330 775 330 729.5 370 c 128,-1,43
 684 410 684 410 619 410 c 0,44,45
 555 410 555 410 509 376 c 128,-1,46
 463 342 463 342 463 293 c 0,47,48
 463 252 463 252 485.5 223.5 c 128,-1,49
 508 195 508 195 541 195 c 2,50,-1
 580 195 l 1,51,-1
 580 137 l 1,52,-1
 541 137 l 2,53,54
 508 137 508 137 477.5 152.5 c 128,-1,55
 447 168 447 168 424 195 c 1,56,57
 414 172 414 172 398.5 157.5 c 128,-1,58
 383 143 383 143 365 137 c 1,59,60
 398 107 398 107 449 92.5 c 128,-1,61
 500 78 500 78 561 78 c 0,38,39
609 957 m 0,62,63
 678 957 678 957 726.5 1003 c 128,-1,64
 775 1049 775 1049 775 1113 c 0,65,66
 775 1186 775 1186 710 1237.5 c 128,-1,67
 645 1289 645 1289 551 1289 c 0,68,69
 488 1289 488 1289 440.5 1273.5 c 128,-1,70
 393 1258 393 1258 365 1230 c 1,71,72
 381 1225 381 1225 395.5 1207 c 128,-1,73
 410 1189 410 1189 424 1162 c 1,74,75
 439 1193 439 1193 470.5 1211.5 c 128,-1,76
 502 1230 502 1230 541 1230 c 2,77,-1
 580 1230 l 1,78,-1
 580 1172 l 1,79,-1
 541 1172 l 2,80,81
 508 1172 508 1172 485.5 1143.5 c 128,-1,82
 463 1115 463 1115 463 1074 c 0,83,84
 463 1025 463 1025 506 991 c 128,-1,85
 549 957 549 957 609 957 c 0,62,63
EndSplineSet
EndChar

StartChar: tm_aikaar
Encoding: 3016 3016 91
Width: 1604
GlyphClass: 2
Flags: W
LayerCount: 2
Fore
SplineSet
947 0 m 0,0,1
 863 0 863 0 798.5 37 c 128,-1,2
 734 74 734 74 713 137 c 1,3,4
 670 72 670 72 597.5 36 c 128,-1,5
 525 0 525 0 439 0 c 0,6,7
 279 0 279 0 183.5 101.5 c 128,-1,8
 88 203 88 203 88 371 c 0,9,10
 88 566 88 566 223.5 683.5 c 128,-1,11
 359 801 359 801 586 801 c 0,12,13
 695 801 695 801 782 783.5 c 128,-1,14
 869 766 869 766 928 732 c 1,15,16
 969 756 969 756 1023.5 768.5 c 128,-1,17
 1078 781 1078 781 1143 781 c 0,18,19
 1297 781 1297 781 1405.5 667 c 128,-1,20
 1514 553 1514 553 1514 391 c 0,21,22
 1514 293 1514 293 1485.5 212 c 128,-1,23
 1457 131 1457 131 1406 78 c 0,24,25
 1387 59 1387 59 1377 41 c 128,-1,26
 1367 23 1367 23 1367 10 c 0,27,28
 1367 2 1367 2 1377 -10.5 c 128,-1,29
 1387 -23 1387 -23 1406 -39 c 1,30,-1
 1367 -78 l 1,31,32
 1340 -59 1340 -59 1324.5 -35.5 c 128,-1,33
 1309 -12 1309 -12 1309 10 c 0,34,35
 1309 14 1309 14 1311.5 21.5 c 128,-1,36
 1314 29 1314 29 1318 39 c 1,37,38
 1311 35 1311 35 1301 32 c 128,-1,39
 1291 29 1291 29 1279 29 c 0,40,41
 1254 29 1254 29 1230.5 42 c 128,-1,42
 1207 55 1207 55 1191 78 c 1,43,-1
 1230 117 l 1,44,45
 1242 104 1242 104 1255 96 c 128,-1,46
 1268 88 1268 88 1279 88 c 0,47,48
 1338 88 1338 88 1387 182.5 c 128,-1,49
 1436 277 1436 277 1436 391 c 0,50,51
 1436 520 1436 520 1350 611.5 c 128,-1,52
 1264 703 1264 703 1143 703 c 0,53,54
 1102 703 1102 703 1067.5 698 c 128,-1,55
 1033 693 1033 693 1006 684 c 1,56,57
 1098 621 1098 621 1149.5 514.5 c 128,-1,58
 1201 408 1201 408 1201 283 c 0,59,60
 1201 166 1201 166 1127 83 c 128,-1,61
 1053 0 1053 0 947 0 c 0,0,1
947 78 m 0,62,63
 1020 78 1020 78 1071.5 138.5 c 128,-1,64
 1123 199 1123 199 1123 283 c 0,65,66
 1123 385 1123 385 1074 477.5 c 128,-1,67
 1025 570 1025 570 937 635 c 1,68,69
 850 561 850 561 801 466 c 128,-1,70
 752 371 752 371 752 273 c 0,71,72
 752 193 752 193 809.5 135.5 c 128,-1,73
 867 78 867 78 947 78 c 0,62,63
449 78 m 0,74,75
 543 78 543 78 608.5 135.5 c 128,-1,76
 674 193 674 193 674 273 c 0,77,78
 674 330 674 330 625 370 c 128,-1,79
 576 410 576 410 508 410 c 0,80,81
 447 410 447 410 404 370 c 128,-1,82
 361 330 361 330 361 273 c 0,83,84
 361 240 361 240 383.5 217.5 c 128,-1,85
 406 195 406 195 439 195 c 2,86,-1
 479 195 l 1,87,-1
 479 137 l 1,88,-1
 439 137 l 2,89,90
 396 137 396 137 362 152.5 c 128,-1,91
 328 168 328 168 312 195 c 1,92,93
 305 178 305 178 292 163 c 128,-1,94
 279 148 279 148 264 137 c 1,95,96
 293 109 293 109 341 93.5 c 128,-1,97
 389 78 389 78 449 78 c 0,74,75
225 195 m 1,98,99
 252 219 252 219 267.5 244.5 c 128,-1,100
 283 270 283 270 283 293 c 0,101,102
 283 373 283 373 348.5 430.5 c 128,-1,103
 414 488 414 488 508 488 c 0,104,105
 568 488 568 488 616 472.5 c 128,-1,106
 664 457 664 457 693 430 c 1,107,108
 721 504 721 504 763 566.5 c 128,-1,109
 805 629 805 629 859 674 c 1,110,111
 818 697 818 697 749 710 c 128,-1,112
 680 723 680 723 586 723 c 0,113,114
 395 723 395 723 280.5 627 c 128,-1,115
 166 531 166 531 166 371 c 0,116,117
 166 311 166 311 181.5 265 c 128,-1,118
 197 219 197 219 225 195 c 1,98,99
EndSplineSet
EndChar

StartChar: tm_halant
Encoding: 3021 3021 95
Width: 459
GlyphClass: 4
Flags: W
LayerCount: 2
Fore
SplineSet
234 937 m 0,0,1
 174 937 174 937 131 980 c 128,-1,2
 88 1023 88 1023 88 1084 c 0,3,4
 88 1141 88 1141 128 1181 c 128,-1,5
 168 1221 168 1221 225 1221 c 0,6,7
 285 1221 285 1221 328 1181 c 128,-1,8
 371 1141 371 1141 371 1084 c 0,9,10
 371 1023 371 1023 331 980 c 128,-1,11
 291 937 291 937 234 937 c 0,0,1
EndSplineSet
EndChar

StartChar: tm_two
Encoding: 3048 3048 98
Width: 1425
GlyphClass: 2
Flags: W
LayerCount: 2
Fore
SplineSet
1244 70 m 1,0,-1
 1226 0 l 1,1,-1
 586 0 l 2,2,3
 429 0 429 0 429 106 c 0,4,5
 429 153 429 153 478 181.5 c 128,-1,6
 527 210 527 210 586 210 c 2,7,-1
 779 210 l 2,8,9
 867 210 867 210 928 271.5 c 128,-1,10
 989 333 989 333 989 420 c 0,11,12
 989 500 989 500 945 560.5 c 128,-1,13
 901 621 901 621 831 621 c 0,14,15
 793 621 793 621 744 595 c 1,16,17
 814 555 814 555 814 437 c 0,18,19
 814 382 814 382 772.5 344.5 c 128,-1,20
 731 307 731 307 675 307 c 0,21,22
 618 307 618 307 580 351 c 128,-1,23
 542 395 542 395 542 455 c 0,24,25
 542 565 542 565 646.5 632.5 c 128,-1,26
 751 700 751 700 884 700 c 0,27,28
 987 700 987 700 1058 629 c 128,-1,29
 1129 558 1129 558 1129 455 c 0,30,31
 1129 321 1129 321 1025.5 230.5 c 128,-1,32
 922 140 922 140 779 140 c 2,33,-1
 595 140 l 2,34,35
 551 140 551 140 551 106 c 0,36,37
 551 70 551 70 604 70 c 2,38,-1
 1244 70 l 1,0,-1
675 560 m 1,39,40
 621 516 621 516 621 473 c 0,41,42
 621 386 621 386 666 386 c 0,43,44
 709 386 709 386 709 473 c 0,45,46
 709 518 709 518 675 560 c 1,39,40
EndSplineSet
EndChar

StartChar: tm_three
Encoding: 3049 3049 99
Width: 1424
GlyphClass: 2
Flags: W
LayerCount: 2
Fore
SplineSet
1270 70 m 1,0,-1
 1252 0 l 1,1,-1
 640 0 l 1,2,-1
 657 70 l 1,3,-1
 780 70 l 2,4,5
 874 70 874 70 941 130.5 c 128,-1,6
 1008 191 1008 191 1008 280 c 0,7,8
 1008 317 1008 317 982.5 342.5 c 128,-1,9
 957 368 957 368 920 368 c 0,10,11
 890 368 890 368 865 341 c 128,-1,12
 840 314 840 314 833 280 c 2,13,-1
 815 193 l 1,14,-1
 675 193 l 1,15,-1
 764 630 l 1,16,-1
 571 630 l 1,17,-1
 444 0 l 1,18,-1
 378 0 l 1,19,-1
 517 700 l 1,20,-1
 1095 700 l 1,21,-1
 1077 630 l 1,22,-1
 902 630 l 1,23,-1
 859 403 l 1,24,25
 918 455 918 455 990 455 c 0,26,27
 1057 455 1057 455 1102.5 403.5 c 128,-1,28
 1148 352 1148 352 1148 280 c 0,29,30
 1148 209 1148 209 1090 151 c 128,-1,31
 1032 93 1032 93 947 70 c 1,32,-1
 1270 70 l 1,0,-1
EndSplineSet
EndChar

StartChar: tm_four
Encoding: 3050 3050 100
Width: 1035
GlyphClass: 2
Flags: W
LayerCount: 2
Fore
SplineSet
352 0 m 0,0,1
 234 0 234 0 151 80 c 128,-1,2
 68 160 68 160 68 273 c 0,3,4
 68 371 68 371 118 442.5 c 128,-1,5
 168 514 168 514 244 527 c 1,6,-1
 244 674 l 2,7,8
 244 719 244 719 278 750 c 128,-1,9
 312 781 312 781 361 781 c 2,10,-1
 850 781 l 2,11,12
 887 781 887 781 912 803.5 c 128,-1,13
 937 826 937 826 937 859 c 1,14,-1
 1006 859 l 1,15,16
 1006 820 1006 820 984.5 788 c 128,-1,17
 963 756 963 756 928 742 c 1,18,19
 963 729 963 729 984.5 696.5 c 128,-1,20
 1006 664 1006 664 1006 625 c 1,21,-1
 937 625 l 1,22,23
 937 658 937 658 912 680.5 c 128,-1,24
 887 703 887 703 850 703 c 2,25,-1
 635 703 l 1,26,-1
 635 527 l 1,27,-1
 937 527 l 1,28,-1
 937 449 l 1,29,-1
 635 449 l 1,30,-1
 635 264 l 2,31,32
 635 154 635 154 552 77 c 128,-1,33
 469 0 469 0 352 0 c 0,0,1
352 78 m 256,34,35
 436 78 436 78 496.5 132.5 c 128,-1,36
 557 187 557 187 557 264 c 2,37,-1
 557 449 l 1,38,-1
 283 449 l 2,39,40
 227 449 227 449 186.5 397.5 c 128,-1,41
 146 346 146 346 146 273 c 0,42,43
 146 193 146 193 207 135.5 c 128,-1,44
 268 78 268 78 352 78 c 256,34,35
557 527 m 1,45,-1
 557 703 l 1,46,-1
 361 703 l 2,47,48
 346 703 346 703 334 694.5 c 128,-1,49
 322 686 322 686 322 674 c 2,50,-1
 322 527 l 1,51,-1
 557 527 l 1,45,-1
EndSplineSet
EndChar

StartChar: tm_five
Encoding: 3051 3051 101
Width: 1424
GlyphClass: 2
Flags: W
LayerCount: 2
Fore
SplineSet
1412 517 m 1,0,-1
 1359 526 l 1,1,2
 1369 563 1369 563 1369 598 c 0,3,4
 1369 723 1369 723 1253.5 825.5 c 128,-1,5
 1138 928 1138 928 965 928 c 0,6,7
 728 928 728 928 575.5 716 c 128,-1,8
 423 504 423 504 423 228 c 0,9,10
 423 -43 423 -43 515 -179.5 c 128,-1,11
 607 -316 607 -316 790 -316 c 0,12,13
 979 -316 979 -316 1103.5 -163.5 c 128,-1,14
 1228 -11 1228 -11 1228 193 c 0,15,16
 1228 257 1228 257 1200 304.5 c 128,-1,17
 1172 352 1172 352 1126 352 c 0,18,19
 1099 352 1099 352 1072.5 336.5 c 128,-1,20
 1046 321 1046 321 1039 298 c 2,21,-1
 980 0 l 1,22,-1
 840 0 l 1,23,-1
 965 630 l 1,24,-1
 759 630 l 1,25,-1
 634 0 l 1,26,-1
 566 0 l 1,27,-1
 706 700 l 1,28,-1
 1237 700 l 1,29,-1
 1219 630 l 1,30,-1
 1105 630 l 1,31,-1
 1057 386 l 1,32,33
 1101 437 1101 437 1171 437 c 0,34,35
 1261 437 1261 437 1314.5 368.5 c 128,-1,36
 1368 300 1368 300 1368 193 c 0,37,38
 1368 -47 1368 -47 1202.5 -216 c 128,-1,39
 1037 -385 1037 -385 799 -385 c 0,40,41
 589 -385 589 -385 471.5 -223 c 128,-1,42
 354 -61 354 -61 354 193 c 0,43,44
 354 513 354 513 519 764 c 128,-1,45
 684 1015 684 1015 948 1015 c 0,46,47
 1152 1015 1152 1015 1288.5 889.5 c 128,-1,48
 1425 764 1425 764 1425 613 c 0,49,50
 1425 566 1425 566 1412 517 c 1,0,-1
EndSplineSet
EndChar

StartChar: tm_six
Encoding: 3052 3052 102
Width: 1424
GlyphClass: 2
Flags: W
LayerCount: 2
Fore
SplineSet
784 316 m 1,0,-1
 513 316 l 2,1,2
 469 316 469 316 438 291 c 128,-1,3
 407 266 407 266 407 228 c 0,4,5
 407 158 407 158 477 114 c 128,-1,6
 547 70 547 70 635 70 c 0,7,8
 680 70 680 70 713 99.5 c 128,-1,9
 746 129 746 129 756 175 c 2,10,-1
 784 316 l 1,0,-1
846 630 m 1,11,-1
 653 630 l 1,12,-1
 603 386 l 1,13,-1
 798 386 l 1,14,-1
 846 630 l 1,11,-1
910 245 m 2,15,16
 884 125 884 125 808 62.5 c 128,-1,17
 732 0 732 0 635 0 c 0,18,19
 518 0 518 0 428 64 c 128,-1,20
 338 128 338 128 338 228 c 0,21,22
 338 294 338 294 389.5 340 c 128,-1,23
 441 386 441 386 513 386 c 2,24,-1
 537 386 l 1,25,-1
 600 700 l 1,26,-1
 1229 700 l 1,27,-1
 1213 630 l 1,28,-1
 988 630 l 1,29,-1
 938 386 l 1,30,-1
 1422 386 l 1,31,-1
 1410 316 l 1,32,-1
 1353 316 l 1,33,-1
 1291 0 l 1,34,-1
 1151 0 l 1,35,-1
 1213 316 l 1,36,-1
 1116 316 l 1,37,-1
 1055 0 l 1,38,-1
 967 0 l 1,39,-1
 1028 316 l 1,40,-1
 924 316 l 1,41,-1
 910 245 l 2,15,16
EndSplineSet
EndChar

StartChar: tm_seven
Encoding: 3053 3053 103
Width: 1425
GlyphClass: 2
Flags: W
LayerCount: 2
Fore
SplineSet
643 88 m 1,0,1
 706 88 706 88 753 128 c 128,-1,2
 800 168 800 168 800 228 c 0,3,4
 800 269 800 269 781 301 c 128,-1,5
 762 333 762 333 729 333 c 0,6,7
 684 333 684 333 654.5 296.5 c 128,-1,8
 625 260 625 260 625 210 c 0,9,10
 625 135 625 135 643 88 c 1,0,1
1042 0 m 1,11,-1
 1167 630 l 1,12,-1
 852 630 l 2,13,14
 704 630 704 630 594.5 540.5 c 128,-1,15
 485 451 485 451 485 316 c 0,16,17
 485 247 485 247 507 194.5 c 128,-1,18
 529 142 529 142 572 106 c 1,19,20
 555 135 555 135 555 228 c 256,21,22
 555 321 555 321 614.5 388 c 128,-1,23
 674 455 674 455 765 455 c 0,24,25
 837 455 837 455 884 398 c 128,-1,26
 931 341 931 341 931 263 c 0,27,28
 931 155 931 155 863 77.5 c 128,-1,29
 795 0 795 0 695 0 c 0,30,31
 576 0 576 0 495.5 94 c 128,-1,32
 415 188 415 188 415 316 c 0,33,34
 415 481 415 481 545.5 590.5 c 128,-1,35
 676 700 676 700 852 700 c 2,36,-1
 1430 700 l 1,37,-1
 1412 630 l 1,38,-1
 1307 630 l 1,39,-1
 1181 0 l 1,40,-1
 1042 0 l 1,11,-1
EndSplineSet
EndChar

StartChar: tm_eight
Encoding: 3054 3054 104
Width: 1427
GlyphClass: 2
Flags: W
LayerCount: 2
Fore
SplineSet
849 629 m 1,0,1
 745 611 745 611 670 548.5 c 128,-1,2
 595 486 595 486 595 402 c 0,3,4
 595 338 595 338 638.5 291 c 128,-1,5
 682 244 682 244 744 244 c 0,6,7
 817 244 817 244 864 307.5 c 128,-1,8
 911 371 911 371 911 454 c 0,9,10
 911 580 911 580 849 629 c 1,0,1
1024 140 m 1,11,-1
 411 140 l 2,12,13
 381 140 381 140 357 125 c 128,-1,14
 333 110 333 110 333 87 c 0,15,16
 333 43 333 43 412 -13.5 c 128,-1,17
 491 -70 491 -70 639 -70 c 0,18,19
 743 -70 743 -70 839.5 -18 c 128,-1,20
 936 34 936 34 1024 140 c 1,11,-1
1414 -245 m 1,21,-1
 1269 -245 l 1,22,-1
 1348 140 l 1,23,-1
 1164 140 l 1,24,25
 1051 4 1051 4 915 -63.5 c 128,-1,26
 779 -131 779 -131 621 -131 c 0,27,28
 421 -131 421 -131 311.5 -52.5 c 128,-1,29
 202 26 202 26 202 123 c 0,30,31
 202 160 202 160 233 184.5 c 128,-1,32
 264 209 264 209 307 209 c 2,33,-1
 666 209 l 1,34,35
 604 231 604 231 565 284.5 c 128,-1,36
 526 338 526 338 526 402 c 0,37,38
 526 534 526 534 652 617 c 128,-1,39
 778 700 778 700 937 700 c 0,40,41
 1069 700 1069 700 1169 620.5 c 128,-1,42
 1269 541 1269 541 1269 420 c 0,43,44
 1269 306 1269 306 1213 209 c 1,45,-1
 1364 209 l 1,46,-1
 1463 700 l 1,47,-1
 1603 700 l 1,48,-1
 1414 -245 l 1,21,-1
989 620 m 1,49,50
 1042 530 1042 530 1042 411 c 0,51,52
 1042 267 1042 267 919 209 c 1,53,-1
 1077 209 l 1,54,55
 1146 308 1146 308 1146 402 c 0,56,57
 1146 486 1146 486 1103 553 c 128,-1,58
 1060 620 1060 620 989 620 c 1,49,50
EndSplineSet
EndChar

StartChar: tm_nine
Encoding: 3055 3055 105
Width: 1427
GlyphClass: 2
Flags: W
LayerCount: 2
Fore
SplineSet
692 316 m 1,0,-1
 422 316 l 2,1,2
 379 316 379 316 348 291 c 128,-1,3
 317 266 317 266 317 228 c 0,4,5
 317 158 317 158 387 114 c 128,-1,6
 457 70 457 70 544 70 c 0,7,8
 589 70 589 70 622 99.5 c 128,-1,9
 655 129 655 129 665 175 c 2,10,-1
 692 316 l 1,0,-1
756 630 m 1,11,-1
 562 630 l 1,12,-1
 513 386 l 1,13,-1
 707 386 l 1,14,-1
 756 630 l 1,11,-1
1157 175 m 0,15,16
 1157 259 1157 259 1052 298 c 1,17,18
 982 240 982 240 982 158 c 0,19,20
 982 121 982 121 1007.5 95.5 c 128,-1,21
 1033 70 1033 70 1068 70 c 0,22,23
 1107 70 1107 70 1132 101.5 c 128,-1,24
 1157 133 1157 133 1157 175 c 0,15,16
1297 0 m 1,25,26
 1375 93 1375 93 1375 193 c 0,27,28
 1375 263 1375 263 1332.5 315.5 c 128,-1,29
 1290 368 1290 368 1226 368 c 0,30,31
 1163 368 1163 368 1113 342 c 1,32,33
 1167 322 1167 322 1201 276.5 c 128,-1,34
 1235 231 1235 231 1235 175 c 0,35,36
 1235 104 1235 104 1187 52 c 128,-1,37
 1139 0 1139 0 1068 0 c 0,38,39
 1005 0 1005 0 958.5 46.5 c 128,-1,40
 912 93 912 93 912 158 c 0,41,42
 912 257 912 257 982 316 c 1,43,-1
 833 316 l 1,44,-1
 819 245 l 2,45,46
 795 125 795 125 718.5 62.5 c 128,-1,47
 642 0 642 0 544 0 c 0,48,49
 428 0 428 0 337 64 c 128,-1,50
 246 128 246 128 246 228 c 0,51,52
 246 294 246 294 299 340 c 128,-1,53
 352 386 352 386 422 386 c 2,54,-1
 446 386 l 1,55,-1
 508 700 l 1,56,-1
 1122 700 l 1,57,-1
 1104 630 l 1,58,-1
 896 630 l 1,59,-1
 847 386 l 1,60,-1
 947 386 l 2,61,62
 1014 386 1014 386 1052 368 c 1,63,64
 1111 420 1111 420 1226 420 c 0,65,66
 1327 420 1327 420 1399.5 354.5 c 128,-1,67
 1472 289 1472 289 1472 193 c 0,68,69
 1472 109 1472 109 1410 0 c 1,70,-1
 1297 0 l 1,25,26
EndSplineSet
EndChar

StartChar: tm_ten
Encoding: 3056 3056 106
Width: 1283
GlyphClass: 2
Flags: W
LayerCount: 2
Fore
SplineSet
148 229 m 2,0,-1
 148 580 l 2,1,2
 148 609 148 609 126 629.5 c 128,-1,3
 104 650 104 650 70 650 c 2,4,-1
 31 650 l 1,5,-1
 31 705 l 1,6,-1
 70 705 l 2,7,8
 109 705 109 705 140.5 690.5 c 128,-1,9
 172 676 172 676 187 650 c 1,10,11
 203 676 203 676 234.5 690.5 c 128,-1,12
 266 705 266 705 305 705 c 2,13,-1
 344 705 l 1,14,-1
 344 650 l 1,15,-1
 305 650 l 2,16,17
 271 650 271 650 249 629.5 c 128,-1,18
 227 609 227 609 227 580 c 2,19,-1
 227 229 l 2,20,21
 227 162 227 162 269.5 116 c 128,-1,22
 312 70 312 70 373 70 c 0,23,24
 441 70 441 70 490 116 c 128,-1,25
 539 162 539 162 539 229 c 2,26,-1
 539 580 l 2,27,28
 539 609 539 609 516.5 629.5 c 128,-1,29
 494 650 494 650 461 650 c 2,30,-1
 422 650 l 1,31,-1
 422 705 l 1,32,-1
 461 705 l 2,33,34
 500 705 500 705 531 690.5 c 128,-1,35
 562 676 562 676 578 650 c 1,36,37
 594 676 594 676 625 690.5 c 128,-1,38
 656 705 656 705 695 705 c 2,39,-1
 734 705 l 1,40,-1
 734 650 l 1,41,-1
 695 650 l 2,42,43
 662 650 662 650 639.5 629.5 c 128,-1,44
 617 609 617 609 617 580 c 2,45,-1
 617 229 l 2,46,47
 617 162 617 162 685.5 116 c 128,-1,48
 754 70 754 70 852 70 c 0,49,50
 949 70 949 70 1017.5 122 c 128,-1,51
 1086 174 1086 174 1086 246 c 2,52,-1
 1086 529 l 2,53,54
 1086 652 1086 652 983.5 740 c 128,-1,55
 881 828 881 828 734 828 c 2,56,-1
 461 828 l 1,57,-1
 461 898 l 1,58,-1
 734 898 l 2,59,60
 912 898 912 898 1038 790 c 128,-1,61
 1164 682 1164 682 1164 529 c 2,62,-1
 1164 246 l 2,63,64
 1164 145 1164 145 1072 72.5 c 128,-1,65
 980 0 980 0 852 0 c 0,66,67
 764 0 764 0 693.5 28.5 c 128,-1,68
 623 57 623 57 588 105 c 1,69,70
 564 57 564 57 505.5 28.5 c 128,-1,71
 447 0 447 0 373 0 c 0,72,73
 279 0 279 0 213.5 67.5 c 128,-1,74
 148 135 148 135 148 229 c 2,0,-1
EndSplineSet
EndChar

StartChar: tm_hundred
Encoding: 3057 3057 107
Width: 1479
GlyphClass: 2
Flags: W
LayerCount: 2
Fore
SplineSet
152 527 m 2,0,1
 152 633 152 633 217.5 707 c 128,-1,2
 283 781 283 781 377 781 c 0,3,4
 449 781 449 781 507.5 750 c 128,-1,5
 566 719 566 719 592 664 c 1,6,7
 633 719 633 719 702 750 c 128,-1,8
 771 781 771 781 855 781 c 2,9,-1
 1318 781 l 2,10,11
 1352 781 1352 781 1374 803.5 c 128,-1,12
 1396 826 1396 826 1396 859 c 1,13,-1
 1455 859 l 1,14,15
 1455 820 1455 820 1439.5 789 c 128,-1,16
 1424 758 1424 758 1396 742 c 1,17,18
 1424 727 1424 727 1439.5 695.5 c 128,-1,19
 1455 664 1455 664 1455 625 c 1,20,-1
 1396 625 l 1,21,22
 1396 658 1396 658 1374 680.5 c 128,-1,23
 1352 703 1352 703 1318 703 c 2,24,-1
 1172 703 l 1,25,-1
 1172 137 l 2,26,27
 1172 104 1172 104 1194.5 81.5 c 128,-1,28
 1217 59 1217 59 1250 59 c 2,29,-1
 1289 59 l 1,30,-1
 1289 0 l 1,31,-1
 1250 0 l 2,32,33
 1211 0 1211 0 1179.5 15.5 c 128,-1,34
 1148 31 1148 31 1133 59 c 1,35,36
 1117 31 1117 31 1086 15.5 c 128,-1,37
 1055 0 1055 0 1016 0 c 2,38,-1
 977 0 l 1,39,-1
 977 59 l 1,40,-1
 1016 59 l 2,41,42
 1049 59 1049 59 1071.5 81.5 c 128,-1,43
 1094 104 1094 104 1094 137 c 2,44,-1
 1094 703 l 1,45,-1
 855 703 l 2,46,47
 758 703 758 703 689.5 651.5 c 128,-1,48
 621 600 621 600 621 527 c 2,49,-1
 621 137 l 2,50,51
 621 104 621 104 643.5 81.5 c 128,-1,52
 666 59 666 59 699 59 c 2,53,-1
 738 59 l 1,54,-1
 738 0 l 1,55,-1
 699 0 l 2,56,57
 660 0 660 0 629 15.5 c 128,-1,58
 598 31 598 31 582 59 c 1,59,60
 566 31 566 31 535 15.5 c 128,-1,61
 504 0 504 0 465 0 c 2,62,-1
 426 0 l 1,63,-1
 426 59 l 1,64,-1
 465 59 l 2,65,66
 498 59 498 59 520.5 81.5 c 128,-1,67
 543 104 543 104 543 137 c 2,68,-1
 543 527 l 2,69,70
 543 600 543 600 494 651.5 c 128,-1,71
 445 703 445 703 377 703 c 0,72,73
 316 703 316 703 273 651.5 c 128,-1,74
 230 600 230 600 230 527 c 2,75,-1
 230 137 l 2,76,77
 230 104 230 104 252.5 81.5 c 128,-1,78
 275 59 275 59 309 59 c 2,79,-1
 348 59 l 1,80,-1
 348 0 l 1,81,-1
 309 0 l 2,82,83
 270 0 270 0 238.5 15.5 c 128,-1,84
 207 31 207 31 191 59 c 1,85,86
 176 31 176 31 144.5 15.5 c 128,-1,87
 113 0 113 0 74 0 c 2,88,-1
 35 0 l 1,89,-1
 35 59 l 1,90,-1
 74 59 l 2,91,92
 107 59 107 59 129.5 81.5 c 128,-1,93
 152 104 152 104 152 137 c 2,94,-1
 152 527 l 2,0,1
EndSplineSet
EndChar

StartChar: tm_thousand
Encoding: 3058 3058 108
Width: 1223
GlyphClass: 2
Flags: W
LayerCount: 2
Fore
SplineSet
352 0 m 0,0,1
 234 0 234 0 151 80 c 128,-1,2
 68 160 68 160 68 273 c 0,3,4
 68 371 68 371 118 442.5 c 128,-1,5
 168 514 168 514 244 527 c 1,6,-1
 244 664 l 2,7,8
 244 713 244 713 278 747 c 128,-1,9
 312 781 312 781 361 781 c 2,10,-1
 850 781 l 2,11,12
 887 781 887 781 912 803.5 c 128,-1,13
 937 826 937 826 937 859 c 1,14,-1
 1006 859 l 1,15,16
 1006 820 1006 820 984.5 788 c 128,-1,17
 963 756 963 756 928 742 c 1,18,19
 963 729 963 729 984.5 696.5 c 128,-1,20
 1006 664 1006 664 1006 625 c 1,21,-1
 937 625 l 1,22,23
 937 658 937 658 912 680.5 c 128,-1,24
 887 703 887 703 850 703 c 2,25,-1
 635 703 l 1,26,-1
 635 527 l 1,27,-1
 1006 527 l 1,28,-1
 1006 449 l 1,29,-1
 889 449 l 1,30,-1
 889 254 l 1,31,32
 914 268 914 268 938.5 275.5 c 128,-1,33
 963 283 963 283 986 283 c 0,34,35
 1066 283 1066 283 1124 212 c 128,-1,36
 1182 141 1182 141 1182 39 c 0,37,38
 1182 -115 1182 -115 1072.5 -223.5 c 128,-1,39
 963 -332 963 -332 809 -332 c 2,40,-1
 350 -332 l 2,41,42
 322 -332 322 -332 301.5 -349.5 c 128,-1,43
 281 -367 281 -367 281 -391 c 2,44,-1
 281 -430 l 2,45,46
 281 -463 281 -463 303.5 -485.5 c 128,-1,47
 326 -508 326 -508 359 -508 c 2,48,-1
 398 -508 l 1,49,-1
 398 -566 l 1,50,-1
 359 -566 l 2,51,52
 318 -566 318 -566 286 -550.5 c 128,-1,53
 254 -535 254 -535 242 -508 c 1,54,55
 230 -535 230 -535 198 -550.5 c 128,-1,56
 166 -566 166 -566 125 -566 c 2,57,-1
 86 -566 l 1,58,-1
 86 -508 l 1,59,-1
 125 -508 l 2,60,61
 158 -508 158 -508 181.5 -484.5 c 128,-1,62
 205 -461 205 -461 203 -430 c 2,63,-1
 203 -391 l 2,64,65
 203 -334 203 -334 246 -294 c 128,-1,66
 289 -254 289 -254 350 -254 c 2,67,-1
 809 -254 l 2,68,69
 932 -254 932 -254 1018 -168 c 128,-1,70
 1104 -82 1104 -82 1104 39 c 0,71,72
 1104 107 1104 107 1069.5 156 c 128,-1,73
 1035 205 1035 205 986 205 c 0,74,75
 945 205 945 205 917 184.5 c 128,-1,76
 889 164 889 164 889 137 c 0,77,78
 889 104 889 104 906.5 81.5 c 128,-1,79
 924 59 924 59 947 59 c 2,80,-1
 967 59 l 1,81,-1
 967 0 l 1,82,-1
 947 0 l 2,83,84
 918 0 918 0 891.5 15.5 c 128,-1,85
 865 31 865 31 850 59 c 1,86,87
 834 31 834 31 807.5 15.5 c 128,-1,88
 781 0 781 0 752 0 c 2,89,-1
 732 0 l 1,90,-1
 732 59 l 1,91,-1
 752 59 l 2,92,93
 775 59 775 59 793 81.5 c 128,-1,94
 811 104 811 104 811 137 c 2,95,-1
 811 449 l 1,96,-1
 635 449 l 1,97,-1
 635 264 l 2,98,99
 635 154 635 154 552 77 c 128,-1,100
 469 0 469 0 352 0 c 0,0,1
352 78 m 256,101,102
 436 78 436 78 496.5 132.5 c 128,-1,103
 557 187 557 187 557 264 c 2,104,-1
 557 449 l 1,105,-1
 283 449 l 2,106,107
 227 449 227 449 186.5 397.5 c 128,-1,108
 146 346 146 346 146 273 c 0,109,110
 146 193 146 193 207 135.5 c 128,-1,111
 268 78 268 78 352 78 c 256,101,102
557 527 m 1,112,-1
 557 703 l 1,113,-1
 361 703 l 2,114,115
 346 703 346 703 334 691.5 c 128,-1,116
 322 680 322 680 322 664 c 2,117,-1
 322 527 l 1,118,-1
 557 527 l 1,112,-1
EndSplineSet
EndChar

StartChar: zerowidthnonjoiner
Encoding: 8204 8204 109
Width: 0
GlyphClass: 2
Flags: W
LayerCount: 2
Fore
SplineSet
315 1225 m 1,0,-1
 -34 -516 l 1,1,-1
 -103 -516 l 1,2,-1
 244 1225 l 1,3,-1
 315 1225 l 1,0,-1
EndSplineSet
EndChar

StartChar: zerowidthjoiner
Encoding: 8205 8205 110
Width: 0
GlyphClass: 2
Flags: W
LayerCount: 2
Fore
SplineSet
415 997 m 1,0,-1
 363 953 l 1,1,-1
 270 1073 l 1,2,-1
 -24 -441 l 1,3,-1
 -87 -441 l 1,4,-1
 206 1073 l 1,5,-1
 65 953 l 1,6,-1
 32 997 l 1,7,-1
 210 1145 l 1,8,-1
 89 1292 l 1,9,-1
 140 1334 l 1,10,-1
 260 1185 l 1,11,-1
 437 1334 l 1,12,-1
 472 1292 l 1,13,-1
 294 1145 l 1,14,-1
 415 997 l 1,0,-1
EndSplineSet
EndChar

StartChar: u2013
Encoding: 8211 8211 111
Width: 722
GlyphClass: 2
Flags: W
LayerCount: 2
Fore
SplineSet
733 319 m 1,0,-1
 -12 319 l 1,1,-1
 -12 370 l 1,2,-1
 733 370 l 1,3,-1
 733 319 l 1,0,-1
EndSplineSet
EndChar

StartChar: u2014
Encoding: 8212 8212 112
Width: 1284
GlyphClass: 2
Flags: W
LayerCount: 2
Fore
SplineSet
1296 318 m 1,0,-1
 -13 319 l 1,1,-1
 -13 371 l 1,2,-1
 1296 370 l 1,3,-1
 1296 318 l 1,0,-1
EndSplineSet
EndChar

StartChar: u2018
Encoding: 65539 -1 113
Width: 664
GlyphClass: 2
Flags: W
LayerCount: 2
Fore
SplineSet
303 488 m 0,0,1
 238 488 238 488 192 546 c 128,-1,2
 146 604 146 604 146 684 c 0,3,4
 146 771 146 771 195 854 c 128,-1,5
 244 937 244 937 332 996 c 0,6,7
 359 1014 359 1014 375 1032.5 c 128,-1,8
 391 1051 391 1051 391 1064 c 0,9,10
 391 1068 391 1068 387 1078 c 128,-1,11
 383 1088 383 1088 381 1094 c 1,12,-1
 430 1123 l 1,13,14
 439 1109 439 1109 444 1094.5 c 128,-1,15
 449 1080 449 1080 449 1064 c 0,16,17
 449 1055 449 1055 444 1042 c 128,-1,18
 439 1029 439 1029 430 1016 c 1,19,20
 459 1016 459 1016 482.5 1002 c 128,-1,21
 506 988 506 988 518 967 c 1,22,-1
 479 937 l 1,23,24
 471 947 471 947 453.5 952 c 128,-1,25
 436 957 436 957 410 957 c 0,26,27
 361 957 361 957 313.5 906 c 128,-1,28
 266 855 266 855 234 771 c 1,29,30
 254 775 254 775 271.5 778 c 128,-1,31
 289 781 289 781 303 781 c 0,32,33
 359 781 359 781 399 741 c 128,-1,34
 439 701 439 701 439 645 c 0,35,36
 439 580 439 580 399 534 c 128,-1,37
 359 488 359 488 303 488 c 0,0,1
EndSplineSet
EndChar

StartChar: u2019
Encoding: 65540 -1 114
Width: 674
GlyphClass: 2
Flags: W
LayerCount: 2
Fore
SplineSet
244 449 m 1,0,1
 230 461 230 461 222.5 473.5 c 128,-1,2
 215 486 215 486 215 498 c 0,3,4
 215 512 215 512 222.5 524.5 c 128,-1,5
 230 537 230 537 244 547 c 1,6,7
 217 547 217 547 190.5 562.5 c 128,-1,8
 164 578 164 578 146 605 c 1,9,-1
 195 635 l 1,10,11
 207 621 207 621 217 613 c 128,-1,12
 227 605 227 605 234 605 c 0,13,14
 297 605 297 605 352.5 656 c 128,-1,15
 408 707 408 707 439 791 c 1,16,17
 426 787 426 787 411 784 c 128,-1,18
 396 781 396 781 381 781 c 0,19,20
 320 781 320 781 277 821 c 128,-1,21
 234 861 234 861 234 918 c 0,22,23
 234 979 234 979 274 1021.5 c 128,-1,24
 314 1064 314 1064 371 1064 c 0,25,26
 436 1064 436 1064 481.5 1021.5 c 128,-1,27
 527 979 527 979 527 918 c 0,28,29
 527 805 527 805 472.5 708 c 128,-1,30
 418 611 418 611 322 557 c 0,31,32
 299 543 299 543 286 530.5 c 128,-1,33
 273 518 273 518 273 508 c 0,34,35
 273 500 273 500 278 490 c 128,-1,36
 283 480 283 480 293 469 c 1,37,-1
 244 449 l 1,0,1
EndSplineSet
EndChar

StartChar: u201C
Encoding: 65541 -1 115
Width: 680
GlyphClass: 2
Flags: W
LayerCount: 2
Fore
SplineSet
8 968 m 1,0,1
 38 1064 38 1064 118 1150 c 128,-1,2
 198 1236 198 1236 290 1266 c 1,3,-1
 286 1234 l 1,4,5
 200 1172 200 1172 166 1136 c 1,6,7
 106 1060 106 1060 106 1000 c 1,8,-1
 110 968 l 1,9,-1
 144 966 l 1,10,-1
 198 956 l 1,11,12
 230 942 230 942 230 910 c 1,13,-1
 226 882 l 1,14,15
 202 786 202 786 122 786 c 0,16,17
 4 786 4 786 4 926 c 1,18,-1
 8 968 l 1,0,1
328 968 m 1,19,20
 358 1064 358 1064 438 1150 c 128,-1,21
 518 1236 518 1236 610 1266 c 1,22,-1
 606 1234 l 1,23,24
 520 1172 520 1172 486 1136 c 1,25,26
 426 1060 426 1060 426 1000 c 1,27,-1
 430 968 l 1,28,-1
 464 966 l 1,29,-1
 518 956 l 1,30,31
 550 942 550 942 550 910 c 1,32,-1
 546 882 l 1,33,34
 522 786 522 786 442 786 c 0,35,36
 324 786 324 786 324 926 c 1,37,-1
 328 968 l 1,19,20
EndSplineSet
EndChar

StartChar: u201D
Encoding: 65542 -1 116
Width: 696
GlyphClass: 2
Flags: W
LayerCount: 2
Fore
SplineSet
304 1074 m 1,0,1
 276 972 276 972 198 888 c 128,-1,2
 120 804 120 804 20 778 c 1,3,-1
 28 808 l 1,4,5
 120 880 120 880 142 904 c 0,6,7
 208 978 208 978 208 1034 c 1,8,-1
 206 1054 l 1,9,-1
 200 1074 l 1,10,-1
 108 1082 l 1,11,12
 82 1096 82 1096 82 1126 c 2,13,-1
 86 1156 l 1,14,15
 122 1258 122 1258 192 1258 c 0,16,17
 308 1258 308 1258 308 1114 c 1,18,-1
 304 1074 l 1,0,1
624 1074 m 1,19,20
 596 972 596 972 518 888 c 128,-1,21
 440 804 440 804 340 778 c 1,22,-1
 348 808 l 1,23,24
 440 880 440 880 462 904 c 0,25,26
 528 978 528 978 528 1034 c 1,27,-1
 526 1054 l 1,28,-1
 520 1074 l 1,29,-1
 428 1082 l 1,30,31
 402 1096 402 1096 402 1126 c 2,32,-1
 406 1156 l 1,33,34
 442 1258 442 1258 512 1258 c 0,35,36
 628 1258 628 1258 628 1114 c 1,37,-1
 624 1074 l 1,19,20
EndSplineSet
EndChar

StartChar: u2026
Encoding: 8230 8230 117
Width: 1283
GlyphClass: 2
Flags: W
LayerCount: 2
Fore
SplineSet
265 136 m 0,0,1
 298 136 298 136 320.5 114 c 128,-1,2
 343 92 343 92 343 58 c 0,3,4
 343 26 343 26 320.5 3 c 128,-1,5
 298 -20 298 -20 265 -20 c 0,6,7
 233 -20 233 -20 210 3 c 128,-1,8
 187 26 187 26 187 58 c 0,9,10
 187 92 187 92 210 114 c 128,-1,11
 233 136 233 136 265 136 c 0,0,1
638 136 m 256,12,13
 670 136 670 136 693 114 c 128,-1,14
 716 92 716 92 716 58 c 0,15,16
 716 26 716 26 692.5 3 c 128,-1,17
 669 -20 669 -20 638 -20 c 0,18,19
 606 -20 606 -20 583 3 c 128,-1,20
 560 26 560 26 560 58 c 0,21,22
 560 92 560 92 583 114 c 128,-1,23
 606 136 606 136 638 136 c 256,12,13
1010 136 m 0,24,25
 1043 136 1043 136 1066 114 c 128,-1,26
 1089 92 1089 92 1089 58 c 0,27,28
 1089 26 1089 26 1065.5 3 c 128,-1,29
 1042 -20 1042 -20 1010 -20 c 256,30,31
 978 -20 978 -20 955.5 3 c 128,-1,32
 933 26 933 26 933 58 c 0,33,34
 933 92 933 92 955.5 114 c 128,-1,35
 978 136 978 136 1010 136 c 0,24,25
EndSplineSet
EndChar

StartChar: u2212
Encoding: 8722 8722 118
Width: 974
GlyphClass: 2
Flags: W
LayerCount: 2
Fore
SplineSet
133 450 m 1,0,-1
 133 508 l 1,1,-1
 894 508 l 1,2,-1
 894 450 l 1,3,-1
 133 450 l 1,0,-1
EndSplineSet
EndChar

StartChar: u25CC
Encoding: 9676 9676 119
Width: 1167
GlyphClass: 2
Flags: W
LayerCount: 2
Fore
SplineSet
654 665 m 0,0,1
 626 665 626 665 612 679 c 128,-1,2
 598 693 598 693 598 724 c 0,3,4
 598 746 598 746 615 762.5 c 128,-1,5
 632 779 632 779 654 779 c 0,6,7
 683 779 683 779 697.5 765 c 128,-1,8
 712 751 712 751 712 724 c 0,9,10
 712 693 712 693 697.5 679 c 128,-1,11
 683 665 683 665 654 665 c 0,0,1
840 616 m 0,12,13
 811 616 811 616 796.5 630.5 c 128,-1,14
 782 645 782 645 782 674 c 0,15,16
 782 701 782 701 796.5 715 c 128,-1,17
 811 729 811 729 840 729 c 0,18,19
 862 729 862 729 879 713 c 128,-1,20
 896 697 896 697 896 674 c 0,21,22
 896 645 896 645 882 630.5 c 128,-1,23
 868 616 868 616 840 616 c 0,12,13
470 616 m 0,24,25
 442 616 442 616 428 630.5 c 128,-1,26
 414 645 414 645 414 674 c 0,27,28
 414 697 414 697 431 713 c 128,-1,29
 448 729 448 729 470 729 c 0,30,31
 494 729 494 729 510 713 c 128,-1,32
 526 697 526 697 526 674 c 0,33,34
 526 645 526 645 512.5 630.5 c 128,-1,35
 499 616 499 616 470 616 c 0,24,25
973 482 m 0,36,37
 951 482 951 482 933.5 498 c 128,-1,38
 916 514 916 514 916 538 c 0,39,40
 916 567 916 567 930.5 581 c 128,-1,41
 945 595 945 595 973 595 c 256,42,43
 1001 595 1001 595 1014.5 581 c 128,-1,44
 1028 567 1028 567 1028 538 c 0,45,46
 1028 514 1028 514 1012 498 c 128,-1,47
 996 482 996 482 973 482 c 0,36,37
336 482 m 0,48,49
 307 482 307 482 293 495.5 c 128,-1,50
 279 509 279 509 279 538 c 256,51,52
 279 567 279 567 293 581 c 128,-1,53
 307 595 307 595 336 595 c 0,54,55
 364 595 364 595 378 581 c 128,-1,56
 392 567 392 567 392 538 c 0,57,58
 392 514 392 514 375 498 c 128,-1,59
 358 482 358 482 336 482 c 0,48,49
1024 298 m 0,60,61
 994 298 994 298 979.5 311.5 c 128,-1,62
 965 325 965 325 965 354 c 0,63,64
 965 382 965 382 979.5 396 c 128,-1,65
 994 410 994 410 1024 410 c 0,66,67
 1046 410 1046 410 1063 393 c 128,-1,68
 1080 376 1080 376 1080 354 c 0,69,70
 1080 331 1080 331 1063 314.5 c 128,-1,71
 1046 298 1046 298 1024 298 c 0,60,61
287 298 m 0,72,73
 257 298 257 298 243 311.5 c 128,-1,74
 229 325 229 325 229 354 c 0,75,76
 229 382 229 382 243 396 c 128,-1,77
 257 410 257 410 287 410 c 0,78,79
 310 410 310 410 326.5 393 c 128,-1,80
 343 376 343 376 343 354 c 0,81,82
 343 331 343 331 326.5 314.5 c 128,-1,83
 310 298 310 298 287 298 c 0,72,73
973 112 m 256,84,85
 945 112 945 112 930.5 126.5 c 128,-1,86
 916 141 916 141 916 169 c 0,87,88
 916 193 916 193 933.5 209.5 c 128,-1,89
 951 226 951 226 973 226 c 0,90,91
 996 226 996 226 1012 209.5 c 128,-1,92
 1028 193 1028 193 1028 169 c 0,93,94
 1028 141 1028 141 1014.5 126.5 c 128,-1,95
 1001 112 1001 112 973 112 c 256,84,85
336 112 m 0,96,97
 307 112 307 112 293 126.5 c 128,-1,98
 279 141 279 141 279 169 c 0,99,100
 279 198 279 198 293 212 c 128,-1,101
 307 226 307 226 336 226 c 0,102,103
 358 226 358 226 375 209.5 c 128,-1,104
 392 193 392 193 392 169 c 0,105,106
 392 141 392 141 378 126.5 c 128,-1,107
 364 112 364 112 336 112 c 0,96,97
840 -22 m 0,108,109
 811 -22 811 -22 796.5 -8 c 128,-1,110
 782 6 782 6 782 34 c 0,111,112
 782 63 782 63 796.5 78 c 128,-1,113
 811 93 811 93 840 93 c 0,114,115
 863 93 863 93 879.5 75 c 128,-1,116
 896 57 896 57 896 34 c 256,117,118
 896 11 896 11 879 -5.5 c 128,-1,119
 862 -22 862 -22 840 -22 c 0,108,109
470 -22 m 0,120,121
 448 -22 448 -22 431 -5.5 c 128,-1,122
 414 11 414 11 414 34 c 256,123,124
 414 57 414 57 430.5 75 c 128,-1,125
 447 93 447 93 470 93 c 0,126,127
 495 93 495 93 510.5 75 c 128,-1,128
 526 57 526 57 526 34 c 256,129,130
 526 11 526 11 510 -5.5 c 128,-1,131
 494 -22 494 -22 470 -22 c 0,120,121
654 -72 m 0,132,133
 632 -72 632 -72 615 -55 c 128,-1,134
 598 -38 598 -38 598 -16 c 0,135,136
 598 14 598 14 612 28.5 c 128,-1,137
 626 43 626 43 654 43 c 0,138,139
 683 43 683 43 697.5 28.5 c 128,-1,140
 712 14 712 14 712 -16 c 0,141,142
 712 -44 712 -44 697.5 -58 c 128,-1,143
 683 -72 683 -72 654 -72 c 0,132,133
EndSplineSet
EndChar

StartChar: tm_k_ikaar
Encoding: 65543 -1 120
Width: 1572
GlyphClass: 2
Flags: W
LayerCount: 2
Fore
SplineSet
359 0 m 0,0,1
 238 0 238 0 152 80 c 128,-1,2
 66 160 66 160 66 273 c 0,3,4
 66 371 66 371 116 442.5 c 128,-1,5
 166 514 166 514 242 527 c 1,6,-1
 242 664 l 2,7,8
 242 713 242 713 276.5 747 c 128,-1,9
 311 781 311 781 359 781 c 2,10,-1
 545 781 l 1,11,12
 512 830 512 830 494.5 890.5 c 128,-1,13
 477 951 477 951 477 1016 c 0,14,15
 477 1176 477 1176 594 1271.5 c 128,-1,16
 711 1367 711 1367 906 1367 c 0,17,18
 1137 1367 1137 1367 1275.5 1236 c 128,-1,19
 1414 1105 1414 1105 1414 889 c 2,20,-1
 1414 137 l 2,21,22
 1414 104 1414 104 1436.5 81.5 c 128,-1,23
 1459 59 1459 59 1492 59 c 2,24,-1
 1531 59 l 1,25,-1
 1531 0 l 1,26,-1
 1492 0 l 2,27,28
 1453 0 1453 0 1422 15.5 c 128,-1,29
 1391 31 1391 31 1375 59 c 1,30,31
 1359 31 1359 31 1328 15.5 c 128,-1,32
 1297 0 1297 0 1258 0 c 2,33,-1
 1219 0 l 1,34,-1
 1219 59 l 1,35,-1
 1258 59 l 2,36,37
 1291 59 1291 59 1313.5 81.5 c 128,-1,38
 1336 104 1336 104 1336 137 c 2,39,-1
 1336 889 l 2,40,41
 1336 1070 1336 1070 1219 1179.5 c 128,-1,42
 1102 1289 1102 1289 906 1289 c 0,43,44
 760 1289 760 1289 657.5 1209 c 128,-1,45
 555 1129 555 1129 555 1016 c 0,46,47
 555 937 555 937 581 874.5 c 128,-1,48
 607 812 607 812 652 781 c 1,49,-1
 848 781 l 2,50,51
 885 781 885 781 910.5 803.5 c 128,-1,52
 936 826 936 826 936 859 c 1,53,-1
 1004 859 l 1,54,55
 1004 820 1004 820 982.5 788 c 128,-1,56
 961 756 961 756 926 742 c 1,57,58
 961 729 961 729 982.5 696.5 c 128,-1,59
 1004 664 1004 664 1004 625 c 1,60,-1
 936 625 l 1,61,62
 936 658 936 658 910.5 680.5 c 128,-1,63
 885 703 885 703 848 703 c 2,64,-1
 633 703 l 1,65,-1
 633 527 l 1,66,-1
 838 527 l 2,67,68
 939 527 939 527 1010.5 450 c 128,-1,69
 1082 373 1082 373 1082 264 c 0,70,71
 1082 154 1082 154 1008 77 c 128,-1,72
 934 0 934 0 828 0 c 0,73,74
 779 0 779 0 745 -22.5 c 128,-1,75
 711 -45 711 -45 711 -78 c 1,76,-1
 652 -78 l 1,77,78
 652 -39 652 -39 673.5 -7 c 128,-1,79
 695 25 695 25 730 39 c 1,80,81
 695 53 695 53 673.5 85 c 128,-1,82
 652 117 652 117 652 156 c 1,83,-1
 711 156 l 1,84,85
 711 123 711 123 745 100.5 c 128,-1,86
 779 78 779 78 828 78 c 0,87,88
 900 78 900 78 952 132.5 c 128,-1,89
 1004 187 1004 187 1004 264 c 0,90,91
 1004 340 1004 340 955 394.5 c 128,-1,92
 906 449 906 449 838 449 c 2,93,-1
 633 449 l 1,94,-1
 633 264 l 2,95,96
 633 154 633 154 553 77 c 128,-1,97
 473 0 473 0 359 0 c 0,0,1
359 78 m 0,98,99
 439 78 439 78 497 132.5 c 128,-1,100
 555 187 555 187 555 264 c 2,101,-1
 555 449 l 1,102,-1
 281 449 l 2,103,104
 225 449 225 449 185 397.5 c 128,-1,105
 145 346 145 346 145 273 c 0,106,107
 145 193 145 193 207.5 135.5 c 128,-1,108
 270 78 270 78 359 78 c 0,98,99
555 527 m 1,109,-1
 555 703 l 1,110,-1
 359 703 l 2,111,112
 344 703 344 703 332 691.5 c 128,-1,113
 320 680 320 680 320 664 c 2,114,-1
 320 527 l 1,115,-1
 555 527 l 1,109,-1
EndSplineSet
Ligature2: "'psts' Post Base Substitutions lookup 8 subtable" tm_ka tm_ikaar
EndChar

StartChar: tm_ng_ikaar
Encoding: 65544 -1 121
Width: 2029
GlyphClass: 2
Flags: W
LayerCount: 2
Fore
SplineSet
74 0 m 1,0,-1
 74 59 l 1,1,2
 107 59 107 59 129.5 81.5 c 128,-1,3
 152 104 152 104 152 137 c 2,4,-1
 152 664 l 2,5,6
 152 713 152 713 192 747 c 128,-1,7
 232 781 232 781 289 781 c 2,8,-1
 895 781 l 2,9,10
 928 781 928 781 950.5 803.5 c 128,-1,11
 973 826 973 826 973 859 c 1,12,-1
 1031 859 l 1,13,14
 1031 820 1031 820 1015.5 789 c 128,-1,15
 1000 758 1000 758 973 742 c 1,16,17
 1000 727 1000 727 1015.5 695.5 c 128,-1,18
 1031 664 1031 664 1031 625 c 1,19,-1
 973 625 l 1,20,21
 973 658 973 658 950.5 680.5 c 128,-1,22
 928 703 928 703 895 703 c 2,23,-1
 621 703 l 1,24,-1
 621 449 l 1,25,26
 660 496 660 496 718.5 521.5 c 128,-1,27
 777 547 777 547 846 547 c 0,28,29
 939 547 939 547 1004.5 478.5 c 128,-1,30
 1070 410 1070 410 1070 312 c 0,31,32
 1070 244 1070 244 1042 182.5 c 128,-1,33
 1014 121 1014 121 963 78 c 1,34,-1
 1275 78 l 2,35,36
 1328 78 1328 78 1365 124 c 128,-1,37
 1402 170 1402 170 1402 234 c 2,38,-1
 1402 586 l 1,39,40
 1250 613 1250 613 1150.5 723.5 c 128,-1,41
 1051 834 1051 834 1051 977 c 0,42,43
 1051 1154 1051 1154 1163 1260.5 c 128,-1,44
 1275 1367 1275 1367 1461 1367 c 0,45,46
 1646 1367 1646 1367 1758.5 1268.5 c 128,-1,47
 1871 1170 1871 1170 1871 1006 c 2,48,-1
 1871 137 l 2,49,50
 1871 104 1871 104 1893.5 81.5 c 128,-1,51
 1916 59 1916 59 1949 59 c 2,52,-1
 1988 59 l 1,53,-1
 1988 0 l 1,54,-1
 1949 0 l 2,55,56
 1910 0 1910 0 1879 15.5 c 128,-1,57
 1848 31 1848 31 1832 59 c 1,58,59
 1816 31 1816 31 1785 15.5 c 128,-1,60
 1754 0 1754 0 1715 0 c 2,61,-1
 1676 0 l 1,62,-1
 1676 59 l 1,63,-1
 1715 59 l 2,64,65
 1748 59 1748 59 1770.5 81.5 c 128,-1,66
 1793 104 1793 104 1793 137 c 2,67,-1
 1793 1006 l 2,68,69
 1793 1135 1793 1135 1702 1212 c 128,-1,70
 1611 1289 1611 1289 1461 1289 c 256,71,72
 1311 1289 1311 1289 1220 1204 c 128,-1,73
 1129 1119 1129 1119 1129 977 c 0,74,75
 1129 861 1129 861 1206 773.5 c 128,-1,76
 1283 686 1283 686 1402 664 c 1,77,78
 1402 713 1402 713 1448 747 c 128,-1,79
 1494 781 1494 781 1559 781 c 2,80,-1
 1598 781 l 1,81,-1
 1598 723 l 1,82,-1
 1559 723 l 2,83,84
 1525 723 1525 723 1502.5 700.5 c 128,-1,85
 1480 678 1480 678 1480 645 c 2,86,-1
 1480 234 l 2,87,88
 1480 137 1480 137 1419.5 68.5 c 128,-1,89
 1359 0 1359 0 1275 0 c 2,90,-1
 680 0 l 2,91,92
 646 0 646 0 624 -22.5 c 128,-1,93
 602 -45 602 -45 602 -78 c 1,94,-1
 543 -78 l 1,95,96
 543 -35 543 -35 558.5 -3 c 128,-1,97
 574 29 574 29 602 39 c 1,98,99
 574 49 574 49 558.5 81 c 128,-1,100
 543 113 543 113 543 156 c 1,101,-1
 602 156 l 1,102,103
 602 123 602 123 624 100.5 c 128,-1,104
 646 78 646 78 680 78 c 2,105,-1
 807 78 l 2,106,107
 883 78 883 78 937.5 146.5 c 128,-1,108
 992 215 992 215 992 312 c 0,109,110
 992 377 992 377 949 423 c 128,-1,111
 906 469 906 469 846 469 c 0,112,113
 752 469 752 469 686.5 417 c 128,-1,114
 621 365 621 365 621 293 c 1,115,-1
 543 293 l 1,116,-1
 543 703 l 1,117,-1
 289 703 l 2,118,119
 266 703 266 703 248 691.5 c 128,-1,120
 230 680 230 680 230 664 c 2,121,-1
 230 137 l 2,122,123
 230 104 230 104 252.5 81.5 c 128,-1,124
 275 59 275 59 309 59 c 1,125,-1
 309 0 l 1,126,127
 270 0 270 0 238.5 15.5 c 128,-1,128
 207 31 207 31 191 59 c 1,129,130
 176 31 176 31 144.5 15.5 c 128,-1,131
 113 0 113 0 74 0 c 1,0,-1
EndSplineSet
Ligature2: "'psts' Post Base Substitutions lookup 8 subtable" tm_nga tm_ikaar
EndChar

StartChar: tm_c_ikaar
Encoding: 65545 -1 122
Width: 1379
GlyphClass: 2
Flags: W
LayerCount: 2
Fore
SplineSet
352 0 m 0,0,1
 234 0 234 0 151 80 c 128,-1,2
 68 160 68 160 68 273 c 0,3,4
 68 371 68 371 118 442.5 c 128,-1,5
 168 514 168 514 244 527 c 1,6,-1
 244 674 l 2,7,8
 244 719 244 719 278 750 c 128,-1,9
 312 781 312 781 361 781 c 2,10,-1
 547 781 l 1,11,12
 514 830 514 830 496.5 890.5 c 128,-1,13
 479 951 479 951 479 1016 c 0,14,15
 479 1176 479 1176 574.5 1271.5 c 128,-1,16
 670 1367 670 1367 830 1367 c 0,17,18
 1008 1367 1008 1367 1114.5 1236 c 128,-1,19
 1221 1105 1221 1105 1221 889 c 2,20,-1
 1221 137 l 2,21,22
 1221 104 1221 104 1243.5 81.5 c 128,-1,23
 1266 59 1266 59 1299 59 c 2,24,-1
 1338 59 l 1,25,-1
 1338 0 l 1,26,-1
 1299 0 l 2,27,28
 1260 0 1260 0 1228.5 15.5 c 128,-1,29
 1197 31 1197 31 1182 59 c 1,30,31
 1166 31 1166 31 1135 15.5 c 128,-1,32
 1104 0 1104 0 1064 0 c 2,33,-1
 1025 0 l 1,34,-1
 1025 59 l 1,35,-1
 1064 59 l 2,36,37
 1098 59 1098 59 1120.5 81.5 c 128,-1,38
 1143 104 1143 104 1143 137 c 2,39,-1
 1143 889 l 2,40,41
 1143 1070 1143 1070 1058 1179.5 c 128,-1,42
 973 1289 973 1289 830 1289 c 0,43,44
 717 1289 717 1289 637 1209 c 128,-1,45
 557 1129 557 1129 557 1016 c 0,46,47
 557 939 557 939 580.5 877.5 c 128,-1,48
 604 816 604 816 645 781 c 1,49,-1
 850 781 l 2,50,51
 887 781 887 781 912 803.5 c 128,-1,52
 937 826 937 826 937 859 c 1,53,-1
 1006 859 l 1,54,55
 1006 820 1006 820 984.5 788 c 128,-1,56
 963 756 963 756 928 742 c 1,57,58
 963 729 963 729 984.5 696.5 c 128,-1,59
 1006 664 1006 664 1006 625 c 1,60,-1
 937 625 l 1,61,62
 937 658 937 658 912 680.5 c 128,-1,63
 887 703 887 703 850 703 c 2,64,-1
 635 703 l 1,65,-1
 635 527 l 1,66,-1
 1006 527 l 1,67,-1
 1006 449 l 1,68,-1
 635 449 l 1,69,-1
 635 264 l 2,70,71
 635 154 635 154 552 77 c 128,-1,72
 469 0 469 0 352 0 c 0,0,1
352 78 m 256,73,74
 436 78 436 78 496.5 132.5 c 128,-1,75
 557 187 557 187 557 264 c 2,76,-1
 557 449 l 1,77,-1
 283 449 l 2,78,79
 227 449 227 449 186.5 397.5 c 128,-1,80
 146 346 146 346 146 273 c 0,81,82
 146 193 146 193 207 135.5 c 128,-1,83
 268 78 268 78 352 78 c 256,73,74
557 527 m 1,84,-1
 557 703 l 1,85,-1
 361 703 l 2,86,87
 346 703 346 703 334 694.5 c 128,-1,88
 322 686 322 686 322 674 c 2,89,-1
 322 527 l 1,90,-1
 557 527 l 1,84,-1
EndSplineSet
Ligature2: "'psts' Post Base Substitutions lookup 8 subtable" tm_ca tm_ikaar
EndChar

